<mxfile host="app.diagrams.net" modified="2021-04-20T08:32:17.704Z" agent="5.0 (Macintosh; Intel Mac OS X 10_14_6) AppleWebKit/537.36 (KHTML, like Gecko) Chrome/89.0.4389.114 Safari/537.36" etag="LPVakjQSU8eI3LohAHEC" version="14.6.3" type="github">
  <diagram id="OIu1LouQEn0f12TnnLhf" name="Page-1">
    <mxGraphModel dx="4792" dy="2228" grid="1" gridSize="10" guides="1" tooltips="1" connect="1" arrows="1" fold="1" page="1" pageScale="1" pageWidth="827" pageHeight="1169" math="0" shadow="0">
      <root>
        <mxCell id="0" />
        <mxCell id="1" parent="0" />
        <mxCell id="JX4TtDDn6b8yOE6emrvu-1" value="AWS Cloud" style="outlineConnect=0;gradientColor=none;html=1;whiteSpace=wrap;fontSize=12;fontStyle=0;shape=mxgraph.aws4.group;grIcon=mxgraph.aws4.group_aws_cloud;strokeColor=#AAB7B8;fillColor=none;verticalAlign=top;align=left;spacingLeft=30;fontColor=#AAB7B8;dashed=0;" vertex="1" parent="1">
          <mxGeometry x="30" y="490" width="610" height="380" as="geometry" />
        </mxCell>
        <mxCell id="JX4TtDDn6b8yOE6emrvu-4" value="" style="outlineConnect=0;dashed=0;verticalLabelPosition=bottom;verticalAlign=top;align=center;html=1;shape=mxgraph.aws3.route_53;fillColor=#F58536;gradientColor=none;" vertex="1" parent="1">
          <mxGeometry x="70" y="681.5" width="50" height="37" as="geometry" />
        </mxCell>
        <mxCell id="JX4TtDDn6b8yOE6emrvu-5" value="" style="rounded=1;arcSize=10;dashed=0;fillColor=none;gradientColor=none;strokeWidth=2;" vertex="1" parent="1">
          <mxGeometry x="150" y="540" width="420" height="260" as="geometry" />
        </mxCell>
        <mxCell id="JX4TtDDn6b8yOE6emrvu-6" value="" style="dashed=0;html=1;shape=mxgraph.aws3.virtual_private_cloud;fillColor=#F58536;gradientColor=none;dashed=0;" vertex="1" parent="1">
          <mxGeometry x="178" y="520" width="42" height="30" as="geometry" />
        </mxCell>
        <mxCell id="JX4TtDDn6b8yOE6emrvu-9" value="" style="outlineConnect=0;dashed=0;verticalLabelPosition=bottom;verticalAlign=top;align=center;html=1;shape=mxgraph.aws3.rds;fillColor=#2E73B8;gradientColor=none;" vertex="1" parent="1">
          <mxGeometry x="450" y="661" width="60" height="70.5" as="geometry" />
        </mxCell>
        <mxCell id="JX4TtDDn6b8yOE6emrvu-10" value="" style="outlineConnect=0;dashed=0;verticalLabelPosition=bottom;verticalAlign=top;align=center;html=1;shape=mxgraph.aws3.ec2;fillColor=#F58534;gradientColor=none;" vertex="1" parent="1">
          <mxGeometry x="187.75" y="676.75" width="62.25" height="46.5" as="geometry" />
        </mxCell>
        <mxCell id="JX4TtDDn6b8yOE6emrvu-14" value="" style="outlineConnect=0;dashed=0;verticalLabelPosition=bottom;verticalAlign=top;align=center;html=1;shape=mxgraph.aws3.internet_gateway;fillColor=#F58534;gradientColor=none;" vertex="1" parent="1">
          <mxGeometry x="343.57" y="520" width="35" height="30" as="geometry" />
        </mxCell>
        <mxCell id="JX4TtDDn6b8yOE6emrvu-15" value="EC2&lt;br&gt;" style="text;html=1;align=center;verticalAlign=middle;resizable=0;points=[];autosize=1;strokeColor=none;" vertex="1" parent="1">
          <mxGeometry x="198.88" y="731.5" width="40" height="20" as="geometry" />
        </mxCell>
        <mxCell id="JX4TtDDn6b8yOE6emrvu-16" value="Internet Gateway&lt;br&gt;" style="text;html=1;align=center;verticalAlign=middle;resizable=0;points=[];autosize=1;strokeColor=none;" vertex="1" parent="1">
          <mxGeometry x="310" y="550" width="110" height="20" as="geometry" />
        </mxCell>
        <mxCell id="JX4TtDDn6b8yOE6emrvu-17" value="Rack&lt;br&gt;" style="text;html=1;align=center;verticalAlign=middle;resizable=0;points=[];autosize=1;strokeColor=none;" vertex="1" parent="1">
          <mxGeometry x="480" y="637" width="40" height="20" as="geometry" />
        </mxCell>
        <mxCell id="JX4TtDDn6b8yOE6emrvu-18" value="" style="shape=image;verticalLabelPosition=bottom;labelBackgroundColor=#ffffff;verticalAlign=top;aspect=fixed;imageAspect=0;image=data:image/jpeg,/9j/4AAQSkZJRgABAQEBLAEsAAD/2wBDAAMCAgMCAgMDAwMEAwMEBQgFBQQEBQoHBwYIDAoMDAsKCwsNDhIQDQ4RDgsLEBYQERMUFRUVDA8XGBYUGBIUFRT/2wBDAQMEBAUEBQkFBQkUDQsNFBQUFBQUFBQUFBQUFBQUFBQUFBQUFBQUFBQUFBQUFBQUFBQUFBQUFBQUFBQUFBQUFBT/wgARCAI6BHQDASEAAhEBAxEB/8QAHQABAAICAwEBAAAAAAAAAAAAAAcIBQYBAwQCCf/EABwBAQACAwEBAQAAAAAAAAAAAAAFBgMEBwIBCP/aAAwDAQACEAMQAAABtSAAAAAAAAAAAAAAAAAAAAAAAAAAAAAAAAAAAAAAAAAAAAAAAAAAAAAAAAAAAAAAAAAAAAAAAAAAAAAAAAAAAAAAAAAAAAAAAAAAAAAAAAAAAAAAAAAAAAAAAAAAAAAAAAAAAAAAAAAAAAAAAAAAAAAAAAAAAAAAAAAAAAAAAAAAAAAAAAAAAAAAAAAAAAAAAAAAAAAAAAAAAAAAAAAAAAAAAAAAAAAAAAAAAAAAAAAAAAAAAAAAAAAAAAAAAAAAAAAAAAAAAAAAAAAAAAAAAAAAAAAAAAAAAAAAAAAAAAAAAAAAAAAAAAAAAAAAAAAAAAAAAAAAAAAAAAAAAAAAAAAAAAAAAAAAAAAAAAAAAAAAAAAAAAAAAAAAAAAAAAAAAAAAAAAAAAAAAAAAAAAAAAAAAAAAAAAAAAAAAAAAAAAAAAAAAAAAAAAAAAAAAAAAAAAAAAAAAAAAAAAAAAAAAAAAAAAAAAAAAAAAAAAAAAAAAAAAAAAAAAAAAAAAAAAAAAAAAAAAAAAAAAAAAAAAAAAAAAAAAAAAAAAAAAAAAAAAAAAAAAAAAAAAAAAAAAAAAAAAAAAAAAAAAAAAAAAAAAAAAAAAAAAAAAAAAAAAAAAAAAAAAAAAAAAAAAAAAAAAAAAAAAAAAAAAAAAAAAAAAAAAAAAAAAAAAAAAAAAAAAAAAAAAAAAAAAAAAAAAAAAAAAAAAAAAAAAAAAAAAAAAAAAAAAAAAAAAAAAAAAAAAAAAAAAAAAAAAAAAAAAAAAAAAAAAAAAAAAAAAAAAAAAAAAAAAAAAAAAAAAAAAAAAAAAAAAAAAAAAAAAAAAAAAAAAAAAAAAAAAAAAAAAAAAAAAAAAAAAAAAAAAAAAAAAAAAAAAAAAAAAAAAAAAAAAAAAAAAAAAAAAAAAAAAAAAAAAAAAAAAAAAAAAAAAAAAAAAAAAAAAAAAAAAAAAAAAAAAAAAAAAAAAAAAAAAAAAAAAAAAAAAAAAAAAAAAAAAAAAAAAAAAAAAAAAAAAAAAAAAAAAAAAAAAAAAAAAAAAAAAAAAAAAAAAAAAAAAAAAAAAAAAAAAAAAAAAAAAAAAAAAAAAAAAAAAAAAAAAAAAAAAAAAAAAAAAAAAAAcGA1LVsWE6daw5TftiBxub9x+TbEUAAAAAAAAAAAAAAAAAAAAAAAAAAAAAAAAAAAAAAAAAAANd8bcUxpDdYwTTtQPt8l3F7VKze15ofbNhlKXyyagAAAAAAAAAAAAAAAAAAAAAAAAAAAAAAAAAAAAAAAAA1PHvQbH0D2rhhlQAM1Mu3T9MxuL7hfPmwynOMtzzsZooAAAAAU0jbrvFk8ugbtZD4+/n0+/AAAAAAAAAAAAAAAAAAAAAAAAAAAAAAAeDzlgaKYHtny15wAAM/M29SqueNl5PiSMmlbn0SvMT78AAD5jbBKSVzni3j+e9J1jRtXn+sW9ltmzxG2d+5Xai7pCdSsMnOVgAAAAAAAAAAAAAAAAAAAAAAAAAAAAABpdbIjp+GR1+AAAJUjjYgcLgfWHnnLoHz1ZGeJTnBmigAA0+nML024fh36hCMZwnUvO15gA9UgbETIuzStAk5I0wAAAAAAAAAAAAAAAAAAAAAAAAAAAAABGGCZrn1V7uQ9AAAznrWymn+sLCffOPbda55+e5Pt1IUU2a+AADRcW/XuOq52cwyQAAPd6xzLO07yjNN+pAAAAAAAAAAAAAAAAAAAAAAAAAAAAAEaVthOu/DSuAAAB75O2a7ETWsT4edc6t+mn3xJFw9+kmzXwAHBBtd6/2DztG0AAAAPX98TpPVg4/wCpu1oAAAAAAAAAAAAAAAAAAAAAAAAAAABr3jaqV5a3+gD57AABlfWGwNc9yp+Vo3IPFgdqtmaMm+zkjQjPDAAeerkfb4nQPWQAG45dKVd7mObbD6NyuR/4dOx4SMtKzaZsWlZ7PSFZeImaOAAAAAAAAAAAAAAAAAAAAAAAAAAAFZtG4RwheugAAG62FleaV10/QuxhlQYTLHY9t1m4ckSvND3qB561aFrnXN7UFUqPq52kwyIA3fLoWLw83y6JLaec5IVCt3xC9NsomuZalB0bdYinOPuNhfuw8aPvwAAAAAAAAAAAAAAAAAAAAAAAAAANYqVD9S60fewAA9svbVZ64letK+sml6fXhlPV6MEw+PnvXNpkaPdv6l+WAGjVDhOn2Zhn1jj5FX0Ack+WDsXG/vQ80X5JH+ezPGAAa1W+MvPntZ98ZFJUkAAAAAAAAAAAAAAAAAAAAAAAAAB4POSJoPgew+dr2gAD2SDsQf3HB5uNeb1Zv0vl8yPp99XqwyfzYfYgpuTHLABiPOatsS1vtRrzAAsZu1raZOmuYGeLAAAAiaIIfpFtvqY5uAAAAAAAAAAAAAAAAAAAAAAAAAAjrXltXyulaK+dUZ04feO183fbt6m4ON8E11MEy+HnV0hSuefmU+fQzd29iCyaSoAAg3Vnq3K32oACXpimeaVRvL8y+xLc9AAAAfHz79vvwAAAAAAAAAAAAAAAAAAAAAAAAABAehZ8XKGCW6NU9eejKedvafZt1uHozieo/DBNA6PuPW2/THPz1y+ZHv8AOzMllt6km9UADU6YQvTfOi72AMj6xXfyVq4DqG4ec/XWPUnzStIc7bk0pj98tzw9Y8fD2nYsE0rS9X3xJu7ydFRX42NER11knY9+nwm0Lhmp13qmbcADQcMhGvTGXkekqZ4jeklSwAAAAAAAAAAAAAAAADB1pjLvHsw6dl4Y/Th9xkUZPWZ7te0HzIDy+sOvN6nOX3l5ye7N61htFv07xYzRgOCnOh1fvBhkABPu3XrDLHxgOmgcP0XhE9DAM/cKX55sXilue0x1erd6Me2H1ZTeq821mkqPCqv9gsJIE7ymnaC6tt91JvlxJ0gIIrpXux8NKygs1vVaaVg5AAAAAAAAAAAAAAAAAAQvWGL6F9zhqTfDH9cER4bZ8c5jxu5FqWUHi9a+Bb1QDnJY93MZvVsVw/qzfnoARPry9VFZ7iABzcqSpO4983y4+/OmgcP0XhE9DAEoZ4q2cIzvKa1K32sAZP1ivbWme5LCqv8AX7CSBO8pp2gurbfdSb5cSdIeL57oj56n+gz56BZreq00rByAAAAAAAAAAAAAAAAAAprH8T03mcteQ+2L60T00VsePl9xe3N6ti+2GVY/3q4Ru1Ifedm15nsnD1hnBPcVCvG6Rl5k2lXz1q6F6aABtE0SFPju2+9VyQp/TQOH6Lxlou+3R4s/DIyrNCdQe3Ss19K22DkMIK92GwE82HjnlpVrTuF5h+jX0rpP8ihVAddsJIE7ymnaC6tt91JvlxJ0hquPbpMqvfZmmKb5ebEM2P3rZhsRIAAAAAAAAAAAAAAAABQbHw/VuJqw5/YxfcTEWb58vfn5esTt+e8369K2sZ9xYdu1Tnn5752jXnPu4W3WM2luYtRx7lK9prPcbBVT266aFtAAmCRZfnUWWxzxRIVHpoHD9F4zEXfL1rZ+ftdo/C9N47oy835rfP8AIYQV/sFophsvEFJtWwarzCdPvpXSf5HCqA65YSQJ3lNO0F1bb7qTfLiTpDWsezSFVe/yJIMlSmRzxUrZeTo56wgAAAAAAAAAAAAAAAAH578Q3WUvY8mX+MP2IMZs+Q449Yh85yWPcy+K15zFc7dZ5fMnfsWvOyBaCT5wb9NY7zkiPL6FvhKP4johhkQALDT7Y+MY7I7MEesfTQOH6Lx74u/2KTPMo9iiMvTa8e5ditc7ymEFe7DaKYbLxBSbVsGq8wnT76V0n+RwqgOuWEkCd5TTtBdW2+6k3y4k6Q+Pn2kWuVXvx42QylxJWg7WmeagAAAAAAAAAAAAAAAAFJ9OiOppTw7WxR/4+6UzeQ449Yh8D0ezHvY171j5992b1rDZaSpzjJniAa1j2aR/NW78fPoAFnJnsvEjZhA6aBw/ReET0MAWf3qrMla5OkQgr3YdszW1AtF8bHj5wS19K6T/ACOFUB1ywkgTvKadoLq233Um+XEnSA0+q8R0XVER0MEs7EPapZuHgAAAAAAAAAAAAAAAAEd0/j7z1STpWTIROcPfwOOPuM++fvZPPrde/BliD5z/AAMptGtPXH7rFwc++QQHqWCvCudoAAC00u2bh5sQ4dNA4fovCJ6GDZ8mpPkwWHjatePehBXuwgDkvpXSf5HCqA65YSQJ3lNO0F1bb7qTfLiTpAODCdOGQ5pJGXvo3WPt9zlp4KAAAAAAAAAAAAAAAAAI2x7lYMzE9L1TwMoBx9fced2XH62j1Ysh8aDpGfyemanTxsT2neNgCmsbddGQfUwAAtDqkzzaR5G36kZo3poHD9F49MV0HnyvjO+sVw9jtHCFa9WehBXuwgDkvpXSf5HCqA65YSQJ3lNO0F1bLTDu1o2Ib7sPuVmvnzqWLjh9QTqWDr3nDJXKWngwAAAAAAAAAAAAAAAAAHVHuPejrQtK26R5tefPnr73Py3L24fR8B1w7k+eBl+bDcTJH7IluZgHiodD9G6kT0IAALIRVJUnCXj2IglKJ00Dh+i8ZiLvloqmb9T6Edc8/cKX55sVa9qBhBXuwzRIcxzdXPDJ4DmNut9K6T/I4VQHXLCSBO8pp2gurAHovvL86oJ1xPRD59BOe1A2QWTioAAAAAAAAAAAAAAAAAAB59Lx7mhaHqWjQsRrWTnYfGTbtjw+vp5Nf+oqbHmWrX7dYN+lAGg06g+qEbdAAAnKZp3lEPWByavrbtY6aBw/RWXi75euL7LxOqPXWe4s/wCsFw4Lm+Xwiges2cmay8SUq1Z3UkJ1C+ldJ/kULIDrtg5AneU08QXVgDvvvL86oL1xPRD59Df7ZzfLsgk6QAAAAAAAAAAAAAAAAAAAAHGsec+g6DqWfQMLqWfbNv19n3PCMtbzrYSrKc8NiEAMPqGtMmPcAADMbfswxk0w+dAwyLuxSG9tuvali9WdPOXMfeXSwjFu7PmtmEaT5z+RglN91zYiMK15fYchnidOYJYA+t+zR0fsMiDK+sW187UEAAAAAAAAAAAAAAAAAAAAAADE/Mmh6Dq2PX+uPteUjXHu3g9U9yM++AAAAAAAAAAAAAAAAAAAAAAAAAAAAAAAAAAAAAAAAAAAAAB5PnrUujXmN/bMKAAAAAAAAAAAAAAAAAAAAAAAAAAAAAAAAAAAAAAAAAAAAAAAAAAAAAAAAAAAAAAAAAAAAAAAAAAAAAAAAAAAAAAAAAAAAAAAAAAAAAAAAAAAAAAAAAAAAAAAAAAAAAAAAAAAAAAAAAAAAAAAAAAAAAAAAAAAAAAAAAAAAAAAAAAAAAAAAAAAAAAAAAAAAAAAAAAAAAAAAAAAAAAAAAAAAAAAAAAAAAAAAAAAAAAAAAAAAAAAAAAAAAAAAAAAAAAAAAAAAAAAAAAAAAAAAAAAAAAAAAAAAAAAAAAAAAAAAAAAAAAAAAAAAAAAAAAAAAAAAAAAAAAAAAAAAAAAAAAAAAAAAAAAAAAAAAAAAAAAAAAAAAAAAAAAAAAAAAAAAAAAAAAAAAAAAAAAAAAAAAAAAAAAAAAAAAAAAAAAAAAAAAAAAAAAAAAAAAAAAAAAAAAAAAAAAAAAAAAAAAAAAAAAAAAAAAAAAAAAAAAAAAAAAAAAAAAAAAAAAAAAAAAAAAAAAAAAAAAAAAAAAAAAAAAAAAAAAAAAAAAAAAAAAAAAAAAAAAAAAAAAAAAAAAAAAAAAAAAAAAAAAAAAAAAAAAAAAAAAAAAAAAAAAAAAAAAAAAAAAAAAAAAAAAAAAAAAAAAAAAAAAAAAAAAAAAAAAAAAAAAAAAAAAAAAAAAAAAAAAAAAAAAAAAAAAAAAAAAAAAAAAAAAAAAAAAAAAAAAAAAAAAAAAAAAAAAAAAAAAAAAAAAAAAAAAAAAAAAAAAAAAAAAAAAAAAAAAAAAAAAAAAAAAAAAAAAAAAAAAAAAAAAAAAAAAAAAAAAAAAAAAAAAAAAAAAAAAAAAAAAAAAAAAAAAAAAAAAAAAAAAAAAAAAAAAAAAAAAAAAAAAAAAAAAAAAAAAAAAAAAAAAAAAAAAAAAAAAAAAAAAAAAAAAAAAAAAAAAAAAAAAAAAAAAAAAAAAAAAAAAAAAAAAAAAAAAAAAAAAAAAAAAAAAAAAAAAAAAAAAAAAAAAAAAAAAAAAAAAAAAAAAAAAAAAAAAAAAAAAAAAAAAAAAAAAAAAAAAAAAAAAAAAAAAAAAAAAAAAAAAAAAAAAAAAAAAAAAAAAAAAAAAAAAAAAAAAAAAAAAAAAAAAAAAAAAAH/8QANBAAAAUCAwYEBgICAwAAAAAAAgMEBQYAAQcQIBESFhcwNRQVMzYTMTI0UGAhI3CwIiVA/9oACAEBAAEFAv8AaBbdlK39vQ0oxBbCqHiUVarYl2pPiMiHdue0TrZRIy0atM5Jln+BXKQIGmzjiKYKlr4vcL6QDEUNvcxSVHa9JnlYlpNLxWpK/olVWvtt+/PEmQs1nebL3Kr3uK/QZVIkjvJWvwai/wDFjXJKRRskTAoqbL0l2HEwpRcswJwP/HIbL0b1hwtUJ3XTYYbi/X1q8huIfZ4esoQriv0mBLdY9T19skSKDTrj0ROYnx85OoLVEdO97BsuxAa0i217CtkpWEIwKp6ypaOxNbQi5ppatimkonEtpMpNMWZXRR5Z4amSw9NLITMHJe6frsglCZiA6Oyl3UdSJhLZ0KxWavVKSfiA04XOwjk/TlbON7ZiUZ56mJJXBEzPU4bWenXEVzX0coMUj1J1RyUbfiA7oaJnbO9gY4y1EuP65K5cFqsaaM8zqMzSY9LpI6AWn5KidwWjDg/4Uo6jq6NEWE/The9X6iRcoQGsuJpxNNjyjeCf1mXyjygoQrjF1EKE5yVPYyoq15iDYYTAXLHnh6C4pZ0r32WlGIYU1zzzFRvXTKjkZzBiXe1JlRSwn9WfXcDK3KVJixR1G1rUuyklIjgzMqUmLVOhUT8QGeFiL4jn0VCgtITLJwa836LVEnR4pBhYG1JoEypqLjzYVbyVvpxVRQhYCORV6Guwrpyh7s118qZn9YxHxyZo3+36rOna6936jBFVT4JOnb4wglUmC/OGpWTuCygLT5XH9J55aUl1xGVjdmCQpZClWLCW9NKpadIj+gwRFc/iZYO2M9TOXKY6Y0TJwG/5yWEuri8w2MuLZI8nWKtjzT1hsrR0MBiU6LYhiLoAwmg/Uhu210MNueb0kaI9wOQRNCyFumIV9itaevOF9VhXDQVZlqCttQVBYq+eQg2GEwFyxxZo86e7WsG2mXsBsgbFKI9IqiEbLjCGWysyQqtfzqJ4f/EsAASw1LYzxKmaoE1tvSeY6hfS5DBFrNUWmKiPmN7gndEv6guU2RpI9e57qoTiSKOglRnrjSomQ2lqJiBESoUmqzav8tNhXDQVRgaCto8RZ4cMmfwyPWpa0ilXOZZ5wo6EGhwUxaOdo1r/ANeSwFM62Yj3iMPYb3uH9PlyvYCN32PEviN3QRxQ0xugooZ4kMKdVtXjLNHwLZqMBZpozzMx/wAA6DejEca2IgtyDXiFKfDF9CARjzVXOiVh0fbkahetRgNLSdfcDvfqDur8a4I3cpqdbTBPSp6aHEJrRGT72i8fFRESj1JY4wkUue2tgLdp8tW0MYjB6Tv4J1pk+/UDbfGO+uTPoI+1nnjUna29CY5LW1vKakN7bbMsXRsaqjBboOZ7lXM9yrme5VzPcq5nuVWxQctrbignNuiXp3EjNc4J2xOuxSTFi5qqK5qqK5qqKIxVvvM0xbXsWUtmRsbWc1VFc1VFRCUmSW0hdBMrTzVUVzVUUzYinujpqeps2sojcVTN7mqormqormqormqoqJSIckR/lXpV4RtdHULeBGeIbnf56HBYBAmsqMsYWaE22pT6GpOn+JlCmzy9l1XvstMZBd+dehhe0bw9B3o62Z7VMapheyX5vparLQJZA/qJAu02vsvAZcNxyxT7tlhV9M79r5RH3LpnswGlHqwt7R+VxEfQt5ZhgjjCRbh99F72DZ0X3Xqate4bkq7C1K/Q0p02/kyoLujoENgB1YhP3ljX0LfzTd4eJxkk4tSVmd6PQw9d7t77WKDjcpv1tqsSBwAKww4p92ywq+md+18oj7l0LVNkSNQeNSfqwt7R+VnizxknyBfeBnIHHSSpuXQB2HbNb6Wku2wusOmzS6YjKUT414iNa6vig+FJHgT479CMIvMX/FJf8NHCX5agdMzvRyaQ2G6eRN1eRN1TmJJRNeSM25CsN962KncssN2JIqTeFJpS1o1hT0jC3O2SH7LFPu2WFX0zv2vlEfcuiU/xHcsPWJC8h4GY64GY64GY64GY6bGhIzlflXI/xLhkjFvo8nNfZvTCFcQtIDLl3JUhNzXfTotbbeghuMTK32a2zOVu3kzH86jLT509YhO9m1k6OGKX4r7Ooke+Vh8iEKU5nejkz93ykRoSWHIm28aWHdLxT7llhh2PKVe48kP2WKfdssKvpnftfKI+5dElKucwZROWWjNuawa5rhpLikjME2uyR3J/LCtcIsmgW82UMdiwOK269T0CVeyrX22XaSLbTqhLb4970Lm9M5kumGKU6oPFDo/ebu3mr/0cKiP+FWb04V2Z3o5IT7JVvNJDXNJDUsnAn8jKLILuT/WKfcssMOx5Sr3Hkh+yxT7tlhV9M79r5RH3LoGCxgJA0GMjrpbnJQ1Ko2/lyFu/Ky1qE0P2TALebKkDjvi6RR4ibrLD2aEdtptQNt8Gz6pG5+UMt77b9HC4FrM+k70ehh5GxNqasU+5ZNUocWVPzAfK5gPlK1Ri5Tkh+yxT7tlhV9M79r5RH3LpkkaTyNK8xlwYzNOGzgJM/flZnGOIUBpQyDKjYtqJ2cPAJ9u2/QCG47pY+pPpGzpkdOSKy9MINwCzQ2ptRCcV5JQSCtWKbjsL6WGXYNJ3o6maOLn6o5h4nbB5Yp9y6CH7LFPu2WFX0zv2vlEfcur50Yxtx1+HWuuHmuj7bDqhnuf8tKYUnkNnZgXMhsdPCSnXLBLlOoARGXIY1Z9J40UGiEpSW2ciQbL5o7f1YdNu+o1zVf5hI+lhhf8A6NZPXBme2Oct72dmd6OScgSo9SmNRqMmZ5UMa1ifUz+iyxT7l0EP2WKfdssKvpnftfJqX3a3HmqfXNU+uap9AxTPGMV90IsVB2vzWMrmsZXNY2uaxtGC3x1CS7mSj8uaUA4C+AtSwKzCoy1LYI8oqPSnJhZhFuCRSEJdk60hXbSYWE0C5IJCpyTB/pjrd5U0alqmyNGYZc0zpYVmbUM4J+BKI+p8G95nejkz93mERLkBB5BiY7JlelLEtY3xO/oqxT7llCokhf2/lo01y0aKfkRbc8ZIfssU+7ZYVfTO/a+oj1zPTM9TVhg0iMWfmzU5Z4VsHZltLcKSRUtw3d01K2hagvVr7LpX5UnpK/pj6DewrZvLf41NlD2vzF41zpV4aMdPCxRurneLtz3dywwPJukuO6XI70cmfu9TKHhfSTShkmZMj2pYVrI9pn5Fin3LLC7s+Ut9y5IfssU+7ZYVfTO/a+oj1zPTM9TTHYatfTECAlsSfn72sKy2MNThS3C9uOpZhe4k0tjLogohUejElkt6TLiFdsn5B4ZQXbeHh+2+Gbdbq0pnlNy9Y65esdcvWOuXrHXL1jrl6x1y9Y65esdcvWOuXrHXL1jprijazKtN7b1uAmSuAmSiYQzEG5OMUa3VTwEyVwEyVwEyU2RlvZj3WOIHo3gJkrgJkprZ0jKTkrhjSuU8BMlcBMlABYsDpG296O4CZK4CZKamFEyUvQEuaXgJkrgJkrgJkrgJkrgJkrgJkq0EZbXvbbbgNkrgJkrgJkrgJkrgJkpJFGlCL5foyxpRL7LcOGhTS3Cs8FxskjaKLeS7CPJLXJkDaaa8JU4Uib/BZ6QlUE2GNYxIIgQhdv8Aabf/xABFEQAABAIDCgoIBgICAwAAAAABAgMEAAUGEBESEyAhMVFxobHBFBYiNUFhcoGR0TI0QlBSU+HwFSMzQJLxMGJgoCSC0v/aAAgBAwEBPwH/ALRrOQvXgXQFuQzjAUQNZjW1fWJhIHTAt89IucN8LS5VJMFi8oo/8DatVXioJIhaMSuQIMQA6nKPs0ViACFgwVEGqh2wZCji0DjDwxhDyUJL8pPkmhw1VamuVA/4AzZqvlgRRDHEulyMtSvaeXpHPgzQ96mCP+5RDwG0KlUyLFuDhaETBiZmf/Ucn+Ki96FdQqgBktx6YpEQpX4iTIIB5V2We8EkzrHBNMLRGJTLCSxC59oco/fRhTRHhk2bIZgEw+MGC5MJR6KnbcHSIpjAgJRsHCYS5aYGEqQZPvXUQhlDXJAtGG1G3yoWmsJpjimv8wNcOKPP2+MC3QdUCUSjYaHUvbuJSVUwcopAEB7veFGZXeycNVDGPo6M/fsw2ZL6+cOs1hA7sY6xh+S4Vus8ANU0Tvbs4d/jhUXckBqombFcjb3D/UAzGaPzlZ+iI225giXytCXEsTC03SPTgPpW2mBfzS48/TDpJ9JUzoW3SJ8XjsHb7vlLEZg7Kl7OUdH3igAAoXIYTlcrZE6xvZC2GCIt2xCG9LKOkcY6xh+ndpW5qgGJ2FjoNAYTJJdypwdD28ujrhgxSl6IJJ945xwjkKqUSHC0BidSQzEb8jjT2fT3dRllwdpfzekfZ0eeHMD8IdIsA7ZtBcniNRigYLkYOUSGEo9FU7G1wGjzwpDLOAoXxQOWbV1ef+A5SnKJTBaAxOpSMuUuyfpmydXV7saoC6XIgHtDZBCAmUCFyBhLLEbpmWUHEESC7eKLzJTKcbA0B9gFb9O5Vus9U3NdOx6rMGjku4Uvfz+iTb9Mvhgu3iLJO+rDYEPaTOVhsb8gNcGfuzDaKpvEYTWnbJMF8Ykstx48W2JdSNB0IJr8g2qHDdN2kZFUMQw/ZKS9cUT93WHuuiyF9fXwfZAR3YdIpgZ2sEubY8ePrHN3bdEStEjdomgUcgY9PTrrfp3aVuap4e+ODm665DKyzA5zq+iAWd4+WWF2aqDkWohyrbPKJezKxbFQL0ZdPTgPXibFEVlf7hAx5/MAK5NYGP8AoIpGySZqpXkthbNg1fjDNSWmQKblXFmqqTT4zYQbuhtJnzfSJzLizJtaT0gxh5d8CFg2D7qow2vN8HpECa7RwpxMjN7GjXGsfJ1dfl4xJ5MSWlvimNUco5uoPOAMIDaEJPzFxKY4TVIqHIGDABguRhzagU9vs24FF3iZm5m2QxcekPpEtD8Umaj8fRJiLu1Y+/Bnky4e5sIPILk8/vohg64E5I4stsh/MFpgpfFR0BmwaPzi8GBouPJHIObq0RSWXXhXhaYck2XT9dvulIl8OUmeJWYCu1kv9SDtDBmEy4MIN24XSxsgZusYl0tBnasqN0qbKO4MABEBtCEnxi4lMcT45ODKKk9qwO/+gwElTomukxsHJ44olLPgTMiQ5co6RwJ+94IzEpfSPiDf99cTBgpLzEIp0gA+Yd3+CWvkpmxOyeDjAMvUHTpD3TKk748J1Y4Uffh81Iqb0RCwdH0gogYAMXINQiBQujYgh3PRWU4JLAujj09AfeeJbLSsCiYw3ShvSN99FRvRGoK6SDem6KOe024MCSNOFviFHIGMe762YMzeJqzlIinoEEA7/wC7IpYomIpJ+1jHu/wW2e6ZCS1Y58wbYmMsO9UBQhrLAshoE3lwXKIgJc0KzuclD9EA7oMeZzdYETiIiPcESyVoyxK5JjMOUfvorU9A2ioKm6V9UAsUoWvj+4+EA88Cira4RO5H2sXcH1wFDgkQyhsgY4VUMqoZQ2URth26Ueq35TLi1BEjlSMzBS+iIXNmSOKrT4jRxVafEaHVFSXFrY/K64UTMkcSHCwQqlclWmXLtuSB0+UcU0vmj4QaiRLOSrj0Q8ZLMFb0sGPbErZBMHIIGGzLqjiml80fCHEvKjMeBAbFaAW6Y4ppfNHwicS0ssVKmU1toW1sWK0wVvSP9QWiSdnKV1RxTS+aPhE0kBJe2FcqluTX+8kRblA584wFZVTJGA4QmcqpQOWtb9I2jAZJXBLocoxNFr+9VU6x8t2BL2/BGqaOYNfTgT9a8y5TrxeNdEci3dvwKUsQsK8IHUO7yghBUMBC5Rhq3K0QKgTIAV0hZg5ZCp7RMfnFG+cS6B2VPufg7Rd1VLPWU+zvrkDMGjIph9I+Md2qukvNxtIbf3krLctCQFYwycXo1ybINbj9E+itqlflLnohwreETq/CAjqgceOuUt+Evkk+u3wx4NJ7pUiLYmUxvvbBiiUbkaqI5Fu7fgTVG/sVSdWzHuiRp32YpB12+GAqQFEzEHpAYo3imRQ6jbKn3Pwdou6qlnrKfZ31ELdnAueClAoAUOiukvNxtIbf3jMtygmHUEBWNTFxfC3s2UKnX6Bq5cHKNFIVrzLlOuwPGtzRs/ByLNsZrAtDu6PKKKN7V1Fh9kLPH+sF/wDmzlqnmAR2xSdumi7A5MpgtGqiORbu3wtiTMIZh2DHD3fzTeIxR14d2z/MG0SjZvCDhdFEIo5zkXQOyqeulVH6hbrEXEEUVcKGOoiYbQst11Ue50D/ANqn3Pwdou6qlnrKfZ31NPWU+0G0KpxNnrZ8okkpYULM2aPx6ZfN1B5Q4mrx2nellLQ7v3iYWFAICoaymEhrosILAuS7CHn6BqgCJeHpDFLlrEUkc42+H91M0eEOU0s4hDtXg7dRXMAxRlG9sb4PtCI7sF++KzngKnyAAB4xSc929Cz4Q3jVRHIt3b4X/SPoHYNVEwG8Kj1hsgckUdxzIug2yqc84LafKKJ+sq9nfVR7nT+VT7n4O0XdVSz1lPs76mo3K6Y9YbQqmFHRfOTOL7Zb1fWFKJqAW1NW0dFkLInbqCkoFgh+8LAYTVe8Ht6Iej/44iEAFUvDkCPXFKlrt6Cfwhtx1JqHROCiY2CEL0gF3Lzt1Q5Y2Y88S5G8NEk8wB968Gfmupkr3bAg6hlLLscmKqiORbu3woW7IJc8cVHPzA1xK2H4c2BG20cow7UvTdRTMA7Io3ziTQOyqc84LafKKJ+sq9nfVR7nT+VT7n4O0XdVSz1lPs76gGzHDZYHCBFg6QAa6UsgFMrsuUMQ7v3jY98RIfOEBhguIoCiNbEPyYm61/frH69mLdW1Sv65Es4gGvCnQ2zFbT5V0RyLd2/ApI5vDEU+k+LzijfOJNA7Kl5GxcKCqoTGPWMM5W1YGE6BbBHrGqj3On8qn3Pwdou6qlnrKfZ310amhQLwJUez5eVc3TvrBYvVsx/vJIvdoikOUuyoaxqALYsrROCLQVB6AEdsGETCJhrkCd8mKfVaPgGFOOcFtPlXRHIt3b63LlNmkKyw4giazE0yXvmQoZAijfOJNA7MGj3On8qn3Pwdou6qlnrKfZ34ATB4ULAVN4jFF3KzgVr6cTWWZe+H3qivZHYP7xo5M0WBQIRVIsQFCDiwBywBcGaq3iUG6ws8RwKKp3Ts58xdo4RZelMZm7SU0gPhEwYKy5a9K1URyLd2+DGApRMPRBTAcoGLkGHCJHKRkT5BhygdqsZE+UsUb5xJoHZg0e50/lU+5+DtF3VTSSlmahVDHssCyOKSfzR8InEpLLBTAp7bq2OKRfnavrHFInztX1iVSgJWJxA91dWaofjY0VH/AFHZ+9avFWg2pjDacoq4leSOqAEDBaGENVKFbhmijn3B9cCiROSspoDaOEy5M9chnD/5ilpfzkjdQ7aqI5Fu7fC/6R9A7BijL6/txbmyk2fSqlLH0XhNA7vKKN84k0DsqmM/dtXaiJLLAHNEim7iYrHItZYAW66qPc6fyqfc/B2i7sClnpId+6AyVz1a8y9Uc+Lx/foO1mw2pmhtOyGxLhZBFCKBdEG0MKlSt06Il8JduBRUtjMxs5twYU5cKsZsZZEbBsDZE2mhJmikNlhy221URyLd2+Fv0j6B2DEseCwdEW6OnRACBgtCHCBHKRkT5BiSIHbTe8nylutlU65xW0+UUT9ZU7O+qj/On8qn3Pwdou7ApZ6SHfugMldJpiVdQGqQ4i5dP09wpLqIDdJjZDaedDgO8ISXTXC6TG2soWmAInS1/mCxuuzwxYDSbvGSd6QNYGgI4xTH49QRximPx6gjjFMfj1BHGKY/HqCOMUx+PUEO3az1S+rjaNbSYOWNvBzWWwM/mBgsFTUFSU7fokBMimINEcYJj8zUEfibrhHC7rl5LY4wTH5moIXWO4UFVQbRGGj1diYToDYIxxgmPzNQQ3dKtVb8kNhvOOMEx+ZqCDvFlF+EmHl+UcYJj8zUEcYJj8zUEcYJj8zUEO5g4fXN/NbZHGCY/M1BHGCY/M1BCs7frFuDKYvchFDpjdEGwYbTs5cS4Ww3douQ/LNAGAg3Y9EHMKhhOPT/AMGKYSjaEFmzi9GSPjtD/tUf/8QANBEAAQIEAwYFBAAHAQAAAAAAAQIDAAQQERIgMRMUITIzUSJBUFKBNEBCkSMwQ2BhcaBi/9oACAECAQE/Af8AqNXMNojff/MNzKHOHnCXkqOE6/2GtYQLqh2ZU5wGmRZxWXDcwpHAwhxLguP7AWsNjEYddLpucqBiaP8AiNYQCk3htzGP5U7fCCIlCS1x9TJCRcw86XVf4zNHAypUCiFYDfO68loeKhIHEwucbGnGN+T2hE20rztGsIdUh8geZ9Qm3bnZjOs2bSj5hs3FWjdAzTqDjBHnG02LQLmsOvKePHI28trlhCmpkhWih6e85s0XzpTiUEw4rEomGzY1Y5czikoGNXlDrpdViOYEg3ES0ztfCrX06bcxLw9s7YwoU58VHGjHLmmntqqw0H8gG3ERLP7UWOvpi1YElUE345kpKjYRM2QEtDyq2eFGeTLNu4E4RqcqG1OGyYbk0J5+MbJsfjBTLOHD5w7KKRxTxEIUUKxCGnA6nEPS5tVm7d88s3gG1VDpKllVWzY0QLJFZp/ZABOsJcCkY4dc2qyrI22XVYRCgJVrwCJNwuA4qbu4HsVuF6TEqF+JGsS7uxXx09Lml4rfOZloK8a9BDz5d4DSLQW+0EEa0T4rZJ1s4scPfwWQ15nLLM7JHHUw6jaIKYaaS0LJyzcvi/iJ1iTexJwHy9JUbC8L6YP+8rbWLxK0h13H4RplLfaJcHEAcikhWsPubRwnJKt7RzjoIadDoJH8h5osuBxv0l82bMIb2jJGREvhGN3SHXdpw8s8rxUpWSZXs2zlZbKZckamJAHxHy9Rmz4QIZeDQsRC1MO80JZl/dA2TKbiHXi6eNRrkUbCJQWbvknl3UEZALm0AYRaG0BtOERMvqZthjfnO0b852hE8b+MQCFC4o/MJZ4ecb+r2wJ8+aYbcS6nEmH3NkjFG/q9sJdxNbSN/V7Yl3i8kk1cdS0nEqN/Ptjf1e2GJourw2+8muKwIXVKbiCLcKp1yOG5hoYWwMjq8ayrJKpxOis/+OSRd/pmCbC8LWVqKjWUcwOW7xOdE0a+l+DSR5DWacxuf6rJ9YfeO9QmF1HCHE3FU6iqzhEJGJQGR9WBsnLJWBUs+Ua0n/xyMKwuJMTJs0rIDY3ic6NGvpfg0keQ0JsLxrWT6w+8XzGF0TrVxNuNEcwq7EsLuiqJwYylcTyvCE5WvDLrMSSipux8qT/4wnURsm/bE22EOcPOBrE50TSVQkNAxPIAAUKTfQ/VGvpfg0keQ0c5DSXYbW2FKEbqz2hDDaDdI+8MLoipF4UMJtCOarsSQ4k0cVhQVQhOJYTE6q7lu2VpouS1hEkLN0n/AMYTqKT/ADCk30TSX6SYn+QUm+h+qNfS/BpI8hovlNGpvZICbQJ8X4phKgoXH3q6DItOIQjmq5rEmLN3oQFCxhMrs3QsaQ6rE4TlleiIAA0pP/jA4GN+R2h93arxQ2MSwInOiaS/STE/yCk30P1Rr6X4NJHkNVpwKKayLnEtn7xQsoiF6QnXNh8V6uawyMLYFVnCknNLdJNZ/wDHJJoxOX7ROdE0TMuoGEGHHluiyqTfQ/VGvpfg0keQ1nGTfaJrLmzqfvH02VeFaQjKTaL8b1UMS7ZJo2ZOaX6Saz/41QguHCmGGQym0TnROWb6H6o19L8GkjyHJsm/bE6hKcOEQ3zp+8WnGLQsEcDlK+1U6UZGJ7JPHwAZtqplltQhp0OpxCk/+MawRbhCVFCgoQhQWkKETnROWb6H6o19L8GjMyWRa0b+fbEu+Xr8I38+2N/Pth+Y29uENdRP3q0BesKYUNKkXyIpKC61KyT55Rmc+lREgfCoUn/xhOoidbwrxjzpIu/0zE50TRmVbW2FGJmXQ0kFNJvofqjX0vwckhorJLJxOj79SEq1hTBHLBBGsEXgi1BwNJMeAnJPH+IM0uhLrGFUMMFlR7Un/wAYTqIeb2qCmiFFCgoRMqC5fEKS3STE9yCk30P1Rr6X4OSQ0Vkk2cIxnz9BKQrWFMe2FJI4GCm1L8IYGFsZFy7bhxKEboz2jdGe0boz2jdGe0boz2hDaWxhTVxpDvNG6tdqKlmlG5Eboz2jYowYPKN0Z7QlIQMIhxtLgsqN0Z7QtCVpwqjdGe0BtITgGkboz2jdGe0boz2htpDfLG6M9o3RntAlmkm9vRCAdYUwDywtophPHhAFuH9j7BOLEP8Aqo//xABMEAABAgMCBgwKCgEDBAMAAAABAgMABBESIRAgIjFBUQUTFCMwNFJhcXOxwTIzQoGCkZKTotEkNUNQU2BicqHhY0Dw8RVkcLCj0uL/2gAIAQEABj8C/wDaB79NtpPJrUxkB179qadsZEipXS5Tui/Y7/5v/wAxvzDrXOMqPo0whw8nT6oUw+ytBHlC+ojenkq5tP8A4F+kPgL/AA03qgpkpcNjlu3n1Rv804ocmtBjBaFFCxmUk0MFh6/ZGXTaQv8AFTp8+DIfURqVfFH2QedBigdsK1OXRUXj8/kOuW3vwkXmChpW5GdTef1xU3ngZN1OcOiNvbG8um/mVF90Zb6PNfGQlbn8R9FoyNRNYS1skgMK/GR4Pn1QFoUFoVeFJzH/AEk3LGYmHAheTlqOToh2XeDth9FxVXwhjEAgkZx+YC9MOBpsaTCmpGsuz+J5Z+UVJqTpPBybQ/EBPmjcDR3969R5CYIdcUs85xQ04S7IqOU3yecQh5pQW2sWkqGnhCSaAaYbl0r2+qrK3UeCj5xUXjDafebZTrcVSONbcf8AEkmKolXnDroBHEXvaEXyb/tCMsPt9KKwLM+0k6nMnti024lxOtJrgnHGXHGVApopBpoENSMypMw2oHLUMoXfl6z42aIyWh3xtsy5aOhOhPRws1s1MjJSNrZHKMOTDxtOOGpio8IY0xsetVdq3xvoOfhHWGlqQ6MpNDcrmMbnbaWt6tNrAvhpjZCztiLkUNSE6jBRtm6Xx9mzf6zBDBEk3/jvV64tuuKdXylmpx7TLq2la0KpAC3UzSNTw74DOysntfOoW0/MQjZPYx+0ihFhKrSb/wAumVlSFzek6G/7hTjiitaryo6eFTLouTncXyUw3KyuTISgsNDX+rDaHgnFZT+Ihaf4r3cK7MLShM09lFLY3xcKbSrcsr+G2c/SeFDku8tlY0oNIDeyTW3p/FbuV6o2yUfS6NI0jpH5a3NLn6WsZ+QNcFSjUm8k8KiXl0W3VQNipVVqbfFZh3TTEIOaCk4koeSFn4Dwi5XYwhx3MqY8kdGuFOurU44q8qUak/6BLrDimnBmUg0MJZ2UTX/uGx2iEusOJdbVmUk1H5XXMKvVmQnWYcedVbcWak8KGJZFtWk6EjWYcfO+PnOs53FauiHH3lWnXDUnFqPCGJNTVLmm7I6T/wAcEt55YbaQKqUrMIVLSlWZLTynOnm4IFmWKW/xHMlMAzk4SeSyO8xxXbjrcUTFE7Hy3naBjiMt7pMOSk0xLtvIuUNop/IEWZR1IcPksu3+oxWTnfReT3iCXZVS2x9o1lDBtkq7QHwmz4KvNAbP0eb/AAlHP0flYy6TvMtk+lp4UL8RK6XVDP0RZCkS7QzrWb1Rva6SzVzYOnnx7QzHC0VCjr++q7sZbrqw22gVUpWiEOSWRJtG5tX2vTG2sGix4bRzphcw+sNtIFSoxYTVqSQchvXzngQptO0y2l9ebza4Ctr3U/8AiPX+oQ0xLy6SXE2g6vN6olHpybWtm3ZUjMmhuzYk3NsttrbcVVOXfDLk3KLabSlWXnGbCS/LJDn4reSqC5Ir3Y3yDcv+4sqCmnUHMbiDCZbZVVpOZMzpH7vnAWhQUk3gjT+U3JdHgtNFSumFuK8Jaio8GGpdpTzmpMCb2bfQVC8M1yf7jatjGAhIuDrg7BG2zLqnl61GDFxpGvpjKT6o8L14SDmMFJiXlyN7rac/aIAFwGNtLL5acQbQR5K+YwqXeaUh8Glgi+Fz88oImCiqiczSdUWUVRJNnIRr5zwKZvZRF2dEt/8Ab5QEpASkXADBLoS4GXG11tkVu090Aqb3W6PLe+XBWZpkFeh1Nyh54U6z9LleUkZSekQGnKvyRzt6U86YRMSzgcaVpH5RdePkiF2je42qsOsLFFtqKTwO1y7Snl6kCA/s3OJl0/gNmqjG5thpVMo1+IoZRguPuKdcPlLNeAuNIz16Yyk+qMk5Yh6dWMtw2E9GngGZt5lCn2L0OHRG5JVf0Js3kfaH5cCjZOfRvnhNNr8gcoxuBHiTkof5S/l/oFPydmVm89PIX8o3K3LuKcWcuW0LGv8AuASKHV+UGpYHPlqhrnBjdkmBummWjl/3BbdQppwZ0rFDi2WkKcVqQKwKsiWRynT3QF7Kze3ufgi6vmgsbFS6JBjlUyoLjq1OOHOpRqcRXRwKKCq1GiRDEsnM2mnAHYuVXvqxvyh5I5PA7tmE1lWDcD5aoe3IqlL3UjOpGmGmJVJU+o5NNHPDKH1h14JAWsDOf9BaoLWav5Rdc8mtE9ESpVlrJOQOiL2HR6oszUvtg/WisZJeY/aTH1i6OlX9RxpbnS7FUMML/eq1FFKbQdDTIvgolBuNrlZ1mCtaitZzqVnxl9HAWleD2xtyhvcuLXn0cAt83unJaRrVC3XVFbizaUo6TwDMqyKuOqsiGZVkUQ2KdPPgmn2E5byrq+QnkjAo6hHiZf1GPEy/qMeJl/UY8TL+ox4mX9RjxEv6jATOyymP1t5Q9UB6WeS82dKTiF+ZdSy0NKoKZSUW8OWs2Y4g37wxxBv2zHEG/bMb9seLP6HICGndqfP2Ttx82vCyyiWS8Ft26qVTTHEG/bMcQb9sxM22Es7VTwTWsPTaUBwt0ySeeOIN+2Y4g37ZiWlVSbaA6uzaCzdjltThffH2bV9Okxvex6bP6nI4g37ZjiDftmOIN+2Y4g37Zh55bKWShyxRJro+9nl+URZEUGU+cydXPDLq1WlFYqcYuGlrMkazClk2iq81i71Y6se0rwe3AhShRx/fD0aMephRQfozWQ0O/wA/AzGyKx4O9N9+KvoPAB+VXTlIPgqHPCJlm45lo0pVqwOzDxstNptKMKedNGx4trQgY1Rnj/p04u0+kVacOdQ1HnwSnUd5w7Ieh3xOej24djutGMrY2SXZcpvzqc4/SMeb6/uH3sxLpynlZdIK1m0s5yYbOpQxSSaAZzFr7NNyBgqLjFF3HXjHGtK8HVgl5bQtWV0aYCQKAXAY+5GlUfmbrtCNPBS+6TtaG0i2aeUf+YS60sONqFQpOY4i+g8ChgneZrII/Vo/3z4JaTSfHKtK6B/v+OAl5hBoptYVAUMxviU6jvOHZD0O+Jz0e3Dsd1oxX3zmbQVw484bS1qKiefHm+v7h97TXJao2PNhSdYxNytnrD3YtDemKpNcQdOMkc2B+eUP8aO/FmEMIbfk0GwEnTTOawEvlUm5/k8H1xttobXS1a0Uh+Z8itlsak6OBkmCKpLlT0C8xKSgPjFFZ83/ADEvJtHbJd9dktKzDnGIvoOGTSoBSS8gEHpjiMv7oRxGX92IXOyjKWHmBVQQKBScLLguKFgwDriS6o9uF6dfaS86F2EWxUJjxKPZgtPSzTiDoKYm5ZBqhpwpFdWFjq09kSnUd5w7Ieh3xOej24djutGLsh1KsM7uxgPWLNmpIpnjiCfbV844gn21fOOIJ9tXzjiCfbV84U3Js7ShRtEVJv8AvaZe5bilfzhYP6BhKvtDcgQVE1JvJxqpMUzKwpxQMASLybhEvLjOlOV06cSYfBo4RYb/AHHBLy32dbS/2jPG5W7nJnIu0J0/LgnHtDTR9Z/2YTNyq7TzSLO0Hyhzc8JDiClTCFKKVDNo78RfQcMl16O3DPqX4O0q7MKBrIhI1CJLqj24XuuPYMOyPXKwsdWnsiU6jvOHZD0O+Jz0e3Dsd1oxdkEjPtKsMxWW3RttPLs0p5o+rT77+o+rT77+oAflHWRykm1G2yj6Xk6aZx0j73IOcYZc82ArUaJF5MFzycyRqHA0XeNcVF4hGKnAhShVtjfD3Yu0zTKX289FCCqRfVLq5C8pMTTk1YL68lJQa5P++yHrKqss70jzZ/54Kfe50pwGcDSRMlFguDSMRfQcMu8oVS24lZA5jHFH/wCI4o//ABAlZdssS2ddrOrDJM0qm3aV0C/BJdUe3C91x7Bh2R65WFjq09kSnUd5w7Ieh3xOej24djutGKUqFUkUIh+VWMkGqDrToxkzEs4W3E/z0wmYSLDgyXEck/e001TIUrbEdBwo5lEYNytnJHhnu4O7NqhpakKQFC60MXzYNvUN8mDa9HRjzUzWi0poj9xzcHMq0l7uxl9B4FU/MJsvviiEnyUf3gkuqPbhLMo8G2ybVLAN8caHuk/KOND3SflDkw8bTrhtKPPhY6tPZEp1HecOyHod8Tno9uHY7rRjWHN7fR4t0aP6giYYJb0PIvScbc9d7mEEU5xeO/72q1QTjN7Z1/phTbiShaTQpOjAsalxd41dyfnFTeeBokWjqEVc3hH6s8VCba+UuC35edJ54KVChFxGIowxLJzuKpCG0CiUigx5SRSc++q7B38G5157BjL6Djq3I0FJSaKUVAAQmYnVCafF4SPAT88Ml1R7eBY6tPZEp1HecOyHod8Tno9uHY7rRwFVyMuo69qEfV8t7sR9Xy3uhDg/UcGx/wC/u+99uQdzzg+00K6YsTbBQNCxek+eJorNEpoowp1XmGoY9EJKjzCPA2sa1xV5wucybhFGm0o6MTdSBcbl/PE6TD86oXIFhPTp4CbUDVDZ2tPm4N4f5j2CJ2XWETTCHVAJUKEDphDAtsTCsyFjP58RfQcLbKPDcUEiuuHGXkFt1BopJwpmZZVD5STmUNRgPsG/Mts50HDJdUe3gWOrT2RKdR3nDsh6HfE56PbhYmwjbC0q1ZOmPq9v3hj6vb94Y+r2/eGEp3A3eaeMME6oI/6cn3v9R9XJ97/UfVyfe/1H1cj3v9R9XI97/UKVrNcEjTQon+PvgocQlaDnSoVELCG1StrPtJoPVH0WdSrmdTSOK7cNbRtRR5pbR/WmmICKXa4CXWEpHKaEb04Fc2nGUhQqlVxEKaObQdYwoiXYpRdLS+k4775zNIK/UIUtV6lGp4OebrmcB/iJ4cohXrESL2hLqcRfQcMl16O2NuZoieQMlXL5jC2nUFtxBopKtGFMxLqvzKQcyxqMJmJc8y2znQdWCS6o9uF56Z2y2lyyLCqaIzv+3Gd/24m5Zqu1tLKU2s+Fjq09kSnUd5w7Ieh3xOej247f7hCuiFdOO9sgob22NrRzqOf/AHz/AH5RxtLg1KFYvk0tK1tGzFZWdW3zOprBLaW5lP8AjV84pMSrrP7kYKi4xRR25OpcUXvKv1ZoqDUaxiVT41u8c/NhYSRvbW+K83ATmtdGx5zwk6zXwmwqnQf7i1Msb7m21Fyot7HzIcpmQ7cfXDO2psOWRaTqOFfQcMl16O3BuiXARPIHvBqMKbWkoWk0KTowpmJdXMpBzLGowmYlzzLQc6DqiS6o9uGY67uw7I9acLHVp7IlOo7zh2Q9Dvic9Htx2/3CFdEK6cZKyky8ppeUM/RrhuWl0WGkCgH5AoRURv0k0Tykiyf4isu89LnV4Qj6O8zMD2TG/SLwGsJtD+I3tamzqikw3X9SI3pwE6tOHbkDe3P4MJHPC5pQy3zd+0cBueaQVtVtUBpfHFle9VHFle9VHFle9VHFle9VHFle9VHFle9VHFle9VHFle9VHFle9VHFle9VHFle9VG6JRlTbtmzW2TdjEHMY4p8ao4p8aoQ4iVotBtA2znw7fMywW6bioEiscU+NUcU+NUcU+NUF2UaLSyKHLNDCHJtnbVIFkZREcU+NUcU+NUKalG9qQo2iK1vwuTD0tadcNpRtmOKfGqOKfGqEpTckCghDs2xtq0psg2iLo4n8ao4n8aoc3GztW2eFeTC5eYRbaXnTWOJ/GqOJ/GqOJ/GqOJ/GqOJ/GqOJ/GqAdyZv1qikcU+NUcU+NUcU+NUcU+NUcU+NUBTUi1aGlQtdv5H+kSrT3OpF8Etpclj/jVd/MWpSdQvmcFkxlyxmmxycqLEy2uUc1OCFIqFIVpENydN8K7MNsouQ2myP/Bll5pDo1LTWLTbJllf4FWf4zQ3P7aXFoSUgKT/AO03/8QALRAAAQIDBgcAAwEBAQEAAAAAAQARITFBIFFhgaHwEDBxkbHB0VBg8eFAcLD/2gAIAQEAAT8h/wDqBEAclgjxALRpAphXRagjHZv2J1EAwegcHe4AeE5pyL2HNFE3bBgKBQ6JY27D/wCCnQ6sLISzV3gPEII6JFRoRaM+92AzTIJQCDchwIgIIcFMoAcPqmLoWHsUwAm3aIAiAlR+/wAFJQ127NRCCD0Yx+UcEJIkmvJM0QF6gliNVgNADc6moF5UoBuJ2ihB7oxOHEAJyMEeu4CMfRPUh34dHBgf+Q8ysUQjoIRTR8CwRRPB7UhaYYj9grW4Z4AVKY1JEpO3VEZ0QSOTyxOO7VQRE6IQCIqk33UoDSVPFSsRlXAud+VUBW8jADzBtgHJFgAiGxHJa9/RDJAQOCJHjgzujqjBAIFNVkiR1Gc61TckbkMheCog0VmANCmgZVT6ggMqSHDTgDgwQMtdKQPFjZGYnn+vGJkPBUsboRcZSoCuDmxggPmebeO6jv17sBgFCj2jg9iWaHDKQ7sc+ZBkllBB3gfLICLcdl9QypMguVoOMKMieOkGHsBEKJRqD9AI1Okye4beIu8eiOAFfT2MUOC+DcWbaCb47ewl8x0P66UURf7FEUiTq5Lm9u3tYqTQlkYnm4wu9J4vwIFMDvfzYov2OS43DrBGhmhOB3j45tYv1/pFhElsA6yHJld55LdciP1qFs459lyPgOcHJN/NNcNgKAVJuCgc2vZweQwsT0ymoDWwJUiXZ98sBCSwESShYpePbYy6o9t4uHX/AIKSX0FCDyERvqOyF153Y/V2dZ/ryCMGLn1PNI/LEucEzYM0BQDcjsyfW6WYEe0WDnJpYvzVyn6OCYCPs/Ypelg78pwa/wBwzydAKuG42YIREtjIBNcBsnCJAxMN1E1yUAgDh+4TY/QJGoRIgna/ghs9ST3wiMwiCTGBCewOqev7TRzgzGG69ek/1ZwHAASJTeua1whPhA16yU+Box3k1KY0Rwp1T6oRlHpagF6zxI49iTYydmtHLUNMAUVoADJU3cLlel/x/YxV2bcqNagGPnnxyYyEgdKpADtYtQHsDzin0NzcIswCudUVsYkAxhZCDvlYa9lGhjASPRHOAuZ2ARBx4iCQFw5ieboMIBGRjxtBEkXgB88CihzHHsbFDEO5uAvB/UwkQJ3vFoZI0zkDEnllrChLqaK5swg+T0QRiNQQ2zRIT703QUROXEo9H6CpiQOBFTAkhAG6BA0F+nHTJqA1R3o88HvLNDLADAClqJkCFj7WTqTecYXp295bzmv7J7ccc/e8cgAkAIkp94GxEHx2Y3IB8WNgBcBwNevOkMDX+iHn4qYHwlUuSSgAN2j9DBRVDjLG6I0T4FRztLpFBLLCgbiKHD9Rq45AvNAhM8FO90f0DBwPJEj/AHhutynyMOmb/EWyfjsdvrqdlxw4QF0RibJiJ0FTTJINziSCyxIBrgqnCMH145DskJh95yRTGdGuvRTvdyQggyRDyF13WRm205MLoYqGp/4AykRAGJiKsQgcVALkhkryCDlzth+oT8jyKe+y6fOiJBAsLACJEbOjzhZkLBIEyyxscS0RkjC5HsijhJw8Iic1KKpov9DVVOCMWDcYkOQAWTv5MFIdJm81Pd+QZqMR3yNcOvJASTXQu+gmckKzBDOEA6nB0FROKzsVGm6ZxnCDcS3/AAEgw0MbFrn/AFCSiO/YkAg0kcBYsSiUZpjk53hJDNFxc7qNQUYgHcAI4GVG3hNhTf7RUKlwknkEwSSDNVTJRUEkOWdo3HIOQCCQSb3oT4exy5Dd0fK3oTKN9eRiSZ5DHgMC85CKbpuJqVSxJigEBDg0KmREx/kP6u4EGzIVt72t/e1v72t/e1v72gAcgu/1T5YmdnrN5V/i7ZG49bE6WJp4AVOAQuGkznKJWzPS2d6WzvS91FqEaPIDf8Mh4vHtCGRBtFt70tvekVH212I9/RQT7GwLgPa296W3vSCdcZA6Lcy40cXYHlGG0xT6BbO9LZ3pbO9LZ3pN1lDXQF9fyzMFswmCheF+wjenc4qZYYXISxGmPF5iin0calMWzbs2ylIUAAABAKM6sW47ebYDEAAiSUZ6X6Aiu6TckOM5vmfZhmbO7XIzNsnE8RcgROnI04ouDvUsAEdOYQA/03m0QRCAiCESwUip3gX3WWtejT+HkiNGnBNqUN5RLl/zkTZYRCkUBOqJPJeqWMY1U1gbYJyUCMwcZQvzRQwQgqE0+JG0bYhFpoOmvKWAQRCBdcMdCACCYUFuUBk6qzOXfkgSAAcmiKMLxES7GHVHzEmcGBsbtcjM8gmfoS97w4GlDo75I7nkG9h2RiorgQFhrXo0/h5Ao5bONWDoiEs1SLn87EWNfIYR1JQQLEG4hYPp0sT8YDSyb+jVCgeLBNiWnS5w7357l4Flu9cWJQAHF706CqC/Z9siLrS0Hd+iMUl7hR2OfJCxBD2EAiMcQsXQDXQm4cl5k7o2N2uRmeAeIhOCGwTu90W//SxtNJU4FRN+J/2XPQoISQOigca0XWMAAF2vim/iQ3ZsQdhFnEfMww47pcsNa9Gn8PIEZZ7hxJB06yIpEXWQQIECDsa04YzxJ/LEPFy+dSPAyKxh8HGBE9Um/JEVHOKm1C4PlRF07+JQ8bONhZSghuu2BUofQZOvOOqwDxYkDtE5IkkSS5NUYkHLXnxmhs4h4of5zcpyg7NgQDwhQ7RKHCYuqs0yYBwSaYdbDdrkZnhut3jKiA7sHEo+YWqemYAt6v2lG3X8d0uWGtejT+HkCiRl434hcrstQxX8ayzt9RiPBTPFkLJmD8vNMGPHKjrwBqHcUCL5wPJYdvnIQBEcqEcQ68G4t3F+ECwZtHfxZjkybMbxcU75peUmNUBciGwbEnMph0sYXmbtOUANol3kT74NAlYxfBY3yFjdrkZngfpOgEAK3v2v7v2nzNDxziQhIDiIkN7+8cN6v2lG3X8d0uWGtejT+HkCBMNEVBREHV/m3UWi++mJBcFQhci4vaDMfljEacWhjaRGXFocIrAXFU2RtRAeo6o4hJIPZiN3BKx2dD2OdtqfAQ1FEISXJiTyrlKOQ2t2uRmeQUmyjGZ3gyA4b1f4u71i1YYcbVp+yYIAcsBx3S5Ya16NP4eSIZnAhOTuN5XIIiyDLrTobRFMTmjwz/LCGBwIpqXXyjuTDWJXHhjP6hDO+k3ISIRyJJrZNgFMLQcptYzHYmFn4xyFFJcEVRHYGcUNiJ0gpaJfcKnsmCDiFALdWiR4Da6csQDVNpN2uRmbRYhO6nGqI78Bo18ZuvbjvV/k7pcsNa9Gn8PKEQAIIcGhRybZk6dFuL0tw+kAYGAAAOvA2a3d+XNAgmADJH2jJxG7Jo9+xGShAAw7YLRksEjPJuJE9RtEykyhqpvCPew30gi+lg0ZRV2Xi+PPIoiDSaE6vy3bsoi97tZAAPYKGVB34FcA9tY3a5GZ4NWxDMHFgjphiYg8WPLDqsht+MU6Q+jXjvV/k7pcsNa9Gn8PEaoGJmGZbg9LcHpbg9JokxsBVwY6k8C0yf0Cf1Sf0Kf0CQcZ5nAQi7r0B/mIPxQBMiiYs3iw0cnHZO56rXcOnYkw0eiawFSTysHAiMTA4WGmQ0TyL4m7LTDLOLlFFCPaDxIAARIkglPYkfmVucfbMKNu4GvJ5YJgY+v+F/EFSnEq3R2Pmxu1yMzw3W6ikF3gBuY0RAFBTEhTi02BJRuiZh1r7XhvV/idsZODMN2K/j/i/g/imP6Dsx47pcsNa9Gn8NvcL1ry1C2UeCSHYAfnGFtWGqdyYV3jBOZZQQe4ZM4arJ7MT9NjAd+BBEIJEQKYQQ9Tumchu/cgsY9RxYhfpKvBNRPhC5aQZluRCxYeQH0fmCKyW7AKG45bEa9c0SPc4XbCHhEiY0XgRHHdrkZnhut3gbQ5DIA1LjsERGGsSEweOws1Nhf7tSr7Vb1f46v42hbpcsNa1Gn8NvcL1ry1C0+jsqZhq0Q/F/DEm8n9AOACTBToS3/SMTpQgiNaKeTcok631O7T/wBw5OMYnR2QTC5M9k5r3YdiZkIKTA7kDNWKgKGfFzkavyIDSuMKUR1WzPa2Z7WzPa2Z7WzPa2Z7WzPa2Z7WzPa2Z7WzPafQBPDOwJwFocUAYrf+y2/smX8ySBcV4mQpDMKYxW39lt/Zbf2UIPrODEEsouNWADvQrb+y2/sp4tRcxq8ZFmSue62/st/7IfTEC4BUgRIOehW19ltfZCqAqjSmVAraMDsXmFtfZbX2W19ltfZbX2W19kPjSTj+yAYpGCJiSYzHcVt/Zbf2W39lt/ZUgCfBqQAAAQA/RioP1Ee6adzcovY5FzJkT3A6gs2nDWIoEvEYCK8Bgd2NCpS8/wBoO7ADAD/ww0JMCB5IwvbIGzBN87YeNSRcHp/9Tf8A/9oADAMBAAIAAwAAABDMzMzMzMzMzMzMzMzMzMzMzMzMzMzMzMzMzMzMzMzMzMzMzMzMzMzMzMzMzMzMzMzMzMzMzMzMzMzMzMzMzMzMzMzMzMzMzMzMzMzMzMzMzMzMzMzMzMzMzMzMzMzMzMzMzMzMzMzMzMzMzMzMzMzMzMzMzMzMzMzMzMzMzMzMzMzMzMzMzMzMzMzMzMzMzMzMzMzMzMzMzMzMzMzMzMzMzMzMzMzMzMzMzMzMzMzMzMzMzMzMzMzMzMzMzMzMzMzMzMzMzMzMzMzMzMzMzMzMzMzMzMzMzMzMzMzMzMzMzMzMzMzMzMzMzMzMzMzMzMzMzMzMzMzMzMzMzMzMzMzMzMzMzMzMzMzMzMzMzMzMzMzMzMzMzMzMzMzMzMzMzMzMzMzMzMzMzMzMzMzMzMzMzMzMzMzMzMzMzMzMzMzMzMzMzMzMzMzMzMzMzMzMzMzMzMzMzMzMzMzMzMzMzMzMzMzMzMzMzMzMzMzMzMzMzMzMzMzMzMzMzMzMzMzMzMzMzMzMzMzMzMzMzMzMzMzMzMzMzMzMzMzMzMzMzMzMzMzMzMzMzMzMzMzMzMzMzMzMzMzMzMzMzMzMzMzMzMzMzMzMzMzMzMzMzMzMzMzMzMzMzMzMzMzMzMzMzMzMzMzMzMzMzMzMzMzMzMzMzMzMzMzMzMzMzMzMzMzMzMzMzMzMzMzMzMzMzMzMzMzMzMzMzMzMzMzMzMzMzMzMzMzMzMzMzMzMzMzMzMzMzMzMzMzMzMzMzMzMzMzMzMzMzMzMzMzMzMzMzMzMzMzMzMzMzMzMzMzMzMzMzMzMzMzMzMzMzMzMzMzMzMzMzMzMzMzMzMzMzMzMzMzMzMzMzMzMzMzMzMzMzMzMzMzMzMzMzMzMzMzMzMzMzMzMzMzMzMzMzMzMzMzMzMzMzMzMzMzMzMzMzMzMzMzMzMzMzMzMzMzMzMzMzMzMzMzMzMzMzMzMzMzMzMzMzMzMzMzMzMzMzMzMzMzMzMzMzMzMzMzMzMzMzMzMzMzMzMzMzMzMzMzMzMzMzMzMzMzMzMzMzMzMzMzMzMzMzMzMzMzMzMzMzMzMzMzMzMzMzMzMzMzMzMzMzMzMzMzMzMzMzMzMzMzMzMzMzMzM3ZokzMzMzMzMzMzMzMzMzMzMzMzMzMzMzMzMzMzMzMzMzMzIXd1TjMzMzMzMzMzMzMzMzMzMzMzMzMzMzMzMzMzMzMzMzMzM3d3diMzMzMzMXMbMzMzMzMzMzMzMzMzMzMzMzMzMzMzMzMpN3d28IXzMzIVED6zMzMzMzMzMzMzMzMzMzMzMzMzMzMzMzMPd3d0vkuzMzBdu7sTMzMzMzMzMzMzMzMzMzMzMzMzMzMzMzI/d3d/YyFzMzB7u7u0MzMzMzMzMzMzMzMzMzMzMzMzMzMzMzL3d3ddfXdzMzc7u7u63zMzMzMzMzMzMzMzMzMzMzMzMzMzMzV3d3cjd/dzMwO7ukcF63MzMzMzMzMzMzMzMzMzMzMzMzMzMx93d2UTdzdzL5O7vfcDJBszMzMzMzMzMzMzMzMzMzMzMzMzMwN3d38my8dzDzu7soszMmMzMzMzMzMzMzMzMzMzMzMzMzMzM/wDd3VHWIibMzH7uzczMzIBczMzMzMzMzMzMzMzMzMzMzMzMzIHt8o2tgiDMyO7ubczMzM7MzMzMzMzMzMzMzMzMzMzMzMzMzH0rZ93N8kvMwe7pXezNbGANrLysy6A8zMzMzMzMzMzMzMzMzMf21d3Ng5fM3O7rzH7uDd7h7o68wO6czMzMzMzMzMzMzMzMzD/7RN3t0SXM7u7r/H7u6u7q7o68nu6czMzMzMzMzMzMzMzMzOX+DZ3Ny4zM7u7mDHtNre5a/o68jpIszMzMzMzMzMzMzMzMzAbwPZTtLRyKbu7j/H/C0ufKTo68/pZMzMzMzMzMzMzMzMzMzLCwJNfeLHz4Xu7s/Hi16OfKTo685u5szMzMzMzMzMzMzMzMzAbCJd0BJPzLXu7kzH7u+Oq6To68we78zMzMzMzMzMzMzMzMzGKCLtByL+zJ7u7lzH7t6O7qTo68zOzEzMzMzMzMzMzMzMzMzPSCKy37L8zG7u7o3Hr9WO7qTo6CutbkzMzMzMzMzMzMzMzMzMTpJ1//AC/Mw+7u65x/fsjmik6O7jzurMzMzMzMzMzMzMzMzMzMyjxc/m3Mxe7u69x3iXEkolKiIiAivMzMzMzMzMzMzMzMzMzMzMEcrxfMwjMzNcyQwDQ2g86+7ioyzMzMzMzMzMzMzMzMzMzMzMzIHvzMzMzMzMzMzMzMzMzMzMzMzMzMzMzMzMzMzMzMzMzMzMzMxnzMzMzMzMzMzMzMzMzMzMzMzMzMzMzMzMzMzMzMzMzMzMzMzMzMzMzMzMzMzMzMzMzMzMzMzMzMzMzMzMzMzMzMzMzMzMzMzMzMzMzMzMzMzMzMzMzMzMzMzMzMzMzMzMzMzMzMzMzMzMzMzMzMzMzMzMzMzMzMzMzMzMzMzMzMzMzMzMzMzMzMzMzMzMzMzMzMzMzMzMzMzMzMzMzMzMzMzMzMzMzMzMzMzMzMzMzMzMzMzMzMzMzMzMzMzMzMzMzMzMzMzMzMzMzMzMzMzMzMzMzMzMzMzMzMzMzMzMzMzMzMzMzMzMzMzMzMzMzMzMzMzMzMzMzMzMzMzMzMzMzMzMzMzMzMzMzMzMzMzMzMzMzMzMzMzMzMzMzMzMzMzMzMzMzMzMzMzMzMzMzMzMzMzMzMzMzMzMzMzMzMzMzMzMzMzMzMzMzMzMzMzMzMzMzMzMzMzMzMzMzMzMzMzMzMzMzMzMzMzMzMzMzMzMzMzMzMzMzMzMzMzMzMzMzMzMzMzMzMzMzMzMzMzMzMzMzMzMzMzMzMzMzMzMzMzMzMzMzMzMzMzMzMzMzMzMzMzMzMzMzMzMzMzMzMzMzMzMzMzMzMzMzMzMzMzMzMzMzMzMzMzMzMzMzMzMzMzMzMzMzMzMzMzMzMzMzMzMzMzMzMzMzMzMzMzMzMzMzMzMzMzMzMzMzMzMzMzMzMzMzMzMzMzMzMzMzMzMzMzMzMzMzMzMzMzMzMzMzMzMzMzMzMzMzMzMzMzMzMzMzMzMzMzMzMzMzMzMzMzMzMzMzMzMzMzMzMzMzMzMzMzMzMzMzMzMzMzMzMzMzMzMzMzMzMzMzMzMzMzMzMzMzMzMzMzMzMzMzMzMzMzMzMzMzMzMzMzMzMzMzMzMzMzMzMzMzMzMzMzMzMzMzMzMzMzMzMzMzMzMzMzMzMzMzMzMzMzMzMzMzMzMzMzMzMzMzMzMzMzMzMzMzMzMzMzMzMzMzMzMzMzMzMzMzMzMzMzMzMzMzMzMzMzMzMzMzMzMzMzMzMzMzMzMzMzMzMzMzMzMzMzMzMzMzMzMzMzMzMzMzMzMzMzMzMzMzMzMzMzMzMzMzMzMzMzMzMzMzMzMzMzMzMzMzMzMzMzMzMzMzMzMzMzMzMzMzMzP/EACwRAQABAgMIAwACAwEBAAAAAAERADEQIVFBYXGBkaGxwSDR8FDxMEDhYKD/2gAIAQMBAT8Q/wDqMCcihkx3PQu9KfIx3TOsfFN3B32HBc45m+sq5DJsk2nu2X/g5c70DVdga+6DM10y4Htz4YojkckbI3GtutOfDm6BUvyizxPZWXno7Hg/n/wE2xXdgbV3HexnQkZXEX1obOMvxOdbmHsE54PzJr+vvqBmdx6d53M/8TV7KEDEQYm2SVHtKZREwq3DFShP5CV4wA2rRwwxOs6G5Y1zdvyh5yiGwJd4DnSXGk6YX5nMdEs+nc04KEyeXyyPRVWxkwcUQHOxSIw0MYlgJXgFCIx1Z9Ce7TBlPwoQlDXL0yeg02JEuOTWQqYXyLDqbIbbIf5DZU4Ds2uKw+3zky3Ij4Y5VGmxnmZPqpMAMsp0B8z8lpM0bZF13KOFANnZCBG7umYLuRrGdgXbvo3HOXP4IDdTkOe3gyU/oRDsH8ItxW/jnSZM3cv1YHF0o2MAQGgZB8rDScUGRzYOdbGNxXe+HKsh3c8rPrCTJqYa+ZPlLdmBogzO4Xf6o2877TaL6Nhz+R0gQjmJSM1Hit2Pg8nOF/jRjNry5DnnzHzHP4vcg8nkYI7CR1q4Ek6YcBnz8QTkUJZDF3LntvZbP8ApgQjZG5UdZTNq1enabx/jL9odTm8iXlQWQABuADsfKPkaruPbkG9KYD0FmQbjsOOVbGeZk+sIDoHaffxyPzh43h5PiTwy2q6BtfzlTI97krnY5dazdX620rlQsGRMuaMnUigSltnndzsdz1qYgcfSbxzGs8+M1sSz6dET+LBQy54wPL8y3YjJnojdtUAyW01Z9xOWMibueVn1hDe1dBj1iYue5JiODqipAwg3y5jciJ/yrigzarNdbbg+DfZFjatgb3sS7KUysgLAE7hdrdzdINCZmWtx1Uc3BiVOQiShIG2u3PDZwAWbx69xsyyrIenLrlLLQW3w0jBCfxRN7k/lu+QwbQGaXa0ezNZBUkOMM1/Zc8KZrDLbi1BDDUv/ANqXSeelKbCJ1pJ3DsH/AJSzm4sEEPEbeKId0VG+esQi5S4h8LUyXmbzt5ky3DWpkgcpqIkd6sdEwWDsPbd+K5jUNtO1vNtHc1G5hjc18mfA6/xKGXQdUKOGg4H/AC+OlDH+iF4b8K253ff0AtvjSCnIaHOcJEQ1DBDXb/2jN5dSc/J8FikHJoJHMagpEe4PTI5fBmPWobumXGl0jhi+RB/gjErZbQk4kJ1I1aQFD+IgLaXQPuKC3jxS580PJpehCRMxGyYO0AurAc2i1tu8TWNWRvyq7GSZq6E28tuwKUJufDgpMdV2nQ8nwihPToIc4PjmMKtJIryU9xRjMvIUAc0k4f4BWP8AEzzodX0UFCwM6rs41vt0ROQwnJpiG8CfbTess5GqkABta76Fu40Gw23c8XDb3hwcMYSZa7wPu1ZRsbmyvJ8I25qHc6rt8LdCrgCvilSzS4qvvtTlcwOgd4XitOFgMm2ZmR0r+2Pqv7Y+qlVQ2Qh3SRD280mZUI3EwmRIQomXQbY2tjjlX9U+6mZ9EiOzTGNcJYajp3HJpLpRSE2TX9c+6FMVlmdmcbpr+ufdKaOcSNsbMRJZ3VsNX0XW1QEs7YEea/qn3S1GIhAujX/clHQ6H21bhNOTmdzaUpGT+jli4Xe8OIyTWT307PvpUHMiRwGHbEE5FDC5lPFn3L0+EkHOJ5iew49z4/AbMknveeii+lAOKgd2rciOLtebLzxPRsbu2OmfEr93Rh+3ph7t54mF4Js5ZuK4/k6v9yDay9V+vgzjWZ3qdfTi4TexiFZm8P8AtqJS3REnqkpV3GaCSC4ZngOfxhfOWNYIO9EYwiiaJkmHc+PwA2baccigpWF0F8x8LCQOonugobMB+3ph7t54OXtB1Q91YZAHAAPGP5Or/c3M+CfeJtVmGaehvPs8YOOD9YxpuPNZCc+9E9hxOwyT3WCq53aZaUh3YOKz7fENN8y9FFbEI2SMTz27yduHc+NErISg/Re6SDLSbpBI7clORRr2ROonujAuCeCEgFgAPKq0/sQJZhyMcS/DDsvFw/b0w9288M+Cz5sgIUSHaLdreaTRToxAzMywP+5u4A7B8BtgeaEoLzDR/W3Uo4fsw21ZXC91BDcXAQd8G6HcpJ7DQ6ruYMd4pkucsMnh+I2S13AZThI8JoxqQh5+TLDufHEgNsr2v+qcN3Phpy8B3/xTtGGzw8XD9vTD3bzwFWxhwms8s8QBeGmlPw7AUHnL4pJSoR/dHaf7lk/Msq/J++VAqSMeSpHCDXelRdYTmldowcQqRLjUUSJCwkWdGDg7ItWRsMrikvdfHhCHSh9SQBwJg5Th3PjRA7hOonuv2/Siu4UNq6bgAKJ5u+73GKXf/FO0YbPDxcP29MPdvPBEC5VpHrAT0ZOWJb5hvhu5OXB/3CM2D2J7jV1NsW+OsiJwnM9lBGWEUtV9VnJlMOGR5Y/2NgntNBBB8WQ/sYu58fgEhzAcL9gHPFJPy8rBnwGNlQWhDmZTO1duFnh4uH7emHu3njkXIqnbObxTnqlL4mprecB4/wBwXWZlxZ9mSi/wXYJQAQY2WulS9VdYVXiq+8Ye27g9p8nPH+MXc+OKOZeyW+QZauVL0WGkau9u8jZ8krPDxcP29MPdvPG1GDg/V6yKhGSxLKJ/3a2cOGSajc9m8qVEv3U2/GRzaCMjBvhMy5DpeJ+Ew/1B4H5LmiZC4yLWTU6Q51kCZJEslp3WzHDufGlpAK8AX1T5SAjqIJ2aE2TR57eIwm8ox8xOOjwSE4/JKzw8XD9vTCvW2AO2ZuV/TPul4awiITe60KTKreOmj4tQRGbe60T35X+7ZobjZ/7vKgi7nVs50ceR2mBl8kDN8vAPfwc8dr5D4q+VQ68ukveHc+OBBJvT3u3VJwTCcFp73noxSPvLic0QOu+gqyFBGcDXTCzw8XD9vT4f2762MQccyHig8T/vzZBpceVQ83qZnS53omBNozQxQzg2q9RvYuqnwHw3/HYPfyzey7kRIm0Y/NPmcA2QhmOklnM33w7nxwYJyXRvLJ6XN5RhpHM4NE/Io89vEYTeUTPIDyu4JCccP07qdm8cLfDxcP29Ph/bvrYxlWPKLNsckzvXT+Bm7W72basfqbT6qKsbvZcoZw3gJ5KiVyIOAPR+EDsqxJmxOabq3f8AW6t3/W6t3/W6t3/W6t3/AFuqy4hMBkTFuOJpsc5DMTFx1aa5REdBE034RvDgyWRbNJr8vopY2JYLRFoi2U1+X0VL+craXLThUJMQ5DlM7R21+30VtdzOB3r1+H0UXnhGYLwjK2wr8Por8Por8PopJXuMgiYmwaFfl9Ffl9FLUivAD1Aav/Bk1BtGKi4nUyeZZ7VKCd1k5Ubs5ngS+qvmpXiq+/8AwwZ4TaVIqKAtySL7cpv1/wDqo//EACwRAAECAwYGAgMBAQAAAAAAAAEAERAhMSBBYXGhsVGBkcHR8FDhMEDxYKD/2gAIAQIBAT8Q/wCo06xLnBEXlq+kZu8BRzKD/Bk5mCMUfVYgsXCKN4RPMSPYq/EapwP+APSyVxW4cLL74geoYoA0IGEsULGH4mzpq0skICoE+YgvT5A4MwCfVygtP9eW0TCARAoRQIIcWgYlX3SAFxgibOyLH6IixcxQIBwj1SICOfyE2ZCufDlbxqcudNApTwTfggZPmNzH9RCkAZuJ9qn4crhdYOuUuFyaK4fpuNvj3q/QZokkubRhF5QAlKDISGylPGBCPXa5VWeCJuSOAtARGIQAob/v46RKbr7b05MzXoIAsXCJgIgM+dqa/cx8fgIQIxCDdmuOPxgCFwRCJVNoDrlXEQc5n0xebwgLBzsz/wDB90stPcoY8zRARgHQI7lDmlKeyHnviDizCH+Zgfi86Pu2MsnhgOPNHRfTK6Mp4wamESVgL8h5ohYTJn8oxG+mV1gU/ijMuGWt5RbJy+4gxHeNYCCNuDj9o7FSR88kC4cfFSq4HQwtPMjWwRigN3HNECGKGZyqikCxcJpMvawKNQMsiPKJu4h76y5WZwHE8e3qbLOmXZnjZYEMlRxxzU650ZfW3xLmVwQk4vsNlqTsNT2CkwsNB3NggGRQzORcJTn3mbAJhcV6TTU0oMhYbDxB7e4K6xJHg8/wA6kTTE3ZH4nP0uqa2oLjNEEEg1gASWFUJzYLryiEADDQQFRZDDGFh1CpkOf09mlaE8v46DGCHP8AAz/Es8Sdk6cXmizgQeKKN7mgOaA6lPeQCg9vjSgYP5WeifFhgLp8z9WDCGpkhhGgDK5zPUoy0JvXksAsApRIwQwZwYUQ5XeVgOqcXGadBLZFMIemqwHVHdibEtksB1QEmYtpH2QUXZB1WA6oONtdP3CwkIGIiAz3ohujRzsSQUCyyHnvYxOOl1jKc+ka+btYI5JiO/lAMVAqzRMSBuyeFqBvCr6Vhre0THApIO+sdAdv3JuQVyIMAU2FRHXRmixxIVI5bt1lZuIB7sgQDikK+btYzMGsu6f2DdTYMMLiFMRxG8KvpWGt7QeOBEkiTHQHb9w3JirkAeJ0yhsgpBZcn0jSAHLHnf5TY15fp/bOZyBsiygTCFfN2UwjxG4WE6BSlYA/YomArUDeDKpmZQJGLtpYFX0rDW9oaE7GDtEl+PFeknypDh5/uE5JVAgDB4gBiiuFSgVcCd4cN1hgUCsaiFI9wDvZIaxJPROL8T2EK+bstUNxApeB3QqtYN4abytT2sCr6Vhre0BceB2MBzG2P0jWNDN0BncH9wqgQBg1jMEMqMKSdOI7SgcDcFDKZHlwWNZPulkW5u5TqypeFfN2RsHgsbonJjCgWKZG61A3hpvK1PawKvpWGt7QIeRRCFxIiUUgzHf9zOCAD2hAANhy23nHD0E6WgbK8xr5u1hjuzeFqBvARkhgEGFcDAWBV9Kw1vaJzLPz5i7Md5fuSjfCBg8RAYzRMuRIzvICAYMI59YdTa0XmNfN2iCgmVeGTUrUDe2KvpWGt7WCYuQ6BCWAd6clrhuP3AlNPoJoBg0bkISQkkuYE8DLgX6WG+MOwtHKSR1jZr5uyAJAC9EIlUKsAFRQK1A3tir6VgZi5y6wXVBTLGbuj/R9L0H6RAAsZ9UDgxG/7odhU5nCIILGDZEEFjEpkQw07n6sTMw7C1OTgfK5gG0K+bstUNwmahu+4VM4d/K1A3g6o5CeQcltLAq+lbGx7o1i0+E+n74GRTwnRFgZBqRSnA2DBniTtYcBwHc2hEDhzuhK7kzQr5uy1Q3CFel2aIILFVQArlBbeGi8rW9rAq+lbGx7o1iY450ZffwIpgdX5KSqNMKQDnpt4P1nYnNHMr2Er2Er2Er2Er2EpprCLI12QGXGswIJ05r0kq7eJnXpJQiFgEHBcBeklMoceF6SUw7+l6SV6SV6SU6tZ16SV6SU1HwkCwOp4TI3MJwH3wQAAXf4YgEMUWUgj/qo/8QALRABAAEDAwMEAgICAgMAAAAAAREAITFBUWEgcYEQMJGhsfBgwVDRQPFwsOH/2gAIAQEAAT8Q/wDaBMRASqwFAv6Uf37SaFsIJ5R9U4itH8TQ8momR8QoDvl5qhXwVGWSBH8wfSitAkrMOGHzRlckqjd4n/wKQiki9l+ZApe+QRrWSw7K0ppm7IdLRHUdsT5O4L1DzYgsJea2cxdpEhMiWR/3WnQCfTKoU2AfKrh8JSaCRBL5f7UeEJEkTh/n5Mwk0VvGw21HZpS4OVPnXiHmkPjJyrdfZdUDBiCZwlI2EjBZk4MjmagjA5WA8tTAJ3p9qkNCmP3VMQD9hv6lRfzJVWJu9wh2oLSQLGELJ/xFOZ37y7pO41naAWi4LSz8cdUaUIFluSZJ5/kALZvcPTITYlphbqwdkli8TyMUkjlQhyq5fbXaGgmV4hD5oLtiQAyHZiDYF2psMZAGjQGAHboNoK8Fby4dXHg3qbTwwqRPccBw0BdVcFJmoAXMLehu3kSzaKAeZOQbiOp6TFIigl+RkUoQoTHyBeGn3258GFVPikBM7lTynd0R4ko4jQQwbq79U5CngLsp+yijJKTOFJUzQ6Xu5CRRJK0oVqHGnEXkWLfNv49ZEKGyw3/2dN6FTpEPhCHOXVfdixWLvzChLYWlKJW0OzaCANisxikjyFDR0EhFgvKQ+D5n3CfHHl2wMBUvYk0pUNCNFhASQ5nGtQi9E1E0NQEmwZKTysuwKXvkrxSXs6tOBmhm9yK8i9Y601xPKKUiV5WRp9gtM5yTTMXCO4Wb085MMVCRXy9x8fx2DzKyBNdHZoy7LKNo1MqufdT9Inlu33EuA1WjrmHdGbdQg7S6voMNYxJcP0v6noTYCO4fkH3U+K3QPkaolLdy2iUONuMdkjg+6iZpHjww2cMjQSTCG1r29f8AtoEQAzzdIXkIdF/jQJJ6jL1G/Q99pQz9IkypbquvuwABH3T0S6tBiHt4REHIuDSTrQAQEBoeplSMPHNADds7NHoNeeGx/JPthmMoQAZVqdUjQbqHAb7NNilkrENVXf8AgKyeWfINOMNP49io5LPh7s1BOMsHc13Mmv8AFy2ISEP1gy8DWaCAqfgMBoB7sTEpQlX0BxlwUjJc4V8UbwaCtLmTbEuBsCANjpyWKSM6h0NSitLQWzuJ7ROUCYGq/wBatipR8YsNYZNNfwPZAuYj25yXPHS3zTAm5me8KERy8v8Agfoq7vJunyjXBjGKruyhLAWRgXmaMsm28mZkxE43qKoQpFl0NCt0IaO4YnYpyCiESEaDmAzybTZ4QNGo7bRksXXgPgNkv/FoXAWLMPit4PuKAqwGtbj/ADDqrP4KLWjDA5Ve9gxNikr1yfTGdcDYCoGUDdT0jFYdNcMf/T1X0uYQCDDsV3Xqj3vAclVp0zJKttXIwL5XZoJFwBT9E1LwbPCIJLg5YaAZVYALqgU0LBtkLEGXQwGC8r7EWQQmKMmbiLGqUIyCicj7eGhL2VMeSKkWbwss0ZgemOiMCUTu6CIAkcSTBDsmgoDGI0E4Fwn1gJmPJG1lgjip/ZQjgifgRaCJDDmZLMAYd6UdEg7ACYcLm66DY+PdJAWRNT+JkYLpLIA7M8vFSSvrVKv37bN514d8Q5auIYPGCarQPKomSIkFiOwRj6UqGJnAbYBwFSpeW+2p8nyFR5s7+yrdyqmo42USoBJHdT6EVIQ8c1kBbOzRpkxhjBYfgUGhYfAAgA26hCcwsC0F7ZVwW45A6icXWABqkhJGSJmliPj9gnouByuA3U6GToTEe8wYDGVXrMhRABKtHdrXoZNcNsvlQGLRJxACwBoel1JMgPEIlIi4bqbeglDDMhadxeaAABAWA9mwRzmzgydzhRx5lP7Zlg5jV0Uu2ThI3Rw6r8CzUin1s6jrhqrn8RcAhU7PkUpSTC6r1ouyeQyhPZIfPsZpLMxM7ywOVpKbIzygl+L3KAUyR9JqAu6VI1SVfDODgj0UvZP1Skd2aHoHLxwVGAjaR+afAm6V9NaCFeE0tAyro8w4Ynn7CRWDxabrMAul0rkN6zrGECs90w1+D2EpGGagG6y4cLuFB7k4adxaBJoGIR99JqdamonYsm13GZo7rVLpjSIJQMF5YkpDZqwml5FmMSfxBY4UA6LF7svCoj/2l/qgtWSClxgBa9hGpUksQEdn89GFO5oG3Y+Lg04WCRxOpIuzFRzaMwWw8TugoW8IqniQCTllTDRlNHd6OFPwVgeg9TZGuyoD8tHQQo257yl59iNQ8i4pA6CzsQcPYiKgTxYRTmc3FGJq/bJkEYLAWDUDhBK0UQMy0IS0BNRIR2cA9Esv+sf8BCMtBikUZQoMcH8QUCrAZWlKcng/KRPmjYwGCRI4Nt6VjcZB+SgYZYeyYZPDTI1TACpOkmrPlo5HiivgVCkb3t8OfVE72+yXjOWCmpZpAT6/cb02tFC1yqu9XGT6BnosaNc1f6qH1xS607W+hRbrdObQwGFNieAjKVLmAIxKPd9i9AV4ll4BXA0QyNCMjvAuWgTGRCRNkqVmiIhGeG48kNHoB4hRxILUSjm6WTJkyaAebwpO9Xtyju8SCdpcVYf4GA7GeADx0WTeQ8tAXbQFdqYREBcoJB3h4plYg9QsWDIhN14+I36qH6AA3ZS9hHg9ZmFi7sQDbLz6jBkV7BtrKYER+VHv5IZope13qMGEkbYjNwYOOueUoc2pEfclG1bIVnfVOlYsWLI3qgJuyhDh4/y2ayaON8Evis8ZPgfSbGtSQvrdlHgvihAcvrBtS2Q+KvE0BdS3gy05JcVM2e1W6ydaO7A+T0TFZ9CQINjCuOKJAEgAsFNnaogIhvi9YIDKEAGVaQqYzZOPdE9g09lQiTYWmA+ym6T9Nur73XK5QMZLvTZyZErV1RAg5BeR1EeCrP8AhJQMBqrAGqlTEKMzLAYXZyLwAdL+FEIRMI6UFQ4lI8q0FzJDNyXoC/RbdCH+j2aMdMC1CNASAyDIXBAvMIyVVlXX/OVorIJs/F6DVKnE6iVf64q8MX3sKyu9+h6ymIAJVpV5Bumtc5fFYVgZgkJUwTEY9zZ6oxsvvpGK1TL63fxQAAACAMFLCYgN0fB8xR+ngQAQB2OtwS/FALWsXR4dnsq2RACVdqY5wOA21dvWNDijFWNt4QsnR+m3V972BhCnNlzHv9PD0mzzRuIk4Te49h2za3Ag8JI8NIXKncST6egL9Ft0If6PZox0FEJCQS4eYjzSODGlaT5X/O1oIWONAw9K0GkfCVrv92OhhutkfP8Aa+PRw+t3W+fgf6oOBdsnCadEb2T66Ygd60YiTvHpeuGAeBftnpma3cIyATakEBbNK2TLieLJ4UXKHbF8JRlO1OzbzqgjRbrleyq429TfuaYmm7JgvkaTkhokdxpErFmLmEPX9Nur73pJOKU5qNRLRSxWd9A0Af4+LbFQWAmBGbR6M7AfIin4rC3D2SaRlWEDy9Y9k7KIXZTklgtEtAABDAf66Qwj5dEJXIiUpD9JSSXMR6FJVbr0EF+i26EP9Hs0Y6HFQ5D1EpUcMG5Jhnbpy5cuXARoclxmALbf5buoq3+4osV9ar7TDXkB/XqIWXZ8rjKk5HRlRlXqCs1jTglEEO9bdj698t+vUJoIqAMh9qiwWAimji5JGA+WgKHgIyD5Px0CThyboqF9HhdOURKmVd6dnIMWMx3g7hTKWlgTig0E8D29qEtEowa/RVxI8Ak3Sk7WQLiXSl6g8ES4g/HR+m3V97ppssS4dVA8qFPoZEhTlBSZsXuAdci1+33+h08gv0W3Qh/o9mjHQBasA4a+j1SatH8qk9uK/wCpV/6JVqRw8nUiLsNWggIJkmRC9z/LmGjRciMPpE2qXmUb8I9HsrwgZayxvtDHly9DnoGESyXEqYTgBfub0EEEiSNeDL8ehu9f0+i9LKta9r5Ilj5o9l0rVWKMjQTMCkiN2nbig784LC7tIfgdWwGBJyRBsplzHKITD9kyHtFcIbLZZHh6L/RpJA2gxLe0THR+m3V970jMRBKEJtKFMrEPf0BDTtEa6UwVDEqoNoj1UIEdguLtaPdPYkWv2+/0OnkF+i26EP8AR7NGOgpQmWJCPcWhJkJLMU/FnZDTqLehl52I+o1BaAZQksblc2YyP+WaFHvd0R3PoDNXUn6Nn+6zU9NAjbT7DLz05dQRnW4t2c04DaZZbxQR0cbZ8+kJkwS5IPZ6yY0jeu4PsD4pnzlGVcvtGYZaO0H8vV+m3V972DithjkkmRBRpuE6ZDiavxQCyzgW9LEdYF2ayslYAOweh08gv0W3Qh/o9mjHSnMCT2yG0JlyI0gBGT0xiXdh46nbFJNoXuIP8sSqLDQa7NCAjoDRaStgsVhBwnpfnI+B/qlgEH7ZcH5psKVKVN1fZO1iBSeCkzOutycHHmluNkT8FHdHB6LHZxTOF8gDCdHhf9tFazob8+IL4o8h3oBAHwdaNgnTuA8Kvw9szaj1P6bdX3upYGXlSS50TgcNMQ86DxASThAHK/tyDp5BfotuhD/R7NGOoyxoQkSkrxMlOW59GwTNYKkYCABQeizESh7VmP8ALXKXTkYNd4NzktTUfBnknZ7MO5RFVx0BFuVgqT/O1j/7HnqYSWDmhTXhzfitmdmo4F/FRZfIfdloLihu3dXpVb39clSEYw8mHx0WbyfVqVRvsNzlHaB1nFqixIZSAsd5/PtuxiN5qjhvI9wPAbjmlGewRiWXFgXg6P026vvegkMrkBAuhKXqALJQf5NRLIiWfW3ALCy7LUd8jCQlWE1DMG56jfQHIh7Ug6eQX6LboQ1kUBYTZAxnboe/fuXWjFKFbD3MN4JqVQvLNDFWC0/rTrG/pV1fDhDMSrH36J4UQMIr8H+YBk0DHZBGj4sONroUBsCjx8FFNxKPMFAS5LbBrBPpVzTRM58Dobo0Bt3GyUOB2hk5f9WjD/m091ekRhIeki6OqKpy0z8L/wBDz6okZ0C6rQnBMZdzPJJ4OtuQk9iyP4qSi96pV+V9uUBn/AKSeaq4QD/p60OQHfFx+hUY9f026vvetOAG14HuP+XKzZsiYIK6FHrZHhBuLhts5GEqCowIYVx22wF9w6JCEaQerAqWV66bL0LBTcSgl9Dp5BfotvYQ/wBNsr9vs1+23esew3QQFHwv+n+cbORDCXYNAtAs4l1hS8lBNVns7nZ8NZM5hqdpTwTUKU18UhDUVe7ktDslA2zshODf5qR7WyN4P9xV3ngBPJ0SE0GMv/aZOa1bIloclBKDLasjvMlQKeFG0+xJJbk5hDyfcsLHERUSOwp9mIaQYEWhggxURZIlIyXScZO6m7rGKh3hRhm56/pt1H5qj1JwSr2Dlm26vZtDRDcC1UAbiNRUVEcSFG4uH4cq5W2DRLCUfxgLnpIio6GP7fioqPXkFFRX6rb0Q4qKioqKiv02yv2+zR/W1aioqKioonAK0tQe6YnDV0Yowldaq1Eq6r/ABbPAxE2RqMNkghOuo71ZCTczpgQ808IRZ54AJNJlnR0O9oHdpiiLKy4XaoOnD8gu3xRtaLvH3V/ilKER5pKEyVmyoFsw7OTzXE0+6woSCERIcMng9geNz7QIpR1W9yvXr169evXr1675AJyQUVGfg6iikA3Ehrk1ebVdrL9wSQxYQz6oNicEsIIQWlvAGlc2rzavNqvezelzCihuKSU09Yc9kIIb71zavNq3ip6zEpa4D1aG9drywEPFc2qoZ1byclmAAfAVvwmmEIIbrd39QQQGKnvvqoiXG9R7MMBAuCXDD1ggggggrmEbAjJUjZFRuNPxUVvLXm1ebV5tXm1TrrjitxUKMgBABAH8Gh+WEE7Rh4ag565wf2QJUOgzNvYcfirCvlChwkfJTHNZe3hQTyVFmaIcwJqNT6BwOWA8QzNBPA4iwJ7sT5/8GAYmAaeDSRt/d81UEA6FTaPAqAgZ4/8Aab//2Q==;" vertex="1" parent="1">
          <mxGeometry x="460" y="600" width="74" height="37" as="geometry" />
        </mxCell>
        <mxCell id="JX4TtDDn6b8yOE6emrvu-19" value="" style="shape=image;verticalLabelPosition=bottom;labelBackgroundColor=#ffffff;verticalAlign=top;aspect=fixed;imageAspect=0;image=data:image/png,iVBORw0KGgoAAAANSUhEUgAAAgAAAAIACAYAAAD0eNT6AAAACXBIWXMAAAu4AAALuAE+shgXAAABNmlDQ1BQaG90b3Nob3AgSUNDIHByb2ZpbGUAAHjarY6xSsNQFEDPi6LiUCsEcXB4kygotupgxqQtRRCs1SHJ1qShSmkSXl7VfoSjWwcXd7/AyVFwUPwC/0Bx6uAQIYODCJ7p3MPlcsGo2HWnYZRhEGvVbjrS9Xw5+8QMUwDQCbPUbrUOAOIkjvjB5ysC4HnTrjsN/sZ8mCoNTIDtbpSFICpA/0KnGsQYMIN+qkHcAaY6addAPAClXu4vQCnI/Q0oKdfzQXwAZs/1fDDmADPIfQUwdXSpAWpJOlJnvVMtq5ZlSbubBJE8HmU6GmRyPw4TlSaqo6MukP8HwGK+2G46cq1qWXvr/DOu58vc3o8QgFh6LFpBOFTn3yqMnd/n4sZ4GQ5vYXpStN0ruNmAheuirVahvAX34y/Axk/96FpPYgAAPj9pVFh0WE1MOmNvbS5hZG9iZS54bXAAAAAAADw/eHBhY2tldCBiZWdpbj0i77u/IiBpZD0iVzVNME1wQ2VoaUh6cmVTek5UY3prYzlkIj8+Cjx4OnhtcG1ldGEgeG1sbnM6eD0iYWRvYmU6bnM6bWV0YS8iIHg6eG1wdGs9IkFkb2JlIFhNUCBDb3JlIDUuNS1jMDE0IDc5LjE1MTQ4MSwgMjAxMy8wMy8xMy0xMjowOToxNSAgICAgICAgIj4KICAgPHJkZjpSREYgeG1sbnM6cmRmPSJodHRwOi8vd3d3LnczLm9yZy8xOTk5LzAyLzIyLXJkZi1zeW50YXgtbnMjIj4KICAgICAgPHJkZjpEZXNjcmlwdGlvbiByZGY6YWJvdXQ9IiIKICAgICAgICAgICAgeG1sbnM6eG1wPSJodHRwOi8vbnMuYWRvYmUuY29tL3hhcC8xLjAvIgogICAgICAgICAgICB4bWxuczp4bXBNTT0iaHR0cDovL25zLmFkb2JlLmNvbS94YXAvMS4wL21tLyIKICAgICAgICAgICAgeG1sbnM6c3RFdnQ9Imh0dHA6Ly9ucy5hZG9iZS5jb20veGFwLzEuMC9zVHlwZS9SZXNvdXJjZUV2ZW50IyIKICAgICAgICAgICAgeG1sbnM6ZGM9Imh0dHA6Ly9wdXJsLm9yZy9kYy9lbGVtZW50cy8xLjEvIgogICAgICAgICAgICB4bWxuczpwaG90b3Nob3A9Imh0dHA6Ly9ucy5hZG9iZS5jb20vcGhvdG9zaG9wLzEuMC8iCiAgICAgICAgICAgIHhtbG5zOnRpZmY9Imh0dHA6Ly9ucy5hZG9iZS5jb20vdGlmZi8xLjAvIgogICAgICAgICAgICB4bWxuczpleGlmPSJodHRwOi8vbnMuYWRvYmUuY29tL2V4aWYvMS4wLyI+CiAgICAgICAgIDx4bXA6Q3JlYXRvclRvb2w+QWRvYmUgUGhvdG9zaG9wIENDIChXaW5kb3dzKTwveG1wOkNyZWF0b3JUb29sPgogICAgICAgICA8eG1wOkNyZWF0ZURhdGU+MjAxMy0xMC0xNlQxNToyMjo1Ny0wNTowMDwveG1wOkNyZWF0ZURhdGU+CiAgICAgICAgIDx4bXA6TW9kaWZ5RGF0ZT4yMDEzLTEwLTE2VDE2OjAzOjA4LTA1OjAwPC94bXA6TW9kaWZ5RGF0ZT4KICAgICAgICAgPHhtcDpNZXRhZGF0YURhdGU+MjAxMy0xMC0xNlQxNjowMzowOC0wNTowMDwveG1wOk1ldGFkYXRhRGF0ZT4KICAgICAgICAgPHhtcE1NOkRvY3VtZW50SUQ+eG1wLmRpZDo4OWQwZjU3Ni1hZTIzLWU1NDMtODk3Yy1kYzVmNjljNzQ0ODM8L3htcE1NOkRvY3VtZW50SUQ+CiAgICAgICAgIDx4bXBNTTpJbnN0YW5jZUlEPnhtcC5paWQ6ZjkyNmVmMGYtOWE2Ni1mNTQ2LTlhOWYtMTAxZWFkY2MxMTVlPC94bXBNTTpJbnN0YW5jZUlEPgogICAgICAgICA8eG1wTU06T3JpZ2luYWxEb2N1bWVudElEPnhtcC5kaWQ6ODlkMGY1NzYtYWUyMy1lNTQzLTg5N2MtZGM1ZjY5Yzc0NDgzPC94bXBNTTpPcmlnaW5hbERvY3VtZW50SUQ+CiAgICAgICAgIDx4bXBNTTpIaXN0b3J5PgogICAgICAgICAgICA8cmRmOlNlcT4KICAgICAgICAgICAgICAgPHJkZjpsaSByZGY6cGFyc2VUeXBlPSJSZXNvdXJjZSI+CiAgICAgICAgICAgICAgICAgIDxzdEV2dDphY3Rpb24+Y3JlYXRlZDwvc3RFdnQ6YWN0aW9uPgogICAgICAgICAgICAgICAgICA8c3RFdnQ6aW5zdGFuY2VJRD54bXAuaWlkOjM3Nzg1MjFlLTUxY2MtOTE0Mi1iNjIwLWIzYzA1M2Q5ZGY0Nzwvc3RFdnQ6aW5zdGFuY2VJRD4KICAgICAgICAgICAgICAgICAgPHN0RXZ0OndoZW4+MjAxMy0xMC0xNlQxNToyMjo1Ny0wNTowMDwvc3RFdnQ6d2hlbj4KICAgICAgICAgICAgICAgICAgPHN0RXZ0OnNvZnR3YXJlQWdlbnQ+QWRvYmUgUGhvdG9zaG9wIENDIChXaW5kb3dzKTwvc3RFdnQ6c29mdHdhcmVBZ2VudD4KICAgICAgICAgICAgICAgPC9yZGY6bGk+CiAgICAgICAgICAgICAgIDxyZGY6bGkgcmRmOnBhcnNlVHlwZT0iUmVzb3VyY2UiPgogICAgICAgICAgICAgICAgICA8c3RFdnQ6YWN0aW9uPmNvbnZlcnRlZDwvc3RFdnQ6YWN0aW9uPgogICAgICAgICAgICAgICAgICA8c3RFdnQ6cGFyYW1ldGVycz5mcm9tIGFwcGxpY2F0aW9uL3ZuZC5hZG9iZS5waG90b3Nob3AgdG8gaW1hZ2UvcG5nPC9zdEV2dDpwYXJhbWV0ZXJzPgogICAgICAgICAgICAgICA8L3JkZjpsaT4KICAgICAgICAgICAgICAgPHJkZjpsaSByZGY6cGFyc2VUeXBlPSJSZXNvdXJjZSI+CiAgICAgICAgICAgICAgICAgIDxzdEV2dDphY3Rpb24+c2F2ZWQ8L3N0RXZ0OmFjdGlvbj4KICAgICAgICAgICAgICAgICAgPHN0RXZ0Omluc3RhbmNlSUQ+eG1wLmlpZDpmOTI2ZWYwZi05YTY2LWY1NDYtOWE5Zi0xMDFlYWRjYzExNWU8L3N0RXZ0Omluc3RhbmNlSUQ+CiAgICAgICAgICAgICAgICAgIDxzdEV2dDp3aGVuPjIwMTMtMTAtMTZUMTY6MDM6MDgtMDU6MDA8L3N0RXZ0OndoZW4+CiAgICAgICAgICAgICAgICAgIDxzdEV2dDpzb2Z0d2FyZUFnZW50PkFkb2JlIFBob3Rvc2hvcCBDQyAoV2luZG93cyk8L3N0RXZ0OnNvZnR3YXJlQWdlbnQ+CiAgICAgICAgICAgICAgICAgIDxzdEV2dDpjaGFuZ2VkPi88L3N0RXZ0OmNoYW5nZWQ+CiAgICAgICAgICAgICAgIDwvcmRmOmxpPgogICAgICAgICAgICA8L3JkZjpTZXE+CiAgICAgICAgIDwveG1wTU06SGlzdG9yeT4KICAgICAgICAgPGRjOmZvcm1hdD5pbWFnZS9wbmc8L2RjOmZvcm1hdD4KICAgICAgICAgPHBob3Rvc2hvcDpDb2xvck1vZGU+MzwvcGhvdG9zaG9wOkNvbG9yTW9kZT4KICAgICAgICAgPHBob3Rvc2hvcDpJQ0NQcm9maWxlPkFkb2JlIFJHQiAoMTk5OCk8L3Bob3Rvc2hvcDpJQ0NQcm9maWxlPgogICAgICAgICA8cGhvdG9zaG9wOlRleHRMYXllcnM+CiAgICAgICAgICAgIDxyZGY6QmFnPgogICAgICAgICAgICAgICA8cmRmOmxpIHJkZjpwYXJzZVR5cGU9IlJlc291cmNlIj4KICAgICAgICAgICAgICAgICAgPHBob3Rvc2hvcDpMYXllck5hbWU+TkdJTlg8L3Bob3Rvc2hvcDpMYXllck5hbWU+CiAgICAgICAgICAgICAgICAgIDxwaG90b3Nob3A6TGF5ZXJUZXh0Pk5HSU5YPC9waG90b3Nob3A6TGF5ZXJUZXh0PgogICAgICAgICAgICAgICA8L3JkZjpsaT4KICAgICAgICAgICAgPC9yZGY6QmFnPgogICAgICAgICA8L3Bob3Rvc2hvcDpUZXh0TGF5ZXJzPgogICAgICAgICA8cGhvdG9zaG9wOkRvY3VtZW50QW5jZXN0b3JzPgogICAgICAgICAgICA8cmRmOkJhZz4KICAgICAgICAgICAgICAgPHJkZjpsaT54bXAuZGlkOjgyNjc0M2IwLTZmZDctMTM0My04MWY3LTg2ZjAxMTU2MzlmNjwvcmRmOmxpPgogICAgICAgICAgICAgICA8cmRmOmxpPnhtcC5kaWQ6ODlkMGY1NzYtYWUyMy1lNTQzLTg5N2MtZGM1ZjY5Yzc0NDgzPC9yZGY6bGk+CiAgICAgICAgICAgICAgIDxyZGY6bGk+eG1wLmRpZDo5ZTJjM2ExYy05OWE2LTM3NGEtOTNjYS1hZmFkNmNmYzI4Yjc8L3JkZjpsaT4KICAgICAgICAgICAgICAgPHJkZjpsaT54bXAuZGlkOmFmNTQyNGU1LTIzN2QtYTM0Mi1hMzMwLTg2ZGUxYmFiNmM3MjwvcmRmOmxpPgogICAgICAgICAgICAgICA8cmRmOmxpPnhtcC5kaWQ6Zjc2ZTkwNTgtMjUxZi01MjQ2LWI1NjEtM2MxZGZkZjg2OTFiPC9yZGY6bGk+CiAgICAgICAgICAgIDwvcmRmOkJhZz4KICAgICAgICAgPC9waG90b3Nob3A6RG9jdW1lbnRBbmNlc3RvcnM+CiAgICAgICAgIDx0aWZmOk9yaWVudGF0aW9uPjE8L3RpZmY6T3JpZW50YXRpb24+CiAgICAgICAgIDx0aWZmOlhSZXNvbHV0aW9uPjMwMDAwMC8xMDAwMDwvdGlmZjpYUmVzb2x1dGlvbj4KICAgICAgICAgPHRpZmY6WVJlc29sdXRpb24+MzAwMDAwLzEwMDAwPC90aWZmOllSZXNvbHV0aW9uPgogICAgICAgICA8dGlmZjpSZXNvbHV0aW9uVW5pdD4zPC90aWZmOlJlc29sdXRpb25Vbml0PgogICAgICAgICA8ZXhpZjpDb2xvclNwYWNlPjY1NTM1PC9leGlmOkNvbG9yU3BhY2U+CiAgICAgICAgIDxleGlmOlBpeGVsWERpbWVuc2lvbj41MTI8L2V4aWY6UGl4ZWxYRGltZW5zaW9uPgogICAgICAgICA8ZXhpZjpQaXhlbFlEaW1lbnNpb24+NTEyPC9leGlmOlBpeGVsWURpbWVuc2lvbj4KICAgICAgPC9yZGY6RGVzY3JpcHRpb24+CiAgIDwvcmRmOlJERj4KPC94OnhtcG1ldGE+CiAgICAgICAgICAgICAgICAgICAgICAgICAgICAgICAgICAgICAgICAgICAgICAgICAgICAgICAgICAgICAgICAgICAgICAgICAgICAgICAgICAgICAgICAgICAgICAgICAgICAKICAgICAgICAgICAgICAgICAgICAgICAgICAgICAgICAgICAgICAgICAgICAgICAgICAgICAgICAgICAgICAgICAgICAgICAgICAgICAgICAgICAgICAgICAgICAgICAgICAgIAogICAgICAgICAgICAgICAgICAgICAgICAgICAgICAgICAgICAgICAgICAgICAgICAgICAgICAgICAgICAgICAgICAgICAgICAgICAgICAgICAgICAgICAgICAgICAgICAgICAgCiAgICAgICAgICAgICAgICAgICAgICAgICAgICAgICAgICAgICAgICAgICAgICAgICAgICAgICAgICAgICAgICAgICAgICAgICAgICAgICAgICAgICAgICAgICAgICAgICAgICAKICAgICAgICAgICAgICAgICAgICAgICAgICAgICAgICAgICAgICAgICAgICAgICAgICAgICAgICAgICAgICAgICAgICAgICAgICAgICAgICAgICAgICAgICAgICAgICAgICAgIAogICAgICAgICAgICAgICAgICAgICAgICAgICAgICAgICAgICAgICAgICAgICAgICAgICAgICAgICAgICAgICAgICAgICAgICAgICAgICAgICAgICAgICAgICAgICAgICAgICAgCiAgICAgICAgICAgICAgICAgICAgICAgICAgICAgICAgICAgICAgICAgICAgICAgICAgICAgICAgICAgICAgICAgICAgICAgICAgICAgICAgICAgICAgICAgICAgICAgICAgICAKICAgICAgICAgICAgICAgICAgICAgICAgICAgICAgICAgICAgICAgICAgICAgICAgICAgICAgICAgICAgICAgICAgICAgICAgICAgICAgICAgICAgICAgICAgICAgICAgICAgIAogICAgICAgICAgICAgICAgICAgICAgICAgICAgICAgICAgICAgICAgICAgICAgICAgICAgICAgICAgICAgICAgICAgICAgICAgICAgICAgICAgICAgICAgICAgICAgICAgICAgCiAgICAgICAgICAgICAgICAgICAgICAgICAgICAgICAgICAgICAgICAgICAgICAgICAgICAgICAgICAgICAgICAgICAgICAgICAgICAgICAgICAgICAgICAgICAgICAgICAgICAKICAgICAgICAgICAgICAgICAgICAgICAgICAgICAgICAgICAgICAgICAgICAgICAgICAgICAgICAgICAgICAgICAgICAgICAgICAgICAgICAgICAgICAgICAgICAgICAgICAgIAogICAgICAgICAgICAgICAgICAgICAgICAgICAgICAgICAgICAgICAgICAgICAgICAgICAgICAgICAgICAgICAgICAgICAgICAgICAgICAgICAgICAgICAgICAgICAgICAgICAgCiAgICAgICAgICAgICAgICAgICAgICAgICAgICAgICAgICAgICAgICAgICAgICAgICAgICAgICAgICAgICAgICAgICAgICAgICAgICAgICAgICAgICAgICAgICAgICAgICAgICAKICAgICAgICAgICAgICAgICAgICAgICAgICAgICAgICAgICAgICAgICAgICAgICAgICAgICAgICAgICAgICAgICAgICAgICAgICAgICAgICAgICAgICAgICAgICAgICAgICAgIAogICAgICAgICAgICAgICAgICAgICAgICAgICAgICAgICAgICAgICAgICAgICAgICAgICAgICAgICAgICAgICAgICAgICAgICAgICAgICAgICAgICAgICAgICAgICAgICAgICAgCiAgICAgICAgICAgICAgICAgICAgICAgICAgICAgICAgICAgICAgICAgICAgICAgICAgICAgICAgICAgICAgICAgICAgICAgICAgICAgICAgICAgICAgICAgICAgICAgICAgICAKICAgICAgICAgICAgICAgICAgICAgICAgICAgICAgICAgICAgICAgICAgICAgICAgICAgICAgICAgICAgICAgICAgICAgICAgICAgICAgICAgICAgICAgICAgICAgICAgICAgIAogICAgICAgICAgICAgICAgICAgICAgICAgICAgICAgICAgICAgICAgICAgICAgICAgICAgICAgICAgICAgICAgICAgICAgICAgICAgICAgICAgICAgICAgICAgICAgICAgICAgCiAgICAgICAgICAgICAgICAgICAgICAgICAgICAgICAgICAgICAgICAgICAgICAgICAgICAgICAgICAgICAgICAgICAgICAgICAgICAgICAgICAgICAgICAgICAgICAgICAgICAKICAgICAgICAgICAgICAgICAgICAgICAgICAgICAgICAgICAgICAgICAgICAgICAgICAgICAgICAgICAgICAgICAgICAgICAgICAgICAgICAgICAgICAgICAgICAgICAgICAgIAogICAgICAgICAgICAgICAgICAgICAgICAgICAgICAgICAgICAgICAgICAgICAgICAgICAgICAgICAgICAgICAgICAgICAgICAgICAgICAgICAgICAgICAgICAgICAgICAgICAgCiAgICAgICAgICAgICAgICAgICAgICAgICAgICAgICAgICAgICAgICAgICAgICAgICAgICAgICAgICAgICAgICAgICAgICAgICAgICAgICAgICAgICAgICAgICAgICAgICAgICAKICAgICAgICAgICAgICAgICAgICAgICAgICAgICAgICAgICAgICAgICAgICAgICAgICAgICAgICAgICAgICAgICAgICAgICAgICAgICAgICAgICAgICAgICAgICAgICAgICAgIAogICAgICAgICAgICAgICAgICAgICAgICAgICAgICAgICAgICAgICAgICAgICAgICAgICAgICAgICAgICAgICAgICAgICAgICAgICAgICAgICAgICAgICAgICAgICAgICAgICAgCiAgICAgICAgICAgICAgICAgICAgICAgICAgICAgICAgICAgICAgICAgICAgICAgICAgICAgICAgICAgICAgICAgICAgICAgICAgICAgICAgICAgICAgICAgICAgICAgICAgICAKICAgICAgICAgICAgICAgICAgICAgICAgICAgICAgICAgICAgICAgICAgICAgICAgICAgICAgICAgICAgICAgICAgICAgICAgICAgICAgICAgICAgICAgICAgICAgICAgICAgIAogICAgICAgICAgICAgICAgICAgICAgICAgICAgICAgICAgICAgICAgICAgICAgICAgICAgICAgICAgICAgICAgICAgICAgICAgICAgICAgICAgICAgICAgICAgICAgICAgICAgCiAgICAgICAgICAgICAgICAgICAgICAgICAgICAgICAgICAgICAgICAgICAgICAgICAgICAgICAgICAgICAgICAgICAgICAgICAgICAgICAgICAgICAgICAgICAgICAgICAgICAKICAgICAgICAgICAgICAgICAgICAgICAgICAgICAgICAgICAgICAgICAgICAgICAgICAgICAgICAgICAgICAgICAgICAgICAgICAgICAgICAgICAgICAgICAgICAgICAgICAgIAogICAgICAgICAgICAgICAgICAgICAgICAgICAgICAgICAgICAgICAgICAgICAgICAgICAgICAgICAgICAgICAgICAgICAgICAgICAgICAgICAgICAgICAgICAgICAgICAgICAgCiAgICAgICAgICAgICAgICAgICAgICAgICAgICAgICAgICAgICAgICAgICAgICAgICAgICAgICAgICAgICAgICAgICAgICAgICAgICAgICAgICAgICAgICAgICAgICAgICAgICAKICAgICAgICAgICAgICAgICAgICAgICAgICAgICAgICAgICAgICAgICAgICAgICAgICAgICAgICAgICAgICAgICAgICAgICAgICAgICAgICAgICAgICAgICAgICAgICAgICAgIAogICAgICAgICAgICAgICAgICAgICAgICAgICAgICAgICAgICAgICAgICAgICAgICAgICAgICAgICAgICAgICAgICAgICAgICAgICAgICAgICAgICAgICAgICAgICAgICAgICAgCiAgICAgICAgICAgICAgICAgICAgICAgICAgICAgICAgICAgICAgICAgICAgICAgICAgICAgICAgICAgICAgICAgICAgICAgICAgICAgICAgICAgICAgICAgICAgICAgICAgICAKICAgICAgICAgICAgICAgICAgICAgICAgICAgICAgICAgICAgICAgICAgICAgICAgICAgICAgICAgICAgICAgICAgICAgICAgICAgICAgICAgICAgICAgICAgICAgICAgICAgIAogICAgICAgICAgICAgICAgICAgICAgICAgICAgICAgICAgICAgICAgICAgICAgICAgICAgICAgICAgICAgICAgICAgICAgICAgICAgICAgICAgICAgICAgICAgICAgICAgICAgCiAgICAgICAgICAgICAgICAgICAgICAgICAgICAgICAgICAgICAgICAgICAgICAgICAgICAgICAgICAgICAgICAgICAgICAgICAgICAgICAgICAgICAgICAgICAgICAgICAgICAKICAgICAgICAgICAgICAgICAgICAgICAgICAgICAgICAgICAgICAgICAgICAgICAgICAgICAgICAgICAgICAgICAgICAgICAgICAgICAgICAgICAgICAgICAgICAgICAgICAgIAogICAgICAgICAgICAgICAgICAgICAgICAgICAgICAgICAgICAgICAgICAgICAgICAgICAgICAgICAgICAgICAgICAgICAgICAgICAgICAgICAgICAgICAgICAgICAgICAgICAgCiAgICAgICAgICAgICAgICAgICAgICAgICAgICAgICAgICAgICAgICAgICAgICAgICAgICAgICAgICAgICAgICAgICAgICAgICAgICAgICAgICAgICAgICAgICAgICAgICAgICAKICAgICAgICAgICAgICAgICAgICAgICAgICAgICAgICAgICAgICAgICAgICAgICAgICAgICAgICAgICAgICAgICAgICAgICAgICAgICAgICAgICAgICAgICAgICAgICAgICAgIAogICAgICAgICAgICAgICAgICAgICAgICAgICAgICAgICAgICAgICAgICAgICAgICAgICAgICAgICAgICAgICAgICAgICAgICAgICAgICAgICAgICAgICAgICAgICAgICAgICAgCiAgICAgICAgICAgICAgICAgICAgICAgICAgICAgICAgICAgICAgICAgICAgICAgICAgICAgICAgICAgICAgICAgICAgICAgICAgICAgICAgICAgICAgICAgICAgICAgICAgICAKICAgICAgICAgICAgICAgICAgICAgICAgICAgICAgICAgICAgICAgICAgICAgICAgICAgICAgICAgICAgICAgICAgICAgICAgICAgICAgICAgICAgICAgICAgICAgICAgICAgIAogICAgICAgICAgICAgICAgICAgICAgICAgICAgICAgICAgICAgICAgICAgICAgICAgICAgICAgICAgICAgICAgICAgICAgICAgICAgICAgICAgICAgICAgICAgICAgICAgICAgCiAgICAgICAgICAgICAgICAgICAgICAgICAgICAgICAgICAgICAgICAgICAgICAgICAgICAgICAgICAgICAgICAgICAgICAgICAgICAgICAgICAgICAgICAgICAgICAgICAgICAKICAgICAgICAgICAgICAgICAgICAgICAgICAgICAgICAgICAgICAgICAgICAgICAgICAgICAgICAgICAgICAgICAgICAgICAgICAgICAgICAgICAgICAgICAgICAgICAgICAgIAogICAgICAgICAgICAgICAgICAgICAgICAgICAgICAgICAgICAgICAgICAgICAgICAgICAgICAgICAgICAgICAgICAgICAgICAgICAgICAgICAgICAgICAgICAgICAgICAgICAgCiAgICAgICAgICAgICAgICAgICAgICAgICAgICAgICAgICAgICAgICAgICAgICAgICAgICAgICAgICAgICAgICAgICAgICAgICAgICAgICAgICAgICAgICAgICAgICAgICAgICAKICAgICAgICAgICAgICAgICAgICAgICAgICAgICAgICAgICAgICAgICAgICAgICAgICAgICAgICAgICAgICAgICAgICAgICAgICAgICAgICAgICAgICAgICAgICAgICAgICAgIAogICAgICAgICAgICAgICAgICAgICAgICAgICAgICAgICAgICAgICAgICAgICAgICAgICAgICAgICAgICAgICAgICAgICAgICAgICAgICAgICAgICAgICAgICAgICAgICAgICAgCiAgICAgICAgICAgICAgICAgICAgICAgICAgICAgICAgICAgICAgICAgICAgICAgICAgICAgICAgICAgICAgICAgICAgICAgICAgICAgICAgICAgICAgICAgICAgICAgICAgICAKICAgICAgICAgICAgICAgICAgICAgICAgICAgICAgICAgICAgICAgICAgICAgICAgICAgICAgICAgICAgICAgICAgICAgICAgICAgICAgICAgICAgICAgICAgICAgICAgICAgIAogICAgICAgICAgICAgICAgICAgICAgICAgICAgICAgICAgICAgICAgICAgICAgICAgICAgICAgICAgICAgICAgICAgICAgICAgICAgICAgICAgICAgICAgICAgICAgICAgICAgCiAgICAgICAgICAgICAgICAgICAgICAgICAgICAgICAgICAgICAgICAgICAgICAgICAgICAgICAgICAgICAgICAgICAgICAgICAgICAgICAgICAgICAgICAgICAgICAgICAgICAKICAgICAgICAgICAgICAgICAgICAgICAgICAgICAgICAgICAgICAgICAgICAgICAgICAgICAgICAgICAgICAgICAgICAgICAgICAgICAgICAgICAgICAgICAgICAgICAgICAgIAogICAgICAgICAgICAgICAgICAgICAgICAgICAgICAgICAgICAgICAgICAgICAgICAgICAgICAgICAgICAgICAgICAgICAgICAgICAgICAgICAgICAgICAgICAgICAgICAgICAgCiAgICAgICAgICAgICAgICAgICAgICAgICAgICAgICAgICAgICAgICAgICAgICAgICAgICAgICAgICAgICAgICAgICAgICAgICAgICAgICAgICAgICAgICAgICAgICAgICAgICAKICAgICAgICAgICAgICAgICAgICAgICAgICAgICAgICAgICAgICAgICAgICAgICAgICAgICAgICAgICAgICAgICAgICAgICAgICAgICAgICAgICAgICAgICAgICAgICAgICAgIAogICAgICAgICAgICAgICAgICAgICAgICAgICAgICAgICAgICAgICAgICAgICAgICAgICAgICAgICAgICAgICAgICAgICAgICAgICAgICAgICAgICAgICAgICAgICAgICAgICAgCiAgICAgICAgICAgICAgICAgICAgICAgICAgICAgICAgICAgICAgICAgICAgICAgICAgICAgICAgICAgICAgICAgICAgICAgICAgICAgICAgICAgICAgICAgICAgICAgICAgICAKICAgICAgICAgICAgICAgICAgICAgICAgICAgICAgICAgICAgICAgICAgICAgICAgICAgICAgICAgICAgICAgICAgICAgICAgICAgICAgICAgICAgICAgICAgICAgICAgICAgIAogICAgICAgICAgICAgICAgICAgICAgICAgICAgICAgICAgICAgICAgICAgICAgICAgICAgICAgICAgICAgICAgICAgICAgICAgICAgICAgICAgICAgICAgICAgICAgICAgICAgCiAgICAgICAgICAgICAgICAgICAgICAgICAgICAgICAgICAgICAgICAgICAgICAgICAgICAgICAgICAgICAgICAgICAgICAgICAgICAgICAgICAgICAgICAgICAgICAgICAgICAKICAgICAgICAgICAgICAgICAgICAgICAgICAgICAgICAgICAgICAgICAgICAgICAgICAgICAgICAgICAgICAgICAgICAgICAgICAgICAgICAgICAgICAgICAgICAgICAgICAgIAogICAgICAgICAgICAgICAgICAgICAgICAgICAgICAgICAgICAgICAgICAgICAgICAgICAgICAgICAgICAgICAgICAgICAgICAgICAgICAgICAgICAgICAgICAgICAgICAgICAgCiAgICAgICAgICAgICAgICAgICAgICAgICAgICAgICAgICAgICAgICAgICAgICAgICAgICAgICAgICAgICAgICAgICAgICAgICAgICAgICAgICAgICAgICAgICAgICAgICAgICAKICAgICAgICAgICAgICAgICAgICAgICAgICAgICAgICAgICAgICAgICAgICAgICAgICAgICAgICAgICAgICAgICAgICAgICAgICAgICAgICAgICAgICAgICAgICAgICAgICAgIAogICAgICAgICAgICAgICAgICAgICAgICAgICAgICAgICAgICAgICAgICAgICAgICAgICAgICAgICAgICAgICAgICAgICAgICAgICAgICAgICAgICAgICAgICAgICAgICAgICAgCiAgICAgICAgICAgICAgICAgICAgICAgICAgICAgICAgICAgICAgICAgICAgICAgICAgICAgICAgICAgICAgICAgICAgICAgICAgICAgICAgICAgICAgICAgICAgICAgICAgICAKICAgICAgICAgICAgICAgICAgICAgICAgICAgICAgICAgICAgICAgICAgICAgICAgICAgICAgICAgICAgICAgICAgICAgICAgICAgICAgICAgICAgICAgICAgICAgICAgICAgIAogICAgICAgICAgICAgICAgICAgICAgICAgICAgICAgICAgICAgICAgICAgICAgICAgICAgICAgICAgICAgICAgICAgICAgICAgICAgICAgICAgICAgICAgICAgICAgICAgICAgCiAgICAgICAgICAgICAgICAgICAgICAgICAgICAgICAgICAgICAgICAgICAgICAgICAgICAgICAgICAgICAgICAgICAgICAgICAgICAgICAgICAgICAgICAgICAgICAgICAgICAKICAgICAgICAgICAgICAgICAgICAgICAgICAgICAgICAgICAgICAgICAgICAgICAgICAgICAgICAgICAgICAgICAgICAgICAgICAgICAgICAgICAgICAgICAgICAgICAgICAgIAogICAgICAgICAgICAgICAgICAgICAgICAgICAgICAgICAgICAgICAgICAgICAgICAgICAgICAgICAgICAgICAgICAgICAgICAgICAgICAgICAgICAgICAgICAgICAgICAgICAgCiAgICAgICAgICAgICAgICAgICAgICAgICAgICAgICAgICAgICAgICAgICAgICAgICAgICAgICAgICAgICAgICAgICAgICAgICAgICAgICAgICAgICAgICAgICAgICAgICAgICAKICAgICAgICAgICAgICAgICAgICAgICAgICAgICAgICAgICAgICAgICAgICAgICAgICAgICAgICAgICAgICAgICAgICAgICAgICAgICAgICAgICAgICAgICAgICAgICAgICAgIAogICAgICAgICAgICAgICAgICAgICAgICAgICAgICAgICAgICAgICAgICAgICAgICAgICAgICAgICAgICAgICAgICAgICAgICAgICAgICAgICAgICAgICAgICAgICAgICAgICAgCiAgICAgICAgICAgICAgICAgICAgICAgICAgICAgICAgICAgICAgICAgICAgICAgICAgICAgICAgICAgICAgICAgICAgICAgICAgICAgICAgICAgICAgICAgICAgICAgICAgICAKICAgICAgICAgICAgICAgICAgICAgICAgICAgICAgICAgICAgICAgICAgICAgICAgICAgICAgICAgICAgICAgICAgICAgICAgICAgICAgICAgICAgICAgICAgICAgICAgICAgIAogICAgICAgICAgICAgICAgICAgICAgICAgICAgICAgICAgICAgICAgICAgICAgICAgICAgICAgICAgICAgICAgICAgICAgICAgICAgICAgICAgICAgICAgICAgICAgICAgICAgCiAgICAgICAgICAgICAgICAgICAgICAgICAgICAgICAgICAgICAgICAgICAgICAgICAgICAgICAgICAgICAgICAgICAgICAgICAgICAgICAgICAgICAgICAgICAgICAgICAgICAKICAgICAgICAgICAgICAgICAgICAgICAgICAgICAgICAgICAgICAgICAgICAgICAgICAgICAgICAgICAgICAgICAgICAgICAgICAgICAgICAgICAgICAgICAgICAgICAgICAgIAogICAgICAgICAgICAgICAgICAgICAgICAgICAgICAgICAgICAgICAgICAgICAgICAgICAgICAgICAgICAgICAgICAgICAgICAgICAgICAgICAgICAgICAgICAgICAgICAgICAgCiAgICAgICAgICAgICAgICAgICAgICAgICAgICAgICAgICAgICAgICAgICAgICAgICAgICAgICAgICAgICAgICAgICAgICAgICAgICAgICAgICAgICAgICAgICAgICAgICAgICAKICAgICAgICAgICAgICAgICAgICAgICAgICAgICAgICAgICAgICAgICAgICAgICAgICAgICAgICAgICAgICAgICAgICAgICAgICAgICAgICAgICAgICAgICAgICAgICAgICAgIAogICAgICAgICAgICAgICAgICAgICAgICAgICAgICAgICAgICAgICAgICAgICAgICAgICAgICAgICAgICAgICAgICAgICAgICAgICAgICAgICAgICAgICAgICAgICAgICAgICAgCiAgICAgICAgICAgICAgICAgICAgICAgICAgICAgICAgICAgICAgICAgICAgICAgICAgICAgICAgICAgICAgICAgICAgICAgICAgICAgICAgICAgICAgICAgICAgICAgICAgICAKICAgICAgICAgICAgICAgICAgICAgICAgICAgICAgICAgICAgICAgICAgICAgICAgICAgICAgICAgICAgICAgICAgICAgICAgICAgICAgICAgICAgICAgICAgICAgICAgICAgIAogICAgICAgICAgICAgICAgICAgICAgICAgICAgICAgICAgICAgICAgICAgICAgICAgICAgICAgICAgICAgICAgICAgICAgICAgICAgICAgICAgICAgICAgICAgICAgICAgICAgCiAgICAgICAgICAgICAgICAgICAgICAgICAgICAgICAgICAgICAgICAgICAgICAgICAgICAgICAgICAgICAgICAgICAgICAgICAgICAgICAgICAgICAgICAgICAgICAgICAgICAKICAgICAgICAgICAgICAgICAgICAgICAgICAgICAgICAgICAgICAgICAgICAgICAgICAgICAgICAgICAgICAgICAgICAgICAgICAgICAgICAgICAgICAgICAgICAgICAgICAgIAogICAgICAgICAgICAgICAgICAgICAgICAgICAgICAgICAgICAgICAgICAgICAgICAgICAgICAgICAgICAgICAgICAgICAgICAgICAgICAgICAgICAgICAgICAgICAgICAgICAgCiAgICAgICAgICAgICAgICAgICAgICAgICAgICAgICAgICAgICAgICAgICAgICAgICAgICAgICAgICAgICAgICAgICAgICAgICAgICAgICAgICAgICAgICAgICAgICAgICAgICAKICAgICAgICAgICAgICAgICAgICAgICAgICAgICAgICAgICAgICAgICAgICAgICAgICAgICAgICAgICAgICAgICAgICAgICAgICAgICAgICAgICAgICAgICAgICAgICAgICAgIAogICAgICAgICAgICAgICAgICAgICAgICAgICAgICAgICAgICAgICAgICAgICAgICAgICAgICAgICAgICAgICAgICAgICAgICAgICAgICAgICAgICAgICAgICAgICAgICAgICAgCiAgICAgICAgICAgICAgICAgICAgICAgICAgICAgICAgICAgICAgICAgICAgICAgICAgICAgICAgICAgICAgICAgICAgICAgICAgICAgICAgICAgICAgICAgICAgICAgICAgICAKICAgICAgICAgICAgICAgICAgICAgICAgICAgICAgICAgICAgICAgICAgICAgICAgICAgICAgICAgICAgICAgICAgICAgICAgICAgICAgICAgICAgICAgICAgICAgICAgICAgIAogICAgICAgICAgICAgICAgICAgICAgICAgICAgICAgICAgICAgICAgICAgICAgICAgICAgICAgICAgICAgICAgICAgICAgICAgICAgICAgICAgICAgICAgICAgICAgICAgICAgCiAgICAgICAgICAgICAgICAgICAgICAgICAgICAgICAgICAgICAgICAgICAgICAgICAgICAgICAgICAgICAgICAgICAgICAgICAgICAgICAgICAgICAgICAgICAgICAgICAgICAKICAgICAgICAgICAgICAgICAgICAgICAgICAgICAgICAgICAgICAgICAgICAgICAgICAgICAgICAgICAgICAgICAgICAgICAgICAgICAgICAgICAgICAgICAgICAgICAgICAgIAogICAgICAgICAgICAgICAgICAgICAgICAgICAgICAgICAgICAgICAgICAgICAgICAgICAgICAgICAgICAgICAgICAgICAgICAgICAgICAgICAgICAgICAgICAgICAgICAgICAgCiAgICAgICAgICAgICAgICAgICAgICAgICAgICAgICAgICAgICAgICAgICAgICAgICAgICAgICAgICAgICAgICAgICAgICAgICAgICAgICAgICAgICAgICAgICAgICAgICAgICAKICAgICAgICAgICAgICAgICAgICAgICAgICAgICAgICAgICAgICAgICAgICAgICAgICAgICAgICAgICAgICAgICAgICAgICAgICAgICAgICAgICAgICAgICAgICAgICAgICAgIAogICAgICAgICAgICAgICAgICAgICAgICAgICAgICAgICAgICAgICAgICAgICAgICAgICAgICAgICAgICAgICAgICAgICAgICAgICAgICAgICAgICAgICAgICAgICAgICAgICAgCiAgICAgICAgICAgICAgICAgICAgICAgICAgICAgICAgICAgICAgICAgICAgICAgICAgICAgICAgICAgICAgICAgICAgICAgICAgICAgICAgICAgICAgICAgICAgICAgICAgICAKICAgICAgICAgICAgICAgICAgICAgICAgICAgICAgICAgICAgICAgICAgICAgICAgICAgICAgICAgICAgICAgICAgICAgICAgICAgICAgICAgICAgICAgICAgICAgICAgICAgIAogICAgICAgICAgICAgICAgICAgICAgICAgICAgICAgICAgICAgICAgICAgICAgICAgICAgICAgICAgICAgICAgICAgICAgICAgICAgICAgICAgICAgICAgICAgICAgICAgICAgCiAgICAgICAgICAgICAgICAgICAgICAgICAgICAgICAgICAgICAgICAgICAgICAgICAgICAgICAgICAgICAgICAgICAgICAgICAgICAgICAgICAgICAgICAgICAgICAgICAgICAKICAgICAgICAgICAgICAgICAgICAgICAgICAgICAgICAgICAgICAgICAgICAgICAgICAgICAgICAgICAgICAgICAgICAgICAgICAgICAgICAgICAgICAgICAgICAgICAgICAgIAogICAgICAgICAgICAgICAgICAgICAgICAgICAgICAgICAgICAgICAgICAgICAgICAgICAgICAgICAgICAgICAgICAgICAgICAgICAgICAgICAgICAgICAgICAgICAgICAgICAgCiAgICAgICAgICAgICAgICAgICAgICAgICAgICAgICAgICAgICAgICAgICAgICAgICAgICAgICAgICAgICAgICAgICAgICAgICAgICAgICAgICAgICAgICAgICAgICAgICAgICAKICAgICAgICAgICAgICAgICAgICAgICAgICAgICAgICAgICAgICAgICAgICAgICAgICAgICAgICAgICAgICAgICAgICAgICAgICAgICAgICAgICAgICAgICAgICAgICAgICAgIAogICAgICAgICAgICAgICAgICAgICAgICAgICAgICAgICAgICAgICAgICAgICAgICAgICAgICAgICAgICAgICAgICAgICAgICAgICAgICAgICAgICAgICAgICAgICAgICAgICAgCiAgICAgICAgICAgICAgICAgICAgICAgICAgICAgICAgICAgICAgICAgICAgICAgICAgICAgICAgICAgICAgICAgICAgICAgICAgICAgICAgICAgICAgICAgICAgICAgICAgICAKICAgICAgICAgICAgICAgICAgICAgICAgICAgICAgICAgICAgICAgICAgICAgICAgICAgICAgICAgICAgICAgICAgICAgICAgICAgICAgICAgICAgICAgICAgICAgICAgICAgIAogICAgICAgICAgICAgICAgICAgICAgICAgICAgICAgICAgICAgICAgICAgICAgICAgICAgICAgICAgICAgICAgICAgICAgICAgICAgICAgICAgICAgICAgICAgICAgICAgICAgCiAgICAgICAgICAgICAgICAgICAgICAgICAgICAgICAgICAgICAgICAgICAgICAgICAgICAgICAgICAgICAgICAgICAgICAgICAgICAgICAgICAgICAgICAgICAgICAgICAgICAKICAgICAgICAgICAgICAgICAgICAgICAgICAgICAgICAgICAgICAgICAgICAgICAgICAgICAgICAgICAgICAgICAgICAgICAgICAgICAgICAgICAgICAgICAgICAgICAgICAgIAogICAgICAgICAgICAgICAgICAgICAgICAgICAgCjw/eHBhY2tldCBlbmQ9InciPz40VTbeAAAAIGNIUk0AAHolAACAgwAA+f8AAIDoAABSCAABFVgAADqXAAAXb9daH5AAADj9SURBVHja7N15dFRlou/9X2WeGUMCCWMYQhjCmBAQHBjEGRAHlCDgBIra57Qemz73Xdd737vUbvvc93YDgkOLhlEFBEVFBkVQyMAUxjCEMZGEAAlJyJzU+4eN17YTUlXZldSu+n7W6nXWOmed9K5fPez67b2f/TyWhMWTrAIAAB7FiwgAAKAAAAAACgAAAKAAAAAACgAAAKAAAAAACgAAAKAAAAAACgAAAKAAAAAACgAAAKAAAAAACgAAAKAAAAAACgAAAKAAAAAACgAAAKAAAABAAQAAABQAAABAAQAAABQAAABAAQAAABQAAABAAQAAABQAAABAAQAAABQAAABAAQAAABQAAABAAQAAABQAAABAAQAAABQAAABAAQAAgAIAAAAoAAAAgAIAAAAoAAAAgAIAAAAoAAAAgAIAAABcjA8RAPaLDY/R2B4jFRseo6iwSIX5B0uSQv1DGvz/KakslSTlFueruLJUWQXZ2nZ6l3KL83/5vwFAc7EkLJ5kJQb38Pr4VzQ2ZqThf/eNHYu1/uhmQ//mjMFT9HxiskP/v4vSlill/7pm/8GfMWjKP37wIwz/+yWVpTpWkK2M3IP67OhmwwqBEWMicclkxqED47Apf/u3Y2Pc0mRDP/ekuAmaP2auIX9rW/Yu/XHLW5yAuQMAdzRj0BTDT7xmEOofonmJyRobM/KmV/ZG/XclRMcrITpezycmq6SyVNuydynlwDrlFuczCE04DlP2r/vlLlFTx8b8MXP1xo7FhmZpVHE18rjQvJgDgEZFhUVoUtwEj/rhX3Dva9o6a5kmxU1w+o9/Q8cwKW6C1j22RFtnLdOMwVMYhyYch0ZdGU+Km2DYnacZg6cY9rcWpi3j8RUFAJ5w9eUJP/yvj39FW2ctU0J0vEsd19geIxmEJhyHucX5hj2u+oMBt+xD/UM0Y9BkQ44nqyDbI+8MUgDgkVdf7nwVmhAdr88eW+yUZ9dGSDmwjkFo0nG4KG2ZIY9xbjwiaop5icmG3dHiuT8FAB519TXZPT/X4ClacO9rLXKr39aryG3ZuxiAJh6Hbxr0nLwpdwGMfISSsp+5KRQAeJRQ/xC3uwvw+vhXDJmp7Uzbsn9k8Jl8HKbnZBpS4ppyB+QPBs36zy3O16K0ZQxECgC4+jL3j7+r3vL/p6utA58x8NxgHL6xY7EhE+ZmDJps992q2PAYw+a1vMmsfwoAPPfqy9WvmN3pxz89J5NZ1m4yDksqS7XQgCvnG68F2sOod/7TczKVnpPJAKQAwFNNbqFX4wy7ehw8xRQ//pK0/hizrN1pHK4/utmQH9CxMSNtfpVvUtyEJq9FcKPA/HHLXxh4FAB4+tXXPJPeBYgNjzHNlSOT/9xzHP5xy18Muavz+vhXbCu8Br06mXLgM+5GUQAANcvqeM5g60nTFTD5zz3HYUllqSHzOmLDYxqd1f98YrIhi/5kFWQ3+/LboACAqy/DGHUyvNmJPasgW+k5mUrZv+6X/6TnZCqrINvuTX+Y/Oe+dwFS9q9TVkF2k//OzT57qH+IJhv02h/v/Lsn9gKAwybFTTDNWvVGngx/+6P/2dHNdt8ejQ2P0eS+EzQ8Or7eUsLkP/cch7/9UV332JImj+vnE5PrfS1v/pi5htwdWX90M+/8cwcAqO+qeoYpjtPIFdBuWJS2TOOW/nzytffHOqsgW2/sWKwpK+f88jd+fZJl8p97jsNfM2qZ4Mn17BMQFRZhyETX3OJ8NvuhAAD1s2c2ckte/Ru5iUxucb6mrJxj2DPRkspSpexfpykr5+iJtS9r/dHNTP5zw3HYUIls6tV1qH/IvyzyY9SiPyxBTQEAbsqok42zGLloTG5xvp5Y+7LTboneuDMA9xuHDTFiYZ1f7xNgxJ4B0s+PodjshwIANHryceWrL6NWQCupLNULG/87z+YZh4YyapngGwXIiCJUUlnKin8UAHgCI1q+q159RYVFGLIIivTz3udMhmIcOoMRywRHhUVowb2vGVKCPmPiHwUAnqG4srTJq5MlRMcb9kNrpLExowz5O+x9zjh0JqOWCTbibheb/VAA4EGiwiINud033wWvvoZHDTTsCg2MQ2cyapngpuKdfwoAPExucX6TTz5G7jhm5I+KEVf/RizaAs8dh7Z606AdAx21LXsXY50CAM+68or45eTTVK60zn6of4ghz0PZ/Yxx2JwFqKVWgCypLOVOFwUAnnz11dTZyLHhMS6z015fg54FbzvNO/mMw+Zj1DLB9lrowIJWoADA5H69Qt6itBQDrr5cY1U2o7ZA5ZYo47C5NfdzeCa5eib2AoDC/IP/6epr/dHNTVo5LyosQpPiJrT4CSW2fdMLgK2vQqXNaZ7bti9sfM1tH0m46zh0dNw19fO7cuEAdwDgoox4HcmoPchd4UQMxmFLeGPH4mYZfyn71zHOKQDAz0oqS5t81XTj6qslGTEBMLc4jwHBOGwxzl6Nj3f+KQDwcPXtkmfEhCB3uAtQUnWdAcI4bDFGLRPcECPmWoACADe8+mrqiScqLEIzBk8hTDAOm+ANJ60N4OxyAQoATMyYq6/JBAnGYRP0DY+p9+5IU4vVH7f8hcFFAQAaPkl81sRnsKH+IfUuysKrdWAc2sasGxyBAgCTW2TA1dfkuAmGX8GAcegJ43D+mLlO2eI41D9Er49/mYFFAQBuzoirLx4FgHFoH2e/wZAQHW/qNyRAAQBXXw0y4t3mqNAIBgDjsEUsuPd/OP2/Y15iMnfnKADAzTV1g5JQ/xDNM+EGLZ3CKACMw+b3fGKyU27915fHwntfY2BRAICbnHgNWC1s0q+uvppjOdusy02f4GXEdsLw7HFo/5hr3tcWY8NjeF2XAgDc3PpjTV9TfX4zzmg2YhW/X69Pf9OyUZBt83/gWePQXq+Pf6XZ/ztnDJrcLHcc4FrYDAh2XX1N6juhSSeKsTEjFZUW0SxrjxvxYxvqH6KE6PhGrxSfWGvbjOqE6Hgt4JarR41Du36IB08xZBdLR8b56+NfsXkcgzsA8MST74F1Tf4bN95rdvbe47nF+Yb8d4ztMZIvnnHYLD/CLfmWQmx4TL1rJYACAEiS1h/d3OSrpoTo+Ga73WjEFd7YGAoA49D5Xh//covPyG+pOxCgAMDDrr6KK52/0Y5RjwGYJMU4dKZJcROUEB3vIkXkFQYXBQBw7tWXrRPsmmLbaWM2O5nUlwVTGIfOYeSriSn7m16KosIiKAEUAKBhRmwj2hy3O9NzMg15xstJkXHoLPPHzDXkGLZl79KitGWGvNo4NmYkj74oAEDDJxuzvNJ2zKDj5KTIODSaUWOqpLJUb+xYLEl606Dtg59PnMEqgRQAoKGrr2WmOM5lTVw97tdeH/8K66czDg3zfOIMQ/7Or7dMzi3Ob/K+CdLPd73msxMhBQCoT3pOpimuvtJzMg1933v+mLl6ffwrXB0xDptcJo14CyGrIFvrf/ODvyhtmWFvwFB4KQBAvW7cdnR1Rqwe99sT49ZZy+zerpW9BTx7HN4QGx5j2OOkP255y67/vb3YMMh9sRIgmnz1kVWQ7fLvDhuxelx9JsVN0KS4CSqpLFVx5XWVVJYqqyBbxZWlig2PUdg/TpxRYRGcRBmH/3T1b9S4buhKP6sgW9uydzW5aNzYMIhVArkDAJj26suI98ZvdpKMCotQbHiMJsVN0IzBU5QQHa/Y8BjFhsfw4884/IVRO/3lFuc3Ov/hDYMmBLJhEAUAaPBKwxV3Vfut9Uc3m+I44b7j0Mid/mx5BbKkslQLDZokyYZBFACgXm+a5Orrj1v+4jJrv8PzxqFRt/7TczK1Ldu2Ra6MKr43NgwCBQD4J7nF+aa4uv71+9JgHDan5xOTDZmjUFJZqj9u+UuLFCM2DKIAAKa+C3BjxTQwDptLVFiEJhv0Ol3Kgc/svouVW5xvyDLB0s8bBvEogAIAmPIugPTz7GlKAOOwuRi1bkRTfsiNWhtAkhbc+z8YaBQAwJx3ASgBjMPmMilugmGvJzb13X6jcmFvDAoAUO8Viq2Tk1ylBLyw8TUmBjIOncLInf6M2PfAnsmDjWFvDAoA8C+M2KGtOaXnZGryyrmm3lQGrjkOXx//siG3/o2cvGrU2gASGwZRAIB6rr7WH91sqmMuqSzVE2tf1gsbXzN03wAjj29b9i7DdjZkHDrfpLgJSoiON+Rv/XqzHyPGklFrA7BhEAUAqPeEZUbpOZmasnKO/rjlrRa/I3DjB2zKyjkatzRZf9zyFo8qTDIOjbz1X99mP021/uhmw8Y3jwLMi70A4LQr1vVHN5t2J7Ft2bu0LXuXQv1DNGPQZI2NGeXUV59KKkt/mb2+7fQuHkeYfBzOHzPXsFvjRm3qU9/fXffYEsM+b3rOQQqqyVgSFk+yEgNgm9jwGI3tMVKx4TGKCotUmH/wL1d8N/sR+vVVffE/NgzKuvzzBjau+MgBAHcAAPzKjV3nAMDsmAMAAAAFAAAAUAAAAAAFAAAAUAAAAAAFAAAAUAAAAAAFAAAAUAAAAAAFAAAAUAAAAAAFAAAAUAAAAAAFAAAAUAAAAAAFAAAAUAAAAAAFAAAACgAAAKAAAAAACgAAAKAAAAAACgAAAKAAAAAACgAAAKAAAAAACgAAAKAAAAAACgAAADCcDxHAlQX7Benb2SsIAh4tcclkQgB3AOA54iP76vPp7xEEPF73Np0JARQAeI7nRyQrxC+IIODx/jBmjiyyEAQoAHB/t3QdpvjIvgQBSBrUMU73xY4lCFAA4OaD0mLRc4nJBAH8yrwRM9QmMIwgQAGA+7qz162KaduFIIBfaRUQqpeSZhEEKABwT75ePnpm+KMEAdRjYu9bNTRqAEGAAgD3MylugjqFRhAEUA+LLHp19LPy8/YlDFAA4D4CfQM0e+hDBAHcRNfWUZoxeApBgAIA9/HYwPvVNrA1QQCNeGLwg+rSqhNBgAIA82sdEKbH4x8gCMAGft6+epW1AUABgFtc0Qx5UMEs+gPYbFjUAE3sfStBgAIA84oIaa+p/e4iCMBOLyXNUquAUIIABQDm9NSwR5jVDDigTWCY5o2YQRCgAMB8urfprHv73EEQgIPuix3LstmgAMB85iQ8Ji8LwxBwlEUWzb91rny8vAkDFACYQ78OvXVr90SCAJqoe5vOmj5oMkGAAgBzeC5xOq8xAQaZPeQhRYdFEgQoAHBtCdHxGsaa5oBh/H389MroZwgCFAC4LosszFwGnGBE58Ea3/MWggAFAK5pXMwo9WnfgyAAJ/i3kU8q1D+YIEABgGvx9vLWswmPEQTgJO2CWuu5xGSCAAUAruW+2LHq3KojQQBONKnvBA2I6EMQoADANfj7+OmpoQ8TBODsE7vFolfHzJE3awOAAgBX8OiAexUe3I4ggGbQq103TRt4H0GAAoCWFeofomQWKgGa1VPDHlFkaDhBgAKAlpM8aLJC/UMIAmhGgT4BeuUW1gYABQAtpH1QGz0y4B6CAFrALV2H6fYeSQQBCgCa3+yhDyvAx58ggBby+1FPKtgviCBAAUDz6dyqox7oO54ggBYUHtxOc1h/AxQANKdnEx5jm1LABUztd5f6hvckCFAA4Hx92vfQuJhRBAG4wsne4qX5t86Vl4XTPigAcLK5bPcLuFwpf5gJuaAAwJmGdOqnpM6DCQJwMc8On6YOLMgFCgCcge1+AdcV5Buo39/yFEGAAgDj3do9Uf069CYIwEXd1n2ERncdThAUAMDAAWXx4nUjwAReHv20An0DCIICABjj7t63qXubzgQBuLjIkHA9PexRgqAAAE3n5+3LCQUwkUcH3Kve7bsTBAUAaJoH+93FzmOAiXh7eesPY+bKy8LruhQAwEHBfkGaOeRBggBMpl+HXprSbyJBUAAAxzwe/4BaB4QRBGBCcxOmq31QG4KgAAD2aRPYStMG3kcQgEmF+AXpd6NmEwQFALDPU8MeUZBvIEEAJjY+5haN7DKEICgAgG26to7S5L4TCAJwAy/f8owCfPwJggIANO75xGR5s90v4BaiwiI0e+jDBEEBAG5ucMd+urV7IkEAbuTx+AcU07YLQVAAgPpZZNGLSTMJAnAzPl7eenXMXLbypgAA9Rvf8xbFdehJEIAbio+M1QNx4wmCAgD8Mz9vXz2XOJ0gADc2LzFZbQJbEQQFAPi/Hup/tzqGdiAIwI2F+ofopaRZBEEBAH7WKiBUs4Y8RBCAB7ir960aHjWQICgAgDR7yEMK9Q8mCMBDvDpmjvy8fQmCAgBPFh0WqQf730UQgAfp3KqjZg6ZShAUAHiy5xKT5evlQxCAh0keNFndWkcRBAUAnmhARB/dEZNEEIAH8vP2ZW0ACgA80Y1Ff/jHD3iuIZ366Z4+txMEBQCe5LYeIzQwMpYgAA/3QtITah0QRhAUAHgCHy9vzUtMJggAah0QphdGzCAICgA8wYP9Jiq6VUeCACBJuif2Dg3p1I8gKABwZ6H+wXpy6CMEAeAXFln06mjWBqAAwK3NHDxVrQJCCQLAP+nWJlrTB00iCAoA3FFkaLgeHnAPQQCo16whD/F4kAIAdzQ3YTq3+AA0yM/bV6+OfpYgKABwJ33De+rOXqMJAsBNJUTHa2KvMQRBAYC7YNEfALb63cjZCvUPIQgTYmF3/JPR3RJ4xcdB/+93C7Tx+LcEYVJ+3r5a8fD/UZdWnQjDDm0CW2leYrLe2LGYMLgDALPyZtEfh524fEZfnfiOIEysqrZaf9qxRFZZCcNOD8SNVzyrhVIAYOJ/xLHj1K1NNEE4YEHqR6qz8sNhdntyD2nTie8Jwk4WWfTqmDny8fImDAoAzCbYL0jPDJ9GEA7YfWG/0nMyCcJN/HX3Ul2rKCEIO8W07arH4h8gCAoAzCZ50GS1CWxFEHaqs9Zpwe6PCMKNFJYXa1HaMoJwwJNDH1an0AiCoADALDoEt9O0gfcRhAO+yNqm7KvnCMLNfH5sqzLzjhGEnQJ8/PXK6GcIggIAs3h2+DQF+PgThJ3Kayr0bsYqgnBDVln1xveLVVNXSxh2GtlliMbFjCIICgBcXa923XR3nzsIwgErDmzQ5bJCgnBTZwovaPmBzwjCAf82crZC/IIIggIAV/Zi0kx5WVj0x15Xyoq0PHM9Qbi5D/Z9qpziPIKwU/vgtpqbMJ0gKABwVUmdByshOp4gHPBuxkqVV1cQhJurrKnSWzvfJQgHTOk3Uf069CIICgBc7ou3eOmFpCcIwgGnr57X51nbCMJDpF7Yry2nfiAIu88xFv1hzFx5szYABQCu5d4+dyimbVeCcMCC1BTVWesIwoP8f7v+rpLK6wRhp97tu+uR/mwrTgGAywj0CdCzCY8RhAMycg9q1/m9BOFhrpQV6W3WBnDIM8OnKSKkPUFQAOAKHh/0gNoHtSEIO9VZrSz648HWH9usw/knCMLeCw7fAL1yy9MEQQFAS2sX1FrT4ycRhAO+PrFdxy+fJggPLoBv7lisWtYGsNvobgm6tXsiQVAA0JKeGTZNgb4BBGGnypoqvZOxkiA83MkrZ7Xq4BcE4YCXb3macw8FAC2lR9suur/vOIJwwOpDXyi/9DJBQO/v+Vh5JQUEYacOwe00ZzhzjygAaBEvjJghLwtfub0Ky4v10f51BAFJPy8B/dYPrA3giIcH3KM+7XsQBAUAzWl41ECN7DKUIBy64lut61VlBIFf/HBuj747vZsg7P3BsXhp/q1zuRChAKD5/tFZWPTHQeeKcvXZsc0EgX/xXz/+nWLogL7hPTU5bgJBUADQHCb2uo3bbg5alLaMWd+oV8H1K1qSzsRQR1itVkKgAMDZ/H38NIdFfxxy4OJRfX8mjSDQoDVHvlZWQTZB2OmpYY8qmN0CKQBwrkcH3McqXI5cociqv+5eShC4qTprnV7//m2WhrZTu6DWenLowwRBAYCztAkM0xODpxCEA7ac+kFHL50iCDTq+OXT+vTwVwRhp0cG3KturaMIggIAZ3hy6CPcZnNAVW213k5bThCw2ZL0lbp0/QpB2MHHy1svj36GICgAMFrX1lGaEncnQTjg08Nf6WLJJYKAzcqqy/VfP7xPEHYaHjVQY2NGEgQFAEZ6PjGZfbgdcK2iREv3rSEI2G37mVTtPJdBEHZ6MWmmAnz8CYICACMM6hjHxhsO+mDfpyqpLCUIOOQvO99TeXUFQdghMiRcM5irRAFA01lk0YtJMwnCATnFeVp7+GuCgMPySgv03p7VBGGn5EGT1Sk0giAoAGiKcT1HqV+HXgThgLfTlqm6roYg0CSrD23UyStnCcIOft6++t3IWQRBAUBT/hE9n5hMEA44nH9C32aztjuarrauVm98v1h1rHZnl1u7Jyqp82CCoADAEQ/1v1sdQzsQhJ1uLPpjFSdsGOPIpRNad3QTQdjp97c8LT9vX4KgAMAeYf4hmjVkKkE4YPvpVB3MyyIIGGpx2nJdLiskCDt0btVR0wbeRxAUANhj9tCHFOofQhB2qqmr1cK0ZQQBw5VWlen//PgBQdhp1pCHFB7cjiAoALBFdFikpva/myAcsPbIJuVcu0gQcIot2T9o1/l9BGGHQN8AvTBiBkFQAGCL5xKT5evlQxB2Kqm8rg/2fkIQcKq//PCuKmoqCcIOE3qN1qCOcQRBAcDN9I/orTtikgjCAR/uX6OiimKCgFPlFudTNO1kkUW/H/UUq5lSAHAzLybNkkUWgrBTXkmBPjn0JUGgWazI3KDTV88ThB16t++uqf0mEgQFAPW5vUeS4iNjCcIBi9OXq6q2miDQLGrqavXmjsW8amqnp4dNU5vAMIKgAODXfLy8NY9FfxySVZCtb07uJAg0q8y8LG04tpUg7BDqH6y5CdMJggKAX3uw30RFt+pIEA5g0R+0lEWpKSosv0YQdrgvdpz6hvckCAoAJCnEL0izhz5MEA7YeTZd+346QhBoEcWVpfrr7qUEYc+PlMWil295mrlOFABI0swhU9U6gOdi9qpl0R+4gK9PfK+M3IMEYYf+Eb11d5/bCIIC4NkiQ8P1yIB7CcIBG7K26mxhDkGgxf1pxxImodrphREzFeofTBAUAM81N2E6m2U44HpVmd7LYJ92uIYL1y7qw31rCMIObQLD9PSwaQRBAfBMseExurPXaIJwwLIDn+lqeRFBwKXG5NmiXIKww9R+ExXTtgtBUAA8z4sjnmAijAMuXb+iVQe/IAi4lKraav1pxxLeSLGDt5e3fj/qKYKgAHiW0d0SNDRqAEE44J2MVazFDpe076fD+ur4doKww9CoARrf8xaCoAB4Tutl0R/HnLpyVl8d/5Yg4LL+tvtDXasoIQg7/Oetzys6LJIgKADu74HYcerWJpogHPDX3R+qzsotVriuoopi/S31I4KwQ6BvgP7b7fPkZeGRKAXAjQX5Burp4Y8ShAN2X9iv9JxMgoDL+zLrWxaostPgjv30yID7CIIC4L5mDJ6itoGtCcJOddY6LdjNVRXMwSqr/rSTtQHsNTfhcXVtHUUQFAD30yG4naYNpOE6dEV1/DtlXz1HEDCNs4U5Wn5gPUHYwd/HT/952zyCoAC4n2eHT1OAjz9B2Km8pkJLMlYSBExn6b5PlXPtIkHYgS3RKQBup2e7brq7zx0E4YAVBzbo8vWrBAHTqaqt1p92vkMQaBY+ROCaXkqayQxXB1wpK9LyzPUEAdNKz8lU0jtTeHsF3AHwREmdByshOp4gHPDunlUqr64gCJgaP/6gAHjiF2Lx0gtJTxCEA05fPa8vsrYRBABQAMznnj63K6ZtV4JwwILUFNXW1RIEAFAAzCXAx19zhj9GEA7IyD2oXef3EgQAUADMZ/qgSWof3JYg7FRntbLoDwBQAMypXVBrTY+fRBAO+Obk9zp++TRBAAAFwHyeGTZNgb4BBGGnypoqLU5fQRAAQAEwn+5tOuu+2LEE4YDVh75QfullggAACoD5vDDiCXl7eROEnQrLi/XR/nUEAQAUAPMZHjVQo7oOJQgH/H3vx7peVUYQAEABMFn4FguL/jjoXFGuPjv6DUEAAAXAfO7sdav6tO9BEA5YlLZMNSz6AwAUALPx8/bVnAQW/XHEgYtH9f2ZNIIAAAqA+UwbeL8iQ8IJwk5WWfW33R8SBABQAMynTWCYnhg8hSAcsDX7Rx25dJIgAIACYD5PDn1EwX5BBGGnqtpqLUpdRhAAQAEwny6tOmly3J0E4YBPD3+liyWXCAIAKADm8/yIZPmw6I/diitLtXTfGoIAAAqA+QzqGKfbuo8gCAd8sPdTlVSWEgQAUADMxSKLXkyaSRAOyCnO09ojXxMEAFAAzGdczCj169CLIBzwdtoyVdVWEwQAUADMxc/bV3MTpxOEAw7nn9C32bsJAgAoAObzUP+7FRUWQRAO+NvupbLKShAAQAEwlzD/EM0aMpUgHPDdmVRl5mURBABQAMxn9tCHFOofQhB2qqmr1cLUFIIAAAqA+USFRejBfncRhAPWHtmknGsXCQIAKADm81xisvy8fQnCTqVVZfpg7ycEAQBO5EMEztE/orfGxowkCAd8tH+tiiqKCaIJAnz81b1NZ3Vv01lRYRHqFNZBd/e+nWAAGyQumUwBgONeTJoliywEYae8kgKtPvgFQdipXVBrJXUeosEd49Qvore6to6Wl4XxB9jj9NXzemPHYu4AwHG3dx+h+MhYgnDA4vTlLPpjA4ssGhgZqzHdEpTUZbB6tO1C4QSa6FpliQ560JtHFACjA/Xy1nMjkgnCAVkF2frm5E6CuInosEg90He87uw1RhEh7QkEMEh+6WUt2O1Zbx5RAAz2YL+J6tKqE0E44G+pH7HoTwOGdOqv5EGTlNRlCFf6gBMcuXRCRy6doADAMSF+QZo99GGCcMDOcxnam3uIIH5jdLcEzRoylX0kACcqqijWorTlHve5KQAGemLwg2odEEYQdqpl0Z9/0ad9D/1u5CwN6dSfMAAn23rqR49cd4QCYJDIkHA9OvA+gnDAhqytOluYQxCS2gS20vOJybqnzx3M4geayft7P/bIz00BMEjfDj3lZWFdJXuVVZfrvYzVBCFpfMwtenn009xFAprJppM7dL4oV4Xl1ygAcNyVskL5eHkThJ2WH1ivq+VFHp1BoG+A/mP0MyzUAzSzYVED9Ob3iz3281MADHKQXevsdun6Fa3I3ODRGUSGhOutifPVu313BgTQjCpqKvXJoS9VXlPhsRlwz9pAs9e9Sgh2eCdjlSpqKj328/eP6K0PpvyZH3+gBVhk0aaT33t0BhQAAx25dELfnt5FEDY4deWsvjr+rcd+/qTOg7X4/v+ldkGtGQxAC1h58HPll16mAMA4b3vgu6SO2HfxiOqsnrnoT0J0vP505x/YKRJoIYXl17TswGcenwMFwGAXrl3U2iObCKIRk/pOUMfQDh73uYd06q+3Js6Xv48fgwBoIe/v+VjXq8ooAAwF5wwu3Jyft6+e97A9E7q1idZbE+crwMefAQC0kLNFufrs2GaCoAA4x9XyIkqADcbFjNKAiD4e8VmD/YL01sT5CvEL4osHWtDC1BTV1tUSBAXAeTz99TZbWGTRSyNnecTmNvPHzGWTKKCF7fvpiHaeTScICoBzlVWX662d7xJEIwZE9NG4mFFu/RnHxYzS+J638GUDLcgqqxakfkgQFIDmsZ7nTDZ5fkSy286ID/UP1r+PeoovGWhh35zcqaOXThEEBaB51NTVav7mtwiiER1DO+iRAfe65Wd7augjvOsPtLCq2motTucVbQpAM/vu9G4duXSCIBoxc8hUtQl0r01wOgS305R+E/lygRb2yaEvlVdSQBAUgOZllVULdrPXfWNC/IL01NBH3eozTR80icV+gBZWVFGsD/evIQgKQMvYf/GIfji3hyAaMTlugrq1iXaLzxLkG6j7Y8fxpQIt7IO9n6ik8jpBUABazqK0ZR6/7W1jvL289eKImW7xWe7okaRA3wC+VKAF5bAyKwXAFZy+el4/nttLEI0Y1XWoEqLjTf85JvQczZcJtLCFactUw6I/FABX8G7GKl2rKCGIRryUNFNeFvMOzWC/IA3u1I8vEmhBmXlZ+u70boKgALiGS9evaP2xLQTRiJ7tuunePneY9vgHRvRh8h/Qgqyy6m+7lxIEBcC1pOxfq8LyawTRiDkJj5v2GXp/D9nfAHBV32bv1uF8Xr+mALiY0qoypexfRxCNaBfUWjMGTTHlsce07cIXCLSQqtpqLUrj1WsKgItac+RrFqWwwWPx9ysipL3pjrtjaAe+PKCFrD3ytXKL8wmCAuC6DXVJxgqCaESAj7/mJjxuuuMO8Q/mywNaQEllqT7Y+ylBUABc2zcnd+jE5TME0YiJvW9V3/CepjrmMP8QvjigBSzdt0bFlaUEQQFwbXVWqxbynKpRFln00siZpjrmUO4AAM0ur6RAnx7+iiAoAOaQduGA0nMyCaIRgzv20+3dR5jmeKtqqvnSgGb2TsYqVdXyb48CYCILU1N0+fpVgmjEvBEz5OvlY4pjLasu5wsDmtHJK2e16eR2gqAAmMvxy6e196fDBNGI6FYdNbX/3aY41gIKHdDsF1J1VitBUADMZ0n6SkKwwZNDHzLFBLvc4jy+LKCZZOQeVOqF/QRBATCnn0rytfrgFwTRiFD/ED059GGXP87sq+f5soBmYJVVC1OZTE0BMLml+9aoqKKYIBoxtf/d6tyqo0sf4+H843xRQDPYcuoHZRVkEwQFwNyKKoq1MvNzbc3+kTBuwsfLW/NGzHDpYzyYf5zZyICTVdfVaEk6C6pRANzEx4c2amBkLEE04rbuIzTEhbfbvV5Vpv0/HeGLApxo7WGW/KUAuJGKmkq9l7Fae3MPEUYjXkqaJS+LxWWPb3P2D3xJgJOUVpVp6b41BEEBcC8bj3+rtkGtCaIRseExmtjrNpc9vm+zd6m8uoIvCnCClP3rmDNFAXA/ddY6LUpbruyr5wijEXMTH1eAj79LHltZdbm+OL6NLwkwWMH1K/r40EaCoAC4p51n01VaVUYQjegQ3E6Pxz/gsse3/MB6JgMCBns3Y7UqaioJggLgvhbs/kh5pQUE0YjkQZPVPqiNSx5bfullrT3yNV8SYJAzhRe08fi3BEEBcG+H8o/rGO+3NirQN0BzEh536auVS9ev8EUBBliUukx11jqCoAC4v8Vpy1VYzkSXxtzT5w71atfNJY+trLpcf97xDl8S0EQHLh7VznMZBEEB8AzninL13ZndWpG5njBuNogtFr00cpbLHt/OcxnacorXAgFHWWXVgtSPCIIC4Fne37Na9/YZSxCNGB41UKO7DnfZ43tzx2Kdv/YTXxTggO2nU3U4/wRBUAA8y5WyIq1hIplN5iU9IW8vb5c8ttKqMv3Hpjd5uwOwU21drd5OW04QFADPtPzAel0pKyKIRnRrHaUpcXe67PGdKbyg//jmTV5hAuyw/tgW7p45iXfUvbGvEYNrq66rUWVtlSyyuPxOeC0trkMvrT+62WXfv79YcknHCk7pjh4j5eOidysAV1FWXa4/fPNnldewqiZ3ADy5BR/drC78+DeqdUCYZg15yKWPMe3CAb36zZssEgQ0YkXmBl0tLyIICoBnq6mr1dvpy3Ws4BRhNOLhAfeoU2iESx/j7gv79dzn/w+PdoAGXC0v0orMDQRBAYAkfZu9W3VWK0E0ws/bV8+PSHb54zyUf1yz1/2HTl45y5cG/Mb7ez5mQy0KAG6wyqqFqSnKKc4jjEaMjRmpgZGxLn+ceaUFenr9fH19YjtfGvAP56/9pPXHthAEBQC/tu+nwzpXmEsQjbDIot+NnCWLLC5/rOXVFXrt27/qv239L12rKOHLg8d7O225autqCYICgN9alJbCxBgb9OvQW+N6jjLN8W459YMe/fhFfZG1jUc98FiH809o++lUgqAAoD7ZV89r1/l9BGGDeYkz5Ofta5rjvVpepP+1faFmrn2Zlc/gkRakfiSrKMDNgXUATOr45dOaNvB+gmhEiH+wKmoqlJl3zFTHfaWsUF9kbdOpK2fVMSxCHYLb8WXC7e08l6GU/esIggKAm7leVaYAH3/FR/YljEbEdeilz7O2mXIFvrNFOdpwbIv2XzyqtkGtFd0q0hTzGgB71Vnr9Idv/qyiCnZApQCgUccKsjVj8BSCaISft6+C/QL1w7k9pv0MF0suadPJ77X55E5V1FSqY1gHBfsF8eXCbXxxfJs+z9pKEBQA2KKqtkrl1RVK7DyIMBrRu113fXcmVYXl10z9Oa5Vligj96A+PvSF0nMyda2iRMF+gWob2JovGaZVUVOpV7/5s8qqywmDAgBbHb98Wnf3vk0h/sGEcRNeFi9FhUVq08nv3eLzWCXll15Wek6m1h7ZpPVHN+v01fMqqbouP29fhQWEymLhUQHMYfmB9fr+bBpBNDNLwuJJTLc0ubt7367/fseLBGGDl778n0q9sN/tP2egT4C6t41Wt9adFd0qUp1CO+iu3rcxAOCS7vjgcV1nq2wKABy5urUoZer/Vq923QijEdlXz2v6p/+mOmsdYaBZRLfqqI8fWcDujw343z/+XR8f2kgQLfHbQQTmV2f9eYlgNC6mbRfd33ccQaDZzEtM5se/AbnF+Vp3ZBNBUADQFKkX9isj9yBB2ODZ4dMU5BtIEHC6/hG9dVuPEQTRgCXpK1RdV0MQFAA0FXcBbNM2sDWvT6JZvJg0k3UbGpBVkK0tp34gCAoAjPoHtfnUToKwwWMD71dkSDhBwGlu7Z7IQl2NXLCw5C8FAAZakr6ClbRs4O/jpzkJjxMEnMLby1vPJSYTRAN4ZEkBgBPkFufrm5M7CMIGE3uPUVyHngQBwz0QO07dWkcRRD2YtEwBgBN9sPdT7gLYwCKLfjdyNkHAUIG+AXp6+KME0YBNJ7fr5JWzBEEBgDMUVRTr40MbmWBjg/jIvrq9RxJBwDDT4yexNHMDqmqr9U7GKoKgAMCZVmZ+rsEd4wjCBvNGzJCfty9BoMnaBbXW44MeIIgGfHr4K+WVFBAEBQDOVFFTqff2rNae3EOE0YjosEhN7XcXQaDJnhk2TYE+AQRRj5LKUn24bw1BUADQHL44/q3aB7UhCBvMHvqwWgWEEgQc1q1NtO6LHUsQDVi6b62KK0sJggKA5lBbV6u305cz4cYGof7BemrYIwQBh81LTJY3S/7WK6+0QJ8e/pIgKABoTt+fSVNZdQVB2GBK3ER15dUtOGBQxziN7pZAEA14N2OVqmqrCYICgOa2MPUjQrCBj5e3XhgxgyBgF4ssejFpJkE04NSVs/r6xHaCoACgJRzMy9L2M6kEYYPR3RI0LGoAQcBmd8QkqV+HXgTRgEVpy1RnZclfCgBazOK05Sosv0YQNngxaaa8LGzggsb5sOTvTe3JPaRd5/cRBAUALelsUS53AWzUp30P3d3nDoJAox7sN1HRYZEEUQ+rWPKXAgCX8f6ej3WtooQgbDB3+GMK8PEnCDQo2C9Is4c+TBAN2HrqRx0rOEUQFAC4gstlhVpz5GuCsEH74LaaPmgSQaBBTwyeotYBYQRRj+q6Gi1JX0EQFAC4khWZG3SlrIggbDB90CS1D25LEPgXHYLb6dEB9xFEA9Yd+UY5xXkEQQGAK7leVaYP963RrvN7CaMRgT4Bmjv8MYLAv3h2+DT5+/gRRAPnmKX7PiEICgBcsp0f3aQuLHhjk7v73KE+7XsQBH4R07Yrk0RvYtmBz1RYznbkFAC4pJq6Wi1JW6Gjl5ig0+g/EAuLvOCfvZD0BK+JNuDy9atadfALgqAAwJVtzf5RnMNsMyxqAMu8QpI0PGqgkjoPJogGvLtntSpqKgmCAgBXduMdXSbq2HjVN2KGfNjoxbNPlhaLXkh6giAacKbwgjYe/5YgKAAwgz25h3S+6CeCsEHX1lGaEjeRIDzYhJ6jmQ9yE2+nLVdtXS1BUABgFovSlvFaoI2eGvaIQv2DCcID+Xn7am7CdIJoQGbeMe04m04QFACYyakrZ5V6YT9B2KBVQCgrv3moh/rfrcjQcIKoh1VWLdjNjqMUAJjSuxmrWCLYRlP73cXa7x4m1D9Es4ZMJYgGbD+TpkP5xwmCAgAzyist0Mbj27Tu6DeE0Qg/b1/NGzGDIDzIrCFTFeofQhD1qK2r1eK05QRBAYCZLd23Vrd3TyIIG9zeI0nxkX0JwgNEhobrof53E0QDNmRt1bmiXIKgAMDMSipLtezAZ/qOLYNt8ruRs2URCym4u7kJ0+Xn7UsQ9SivqdD7e1YTBAUA7uDTw1+qb/sYgrBBXIeemth7DEG4sf4RvXVnr9EE0YCVmZ/zBhEFAO6iqrZa7+5Zpcy8Y4RhgzkJj3N16K4nRotFL9/yNHd5GnC1vEjLD6wnCAoA3MnXJ7Yr2DeQIGwQGRKux+IfIAg3dF/sOPUN70kQDfj7nk9UVl1OEBQAuJM6q1WL0pbpTOEFwrDBjEGT1TawNUG4kVD/YBb9uYkL1y5q/bHNBEEBgDvadX4fz/ZsFOwXpGeHTyMINzIn4XG1CQwjiAa8nbZcNSz5SwGA+1qYmqKC61cIwgb39x2nmLZdCMIN9G7fXVPi7iSIBhy5dELfnd5NEBQAuLNjBaeUmZdFELb8I7J46cWkmQRhchZZ9PtRT8nLwmmxIQt2p8gqK0FQAODuFqctZ4lgG43oPJh94k1uQq/RGtQxjiAa8MO5Pdp/8QhBUADgCXKK8/TNqR36+NBGwrDBi0kz5e3lTRAmFOQbqBdY4rlBddY6LUpbRhAUAHiSD/Z+qgk9WfDGFj3adtH9seMIwoSeGvaIwoPbEUQDvjz+nU5fPU8QFAB4ksLya/r08Jf65uQOwrDBs8OnKdgviCBMpFvrKD0y4F6CaEBlTZXezVhFEBQAeKKVmZ9raKf+BGGDNoGt9MTgBwnCRP591FPy4dFNg1Yf2qhLvBFEAYBnKq+p0Pt7P1F6TiZh2GDawPsUGRpOECZwa/dEJXYeRBANuFZRopT9awmCAgBP9nnWVnUIaU8QNvDz9tW8RCaUuboAH3/9+8gnCeImPtj3qUqrygiCAgBPVltXq8Vpy3Xi8hnCsMG4nqPUr0NvgnBhMwZP4U7NTfxUkq91RzYRhBvzIQLYavuZVD3O5jc2sciiD6b8iSBgWkvSV6qqtpoguAMA/Gxh6kfKKykgCMCNHb98WptP7iQICgDwf2XmZen45dP6666lhAG4bdFnyV8KAFCPt9OXa8bgKQQBuKG0Cwd444cCANTvbGGOvj+brpT96wgDcCN1VqsWpqUQBAUAaNh7Gav0QN/xBAG4kW9O7uBNHwoAcHOXywq17ug32pi1jTAAN1BVW60lGSsIggIANG7Zgc80sutQggDcwJojX/OGDwUAsM31qjJ9uG+tfjy3lzAAEyupvK6lez8lCAoAYLt1RzapW5toggBMLOXAOhVXlhIEBQCwXXVdjZakr9CRSycIAzCh/NLL+vjQRoKgAAD223LqB3lb2E4VMKN3M1apsqaKICgAgP2ssmphaoouXLtIGICJZF89p69OfEcQFADAcRm5B5VbnEcQgIksTF2mOitL/lIAgCafTFJ0uayQIAAT2Jt7SLvO8wYPBQAwwMkrZ5Wec4AgABdnFUv+ggIAg72TsUpFFcUEAbiwbdm7dPTSKYKgAADGySsp0JfHv9PaI5sIA3BBNXW1Wpy2nCBAAYDxPty3Rnf0GEkQgAtad3STcpiwCwoAnKG4slQrMtfru9O7CQNwIderyvQBS/6CAgBn+vjQRvXt0JMgABeyInODCsuvEQQoAHCeqtpqvZexWgcuHiUMwAVcLivUyszPCQIUADjfVye2K9Q/hCAAF/DentUqr6kgCFAA4Hx11jotSkvRmcILhAG0oLOFOfoiaxtBgAKA5vPjub08cwRa2Nvpy1VbV0sQoACgeS1MTVF+6WWCAFpAZl6Wvj+TRhCgAKD5Hbl0UofzTxAE0CIF/CNCAAUALeft9OUsEQw0s+1nUnUwL4sgQAFAy8m5dlFbT/2oVQd5DQlwNqusqmXJX1AA4Cre3/ux7up9G0EAzi4AVqs+z9qqs0W5hAEKAFpeYfk1fXLoS206uYMwACepqatVRU2l3t/zMWGAAgDXsTLzcw3r1J8gAKcVgBqtOviFLpcVEgYoAHAd5TUV+vveT5Sek0kYgMEqaipVVl2uFZkbCAMUALieDVlbFRHSniAAA1llVU1drZbuXaPrVWUEAgoAXM+N2cnHL58mDMAgpZXXVVR+TeuObiIMUADgurafSVNVbTVBAAaVasmit9OXq4Ylf0EBgCuzyqoFuz/SxZJLhAE00bXKEp2/9pO+zd5NGKAAwPVl5h3TqStnCQJogoqaSvl6+WphaoqsshIIKAAwh0Vpy9ktEGiCkspSHczL0r6fDhMGKAAwjzOFF7TzXIY+2r+OMAAHfvwDfQO1KC2FMEABgPm8m7FaD/QdRxCAvQWg6rq2n96t7KvnCQMUAJhPwfUr2nBsiz7P2koYgB3/bkL8gvXuntWEAQoAzCtl/zrd0nUYQQA2qqip0vqjm5VfepkwQAGAeZVWlemj/eu081wGYQCNuHDtokL8gpRygLkzoADADaw7skkxbbsQBHATtXW1qrXWKWX/OpVUXicQUABgflW11VqSvlKH808QBtCAM4UXFODtpzVHviYMUADgPjaf3Clfbx+CAOpRVl2uAN8ALU5fzlLaoADAvVhl1cLUFJ2/9hNhAL9xrihX16vKtPnUTsIABQDuJz0nUxeL2SMA+LXLZYVqE9hKC1NTVGdlyV9QAOCmFqal6HJZIUEA/5BXUqDzRT8pPSeTMEABgPs6cfmMMnIOEgQg6fy1n9QprIMWprLkLygA8ABLMlaoqKKYIODxrpYVKT3noI5fPk0YoADA/eWVFOirE9t53QkeLasgW93aRGtJ+grCAAUAnuPDfWs0LmYUQcAj1dbVqqy6Ql+f2K6LJUyMBQUAHuRaRYlWZm7Qt6d3EQY8zoGLR9WjbWct3beGMEABgOdZfWij+nXoTRDwOD7ePlqZuUHXKkoIAxQAeJ7Kmiq9t2e19v10mDDgUSJDwrX60EaCAAUAnuvL49+pdUAYQcCjvLdntSprqggCFAB4rjprnZ7d8J8EAY8rvoCzWBIWT2JNSQBwEaH+wbpeVa5gvyCVVJYSCJyGbdcAwIWUVF7/x//kxx/OxSMAAAAoAAAAgAIAAAAoAAAAgAIAAAAoAAAAgAIAAAAoAAAAgAIAAAAoAAAAgAIAAAAoAAAAgAIAAAAoAAAAgAIAAAAoAAAAgAIAAAAoAAAAUAAAAAAFAAAAUAAAAAAFAAAAUAAAAAAFAAAAUAAAAAAFAAAAUAAAAAAFAAAAUAAAAAAFAAAAUAAAAAAFAAAAUAAAAAAFAAAAUAAAAKAAAAAACgAAAKAAAAAACgAAAKAAAAAACgAAAKAAAAAACgAAAKAAAAAACgAAAKAAAAAACgAAAKAAAAAACgAAAKAAAAAACgAAAPjF/z8AtV6uK8szrg8AAAAASUVORK5CYII=;" vertex="1" parent="1">
          <mxGeometry x="187.5" y="604.5" width="32.5" height="32.5" as="geometry" />
        </mxCell>
        <mxCell id="JX4TtDDn6b8yOE6emrvu-20" value="" style="shape=image;verticalLabelPosition=bottom;labelBackgroundColor=#ffffff;verticalAlign=top;aspect=fixed;imageAspect=0;image=data:image/png,iVBORw0KGgoAAAANSUhEUgAABLAAAAJ2CAIAAADAIuwLAAC0YElEQVR42uzddXRV17bH8dtSIwR3Ke4QiAARIkSwENydUtzd3aVIW1pKoVQoRUuLFSmlxd3dc+LEk+O211vnUOCE9r7bFigJfD9jjjfuX3e8G3ZO9u/Mteb8jwAAAAAAvJL+w48AAAAAAAiEAAAAAAACIQAAAACAQAgAAAAAIBACAAAAAAiEAAAAAAACIQAAAACAQAgAAAAAIBACAAAAAAiEAAAAAAACIQAAAACAQAgAAAAAIBACAAAAAAiEAAAAAAACIQAAAACAQAgAAAAAIBACAAAAAAiEAAAAAAACIQAAAACAQAgAAAAAIBACAAAAAAiEAAAAAAACIQAAAACAQAgAAAAABEIAAAAAAIEQAAAAAEAgBAAAAAAQCAEAAAAABEIAAAAAAIEQAAAAAEAgBAAAAAAQCAEAAAAABEIAAAAAAIEQAAAAAEAgBAAAAAAQCAEAAAAABEIAAAAAAIEQAAAAAEAgBAAAAAAQCAEAAAAABEIAAAAAAIEQAAAAAEAgBAAAAAAQCAEAAAAABEIAAAAAAIEQAAAAAEAgBAAAAAACIQAAAACAQAgAAAAAIBACAAAAAAiEAAAAAAACIQAAAACAQAgAAAAAIBACAAAAAAiEAAAAAAACIQAAAACAQAgAAAAAIBACAAAAAAiEAAAAAAACIQAAAACAQAgAAAAAIBACAAAAAAiEAAAAAAACIQAAAACAQAgAAAAAIBACAAAAAAiEAAAAAAACIQAAAACAQAgAAAAAIBACAAAAAAiEAAAAAEAgBAAAAAAQCAEAAAAABEIAAAAAAIEQAAAAAEAgBAAAAAAQCAEAAAAABEIAAAAAAIEQAAAAAEAgBAAAAAAQCAEAAAAABEIAAAAAAIEQAAAAAEAgBAAAAAAQCAEAAAAABEIAAAAAAIEQAAAAAEAgBAAAAAAQCAEAAAAABEIAAAAAAIEQAAAAAEAgBAAAAAAQCAEAAAAABEIAAAAAIBACAAAAAAiEAAAAAAACIQAAAACAQAgAAAAAIBACAAAAAAiEAAAAAAACIQAAAACAQAgAAAAAIBACAAAAAAiEAAAAAAACIQAAAACAQAgAAAAAIBACAAAAAAiEAAAAAAACIQAAAACAQAgAAAAAIBACAAAAAAiEAAAAAAACIQAAAACAQAgAAAAAIBACAAAAAAiEAAAAAAACIQAAAACAQAgAAAAABEIAAAAAAIEQAAAAAEAgBAAAAAAQCAEAAAAABEIAAAAAAIEQAAAAAEAgBAAAAAAQCAEAAAAABEIAAAAAAIEQAAAAAEAgBAAAAAAQCAEAAAAABEIAAAAAAIEQAAAAAEAgBAAAAAAQCAEAAAAABEIAAAAAAIEQAAAAAEAgBAAAAAAQCAEAAAAABEIAAAAAAIEQAAAAAEAgBAAAAAACIQAAAACAQAgAAJ4xRW+2puktCRpLVJopPNl0M8F0Pd5wMTZt7/XEvVfi9l6O2HchYt/5W/vP3tx/9vKvp48eOnr40JFDGev0qUN3bu6/e2d/pGpfbNTPyQl71Gm7TfoTiuWyUG4I5Z6wRgmRKBS1EBZ+5gAAAiEAAC8oAWpNpjtJ+gP3tBsvpn9yPGXqvqTB2xK6bYxs/uXZsI9/Dpi5IWDC5/VGfuA/cGpg7zHBPfs26tK7Uee2YW3bhLVp1bRN82atmv2hWjRv1aZ1i7atW/Ts0XRA39CJ4+rPmxW4Ylm9LRv8juz3u3etoSG1qaLvJgzDhGm+MH0jLIeFEiUUwiEAgEAIAMBzY0nRme8lG8/GaLdeTZm5P7H3lriGX0b5fnbLY+nZGnMOVpq8ruqwxdV7jarZ/n3X5p3cQlvVbBDqGlTfrV6Qe0CAh7+fh59PLV9ZdWr7/JXy9vL28fb29/MKDPAMCa7TpHGtNi3du3fxGNzffenC6ju/L3/9fOl4VTlzmoui9Ra6VopxhjDvFFbZRUyVWZV/LwAAgRAAgKdlTdDo999JW3YsceDWuOZromsti6q4KKLY3EuFJ+8oNvTj0j0mVWjfp2qzNi4NGrsGBrsHyODnXauuV626nrVl+dR5RiX/qzzr+Hh52lJiUKAtH3btVHPC6ErfrHz34vG8+gQna3p+RV1K6IKEob8wfSms9zhTCgAgEAIA4BjvFEuyznwzwXAiQrv1SvrKUynTf0ketzvhvc13en93vv83J+Zs3v3Rhg0bNq1YsXLx4qVTxk0Z337whEZ95nr2XuL63pe+HX7uGfJV8/rDqzfrVL1R85ohsgEou391a/k+w+z3F0uGQ9k/bFi/drs2rqOHV9r8bZHbF50Mye8o6lyKuoSicRWGIcK8TSjRJEMAAIEQAPCqUhRbDryv1v10I3XW/sQ+P8Q1/jKm9ie2Rl/p+ZdLzvixwogllXvKo549PVq0828eFhTWqGFYSHCjoMAG/r6BfrX9/Wr5Bbr7B3sENPT0axbo3dDPx7e2r9czbQA+VfOwjo9vXa/QRrX696725WclZCw0p7yupL+uqHMrmgqKroMwrROCc6QAQCAEAOBVYk03GM9Fq1edSui9Jdp9WVSlxZHF56kKzrqad/IvBYavLP7+8Iqt2rk0bOIaJI96+tvv+MlznnUyR8z7B1XXx7tBSO0ObV2Xf1jy6mlnU/Jr9liYQ1G/q+jChOlrocTKnwoPBgAQCAEAeGkpRrMlOk2z/kJivx9iA1dFlv1AVWBmePYpt50mnc415puivUdVaN25WuOGboG+Hn6eWTb+/T8NQxkL+/Ss/uOGwvHhb1nS/qOky3pb0ZRV9F2F+TehaOgWAgCBEACAly4KphvkEoiUyT/H+n8eWf4D2QxU5Zouo+C1HBO2Fhw4u3THDtUbNXIN9LfPfanz0kXBDN1Cb295iHT0sMqH9ubVxGWz2mKh7BY6K9qqimG0sJ4XiokHBgAIhAAAZH0WqyVeI7dByKOhMV7LI4rOCXeeJnPg3eyTrziP/65I33Hl27Sp0SDQPSBLnwj9B+VX16tjO9dPl5QMv/qO/QTpg1iYT9HWF+ZvhJJEqxAACIQAAGRViqKYo1LVX5+93/rbqMqLIwrOCneeKqPgvexTzuQas7pYr0GVW8hlgLIl6PWKRcHH+ww9vesH1xkyoOq+Hfm197PZM+F/FLUcRlpc0Q9TLBeEMPMgAQCBEACALEV2BSNS1WvO3W++RkZBVd4ZMgc+6ArKi4JyYEyfKs1kFPT9y4vgX+6SY0jlsJmVn5SIvPGOJfW1h7Ewv9CFCPNWdtkDAIEQAIAsw5qi0264GN/q28hyC1V5ZoQ7TXmQBi87j19TtHfvKk3lwJgXshswM5fcWyiHzUwcW/Hc0VzGpAeZ8DX7sJmqinG6Yo0WCgNIAYBACABAZo6CSTrt1mvxHdZHVVv6qCso65Lz+C2FBvSv3CysZnBduoL/ver5e/boUmPP1gLpMW9YHwwgVWdT1EUUfQ9hOSEEk2YAgEAIAEAmZLbqj6qShmyPqr5UlW+mKsfU38+IOk3el3/YmPJtmtcMoSv4l24Venm3a+361YriKZFv/p4JZatQnVNOmlHMe4TQ86wBAIEQAIBMw6oYr95Pnf1rdK1PIorMfXRA9I7T5KN5Rs0p00kulw94GTcKPtfjo3IpxYJZZW5fdDKnPLxSmP6OonURppVCSeBKIQAQCAEAyARhMN2g2XQpLvSriHfnhz/sCsq6kWPi6mLv96oSFuQe8MpOEH3K/fXBgXXGj6p441yOx5lQHh/VVBTGeUIkkgkBgEAIAMALo+hM+iOq+E7royottk2OeRgFbzlN2lFw8LCKLRu7BnJd8CkrwM9zQJ9qB/bk1Se+/rBPKK8UFlYMQ4X1ppzlynMIAARCAAD+5SyoWBO1qQsOxvquUOV7HAXldsFzOccuKdmtvUtDPw8/4twzqbo+Xu91q3F4Xx59wqNMKFuFBRR9V6HckT1ankcAIBACAPAvsWqMup3X49utiyg5PzzntEdp8GaOSZsL9e9bpVmIWz3vWpwRfZbl4+3dvo3rlu8Kq+Mebq63j5kR+vaK+YgQRh5LACAQAgDwfCkWqzkiNWXGL9Eey+QcUcfGoNw1v7hk1zYuDTgj+vzGzMhMuH1jobRH6yhsfUJnRdtAWE6zjgIACIQAADzPNKg3a7dete2aLzEv3NmxMTjxx0IDHzQGvWgMPud1FC2bu3+zsnhyxJuPM6EcPaoLFZZD9AkBgEAIAMBzYFXMqtTUhQej3T923DV/L/vkM7nGzi/VuS2NwX9x9GjzMA+5ojBJ5ZAJ1U6KNkRY5IpCLU8rABAIAQB4dkwWwxHV/bbfRZZeoHJoDN7NPnlrwYGDK7UIllslaAz+u2dHmzSq9cc+odD5CPM2OfuVZxYACIQAADwtxWq1JGjSlhyJ9fv8iRuD53KN+/Td99oxSvQF9gmbeqxeXiIpQyZ8S9F6CfN2oWh4egGAQAgAwFOwKqaLsUnDdkSWWuA4SlQ2Bn/LO3xs+TaNXANpDL7YPmFoo1prvyiWHJkhEwqttzDvkTc+eYQBgEAIAMDfJ3cMpuq1my/HBHweUXTuoygo66rzhLVF+nat1riehz+RLJPcJ1z1ybt/6BMGC8tBIQw8ywBAIAQA4O+lQUuSNmX2rzFuHzs2BmVdch4/r3Tn5jVC2DGYqTKh7BNuXFMkPfaNxzvr07MrukbCckoo7KIAAAIhAAB/MQyaLPpD4Qmd1suN847zY+5kn/xTgcGDK7YIcQvwJIZlvkzYuqX75m//kAm1MhMeoE/4VL8RBrP5TpJu/530ladSpv2SOGCrrJSp+5JWnwg/dPnEkRObNn3/ybLls2fNnTt3waeffrZt649nT31/P3qJSTNM0b+n6IcoxtnCtEFYzgqRIs9h8yMFQCAEAGTWd1+dWbvlcmzQKlW+GY6NwZtOE9cX7telemNfDxZLZN77hG1buf20paA6LlvGTNhAsZwRwszj/bfJO7Rno1PnH7jf6ttoj08iy30QUXxeRKHZdwvPPFBuwkdeA4c079W+VcfQ0GYhwY0C/IPrBYTUD2kc1qR5l05hE8f67txS/v69vJa0PIqmkKIuq2j9hGG4sOwXIl3+qvHTBUAgBABkpihoVSwRqSkz90dVXqzKPd1xmujZXGNnlOnQtGYwx0Qz/856mQl/WFdY45gJ1dkVfQdhOUcm/HtR8EZC6tzfYv0/jyw5P0LO180x1TZOyWny0TyjPijVpXP1xvXd6vnW8vOqU/dPw3mAn2ezMI9xIysd3JPX3rZ9TUl/U1HnVbQuwjBOWC7KXS78mAEQCAEAmSMNmiymq/cTemyWawYdG4Nymuiv+YaPK98m0J35MVmmT9ilQ80De/LpEl53yIS5hb6DYr3BecW/9OtgtBgOhyf23hJVfpHK4Q7tHSfbqelRFVrL4bp/8csRf1+v93u4bN1QWK6LfPjP8bqiLiz0XYTlEEd5ARAIAQCZ4vVXs/FiXOhXqoKzwp2mPnr9vZFj4ib7MVGmiWat8vH27t6lxv6djpnwNUWdU9F3F9arQlh45v//XwfttqtxYV9HFJnzoCv4KA2uK9KvZ9Wweu7+f+sObV0f7zYt3b5fWyTl8WoQ+c+RW9GF2o+PGvmZAyAQAgBe1MuvYknUqj87Ee32sSpPhkuDV5zHL3u3R1uXBhwTzaKZUDamDu7Nm7FPmFcxDBRWlTwfzLP/578QFqvsDca3WRshvxxxbJXbeoNDeldp6uvh98/atjKi7/mxgDrW8ShvDkXfWbGcFgpHeQEQCAEA/z6rYr6bnDR0e1SFRY7TROWlweO5R00u166RG0vns3DJxlT/3tXOHs5lTHrtcZ8wPb8wjFSsdzk7+sTvgty6abwWr9tzM77LBtvizYet8svO4+WlwR8KDRxWsWWge8BT/HN4yX+On7fnj7vztiHpYUpXFxSGocJy1D59lM4tAAIhAOBfY7TtlrC9+8pzcQ7HRG87TdpdYMigSi24NPgSlG9dr2GDqpw+lNuQ6Hh2tLAwDBPWiFe8TyiXSVgSNMYLMfK8dPKEPfEd18c2WB3j+endYrMv5hp/IO+INUV7zyzTUf4uvFe1SVuXhoF/86Ton9wn9PPs1N51SP+q0yZUWPVJib1bC1w9nSv2Tqn0+37GtBZW/RBhWirMP9mO9SoxtkmkdA4BAiEAAM+DVWPU/XglNnClqsBMx3Nxt3JMkrekulRr7PePzsVRmbDkUJOBfatdPJ7TlOzQJ1QXEcY5Qol7NZcfWJO0+gP30pYcSei5OabuZ3KsbkSxuap8My/lnfhT4aHLSvYYWaFVp2qNmtQMkiHQt5avT626z6pVLsfAys6tHEDasH7t5k09OrZ3Hdy/2tzplb9YXn7P1vKXT1dIia5sSfcU+laKfqgwfSjMO4XlulA0rKkACIQAADwLirAmaNI+PiovDYbnynBM9ELOcUtLdmtVoz6XBl++PuGoYZUvnXwiE75r25ZujXlF+oTycqB88g3HI1IXHYrvsD66zqdRZRfKi4L3nKdech6/J/+QZSV6DK7Uop1LQ3lS2t/D7985LO1Zx3ayN7CeLR+2au4u7xkOGVhl/qwKW9aXPn+8ZOydsvqk6lZNXUXXWjGMF+ZNwnpRKIl0DgECIQAA/zANWqLTksfsiqq4yHF8okyDp3KNkafj5F41r9qkwZew6vl7yYV44VezW1IdMqGmlDAuEMr9l7z7pAjTnST1N+cS+/0YU3eFXKwim4Hy0qycGnoi9+gvi/UaX75th+qNGtiWCvq+wOdfhkM5e+ZBPgwLrdW5Q83RwyqvXFbq+K/5U6Kcren5hKacovVV9H2E6XNhvSSEno80gEAIAMBfZrIaT0QmdN8UWXxeuNMUh0uDk/fnG96vcrPgpxiYQWWBTBjgOXl8hWtncjj0CV9XNCWEaY6wRr+EM2bknJgEjW7f7eSJe+XlwKjKSyIKzQ53nirnhZ7POW5rwUEzynTsXi20iWuQ3KqSCYcneXn6+Pl6yc5h+zZuMhluXFPk3mUnY9JbSnouRVNS0XoKQ39h3mo/98s0GoBACADA/89s1f92N67xl6qMw/Rlk2RrwYG9KzetW8uXyPTSV1C9OpPGVlRdfSdjn7C0vU+Y8DL1CS0JWs36C0kDt8khMbb7gbmmP5icdD7n2LVF+4wt30YeDQ1yD8gSp6Nl59CvrldYqIc897vz+4KJtgX38p8vm22Toaamoh9kX3Cv40MOIBACAPDnFLUxfcXJGJ/PVHmmP7FpUJ6Xa1mjPmnw1anAAM9RQyufOug4d/R1oSlmmzFjjcrqfUKrzmi8FJu6+HBcs2+iqiyJKDwn3L5PRU5LklNDP3q3e58qTcNqBgfIlmAWPBot5wPJOTSzp5aTq0R08fZ/PvUbtt2SWg/FOE9Y79AqBAiEAAA8kQXlCBlt2odHoqouVeXMMELmsvOERaW6tKgR4klMesVKHkQcOqDKhWM5HfYT/kfIPqFhtGLLhFmwT6goco2K6XJc6vwD98O+jiy3UJV7usreErzlNOm3vMMXl+zaq0rTRq6BPln/u4/goDpDB1Y9uDevNv5RpM9ma/MahgvrZdZLAgRCAAAesiqW8BR5ai6y/BMjZCYfs+2db99Q7p1nhMyruouiX69qv+3Kp3scKl5X1AUU237Cq/KEcVYKg3qz4VRkyqz9co1KZKkF4bINbr8ieyPHxF/yDZtTupNcoyKnJck2+Mvx3Yc8QSr/+Xp2q7F9Y6HUqDcc/vnyK/p+wnI+a/3zASAQAgCeD7PVeCE2se8PEUXmOu6dv+M06de8w4dXbMXe+Ve85DRLGSp2/VAwNfoNa9rvfUJFXVDRdxFWGSpMWSAKyq7gtfjUhQfjGn0pZ4eGP+yB33aadCzPqCUlu8mF8jIKvpRrVHy8vXv1cMkY6f+jaArbMqH1An1CgEAIAHil2XomB+7dlyNkCs/OsHfeadK2goN6Vm3iz955yp4J27d2W7Oy+P27b1lSH+0nzKXowmz70IU2U3/jEZ6SvvKU7YBomYWqPDMefOtxz2nyqdyjV5To2btKU9kA93lZuoL/7ejvgD7VDuzOp83Q5s1nGzNjvcJ9QoBACAB4NbOgIkfIaH+4Io/P2d6SHdLgNeeJ3xbtI4/P+TBChnq828C7WZjHvJllb15wMj5eR5Fd0dYRps8y5zoKa4pet+N6Qo9NUdWWPnrI79mGJE3YVKj/iIqtmtYMfkXmJMlMOGxQlZMHchuTHPqEajkiaJyw3nrJ10sCBEIAAP6YBuW7cvryE9HuH4fnyjBCRr4rryjes0XNEJ9aXBqknryTFhxYZ8TgKj9vK6C5n+1hrnhTUZcRhsHCckYohszygFuspuvxKVP3xXgtty0VfHgzVjYGj+QZOa90Z7lMIsDD75WakyTHxo4bWenC8Zzm1IzrJY1zhTWGTAgQCAEAr0wYlCNkotNSZ/8WXXVJxhEyU87mGju3dCc5bZ+BotT/02tq38b1ow9KXTyR8+G1tNdsc0p0gYpphVDuCeWF3iqUX3ZojNofr8R3WCfPiIY7jMy9nmPihsL9BldqIc+Ier9633d42tZLes6aWv7GuRyWDJmwkjB9JEQ8n40AgRAA8AqwKuaI1KThOyPKLFBlHCh6KtfoaWU7hLgHkAap/3l8tH5wnT7vV/9mZXGZLh6eQnzL1irUt1dM3wolRjbpXsgDbolNT192LNbv84iCsx4MEX1QctH88hLvdazeyO8Vaww+kQkbN6wtw3zEtXcezwdKf0PI/YSm74RQ8wEJEAgBAC8zxWQxnI5KeG9zRPF5GQeKTpbLuAdWah7sXo+0Q/3VSTPe3k0a1+rZzWXR3DJyYEnEtey6hDes6TkUTQWha6QY5wvrAVsy/FfGkCpmqyVWrd16NaHnZrloXm4XfPBs33WafCbXGNkYHF6hZRPXIA5Ce3n6hIXW+mpF8YTwtxwy4dtCV0+YtwpFy+ckQCAEALykaVCulzgXE9f064iMA0VlGtydf0j/ys19PRghQ/3t8vb0lhcL27ZyGzmkyieLS+3ZWiDienZTytuKuojQuim6ropxnrDsE8r95zTNUq6UMN9KVK86ldBrS7THMpVsDNpb33dt1wVHrS7Wa2SFVq1q1Pd/hRuDT2bCOj4d27r+uL5wWvQbDgNmsiu6lsJylKGjAIEQAPAypkGtUfv95biQL1R5MwwUlSu51xfp17l6Y1/WS1BPN2/Gr66XPEfaspl7t841Rg6tvPzDkts3Fz57pPjdK2USImoYUv0UfXdFzi8xbxaWk8J6WyjJ/2QxupyOqzfLc6HGS3G6PTfTFh+O77xBHhCNrLDoVuEZ5/KMk73uHwoN/LBkt6EVW8oDoqGuQTIKetVmQtKTywk7tXfd/WPBDMsJ0/Mo+h7CeoZMCBAIAQAvFavaqFl/QY5bVOWa/kQaXF3s/Q7VG3kzUJR6puFQ7i1sEFK7eZhHl441hwyoOmVCxaULyn69suKO72sc+9Xj5qWQhOg2+tQ+Js0Ys+5Ts36L2XhQbo63WFKsVoPVarKXxWoxKxY5LdRiSdWbbifpjoarv7+UvORQwvhdsT03RYWuvlF7yemK03eVGLG2eL+P3u0+vWwHuUnivaphsh/YwK2e70u9WvAZZEIv72EDq5466LiIQg4HKiiMY4T1Dh+bAIEQAPBSkBMXE7WpCw5Gu33smAblQNELOcctLdmtec0Q0iD1XG+s+db1qufvGRJUR44zkZsM27Ry69ShVo+unr17+owY6jNxXND82fU/XtJ42dLmX65svWFt+03rBm5aP3rzxrkbls1cv2jamp7Tvm45ZXWTCR81HLEwcNBc7z4Tancb7t6+V83msrPdvnrDljXqy7m4DdwCA90DZDPQhxz4l0v+u4wfVeni8ZyPh46q5dDRMsI4RyhRLKIACIQAgCxOrpeITE2d81tUhUVPrJeQYzYWlOrS2DWIV2fqxR5clEssAuvZ4qI8btqoQe0mjWuHhfqGNQkICw0Jqx8cGhjYuFZgY9fARq6B9d3qBbsHBNlTn7zv6sUXGc+igoPqLJxd5u7l7A6LKLIpmirCtEqIVD5EAQIhACDLsi/mThq2I6LUfMfh+3ezTz6ae9SEcm3lmTrSIEVxvje0Ua1Pl5aMufW2w4CZNxWttzBvECKdj1KAQAgAyILMVtOluMReWyJLzH9ioOj+fMNGVWgd6O7PqzBFUQ8yYesWbuu+KpqoetNhEYUcOtpAMf8sl9XwgQoQCAEAWYrRYjiiim+91rZeIuOywT35h/SqEhbgQRqkKMphd4iXd+f2NbdvKqSOdVxEkUPRd1Qsx8mEAIEQAJBFyBEyaoNu981YuV4i/0zH3uBNJ9t6iZ5Vm9StxbJBiqL+5D5n757V9+/Mp3VcRKHOr+j7CutFeSOZz1eAQAgAyPR5UGPUrD0f47dClTvDeonrOSZ+V6RvW5cGpEGKov5b+ft5DR9U5eRvTyyiKCyM44Vyj6GjAIEQAJCZs6CwJmjTV5yIdn1yvcSlnOM+KdGjdY36TGWkKOp/LKII8Jw8rqJcRGFKfu1xJtSUVQwzhRLBBy1AIAQAZMowKE+KJulSZ+yPdvnwifUS53OOW1yqa6hrkFdt0iBFUf+75P6PmZPLXz+bw2HATDZFXVGYlgslmc9bgEAIAMhkLIrxWnzS6J8iSy9wTINyvcSxPKMmlWvX0C2Q9RIURf31oaMhwXU+mFPmzqXs5pRHfcI3FE1NYfpUKPf50AUIhACAzJMG5bLBhIT3v48oPtfx0uBdp8mH8o4cXaG13OLNCy5FUX+3mjSu9eHC0uFX33k8YCZdLid0F6bV9AkBAiEAIFNQDGbdvtvxbb9TyfUSjgNFc0zaVnBg78pN67FegqKof1Renj4N69deMr/0vcuOfcK3ZJ9QsfUJ4/kEBgiEAIAXFwVt6yWM2p3Xbesl8mVYL3Ejx8TNhft3rRbKQFGKop6+Tygz4Z2LTpbU/zw+O6r1UEyrhJLA3FGAQAgAeDFxUI6QSf/sRKzXclWeGY4jZC47T/jk3R7tXBr6kAYpinpGfcKZk8tdOun8eO6o+m1FW1MxLhbWSDIhQCAEAPy7rIo5IjVl1q9R1ZeqnKc5jpA5lXv0B6W6NnENZqAoRVHPsBoE154+scKlE46Z8E1FU0UxzrPvoiATAgRCAMC/QjFZTJfiEgdtiyg1P8NAUdsImREjK7RioChFUc9l7mhQnTEjKp34NY8h8XWHuaNlhVHuJwyX31Tx+QwQCAEAzzMKymOiGqP+1zvxrb+NKDb3iUuDWwoNGFipeYCHH2+uFEU9pwoM8Bw1tPLxDJnwdfvO+rHCeo1MCBAIAQDPMQ5aknXpn5+MDV7lOELGfmlw/JfFerWv3tCPNEhR1L+SCU/8ltuY9CgTZhOaYsIwRlhvkgkBAiEA4DmEQbPVfCMhZdq+qGpLVbmnP0qDd5wmHckzcmaZji1qhnjV4tIgRVH/UiYcPazyyQOOmfA1RV1SGKcI5R73CQECIQDgmaZBg9lwPCKh28bIUgtUDpcGbztN+qnA4GEVW4W41+PSIEVR/2YFB9aZNrHCtTPOltRHM2ayKZrywrjUvosCAIEQAPD0rIolTi2PicaFfBFRaLbjMdELOcd9Xrxnl2qN/TkmSlHUi5gxUz+4jtxPqLr6jjXNYT+hxl2YvhZKKp/fAIEQAPB0LFbT7aTkCXtsuyVyTXecJno0zyh5TLRpzWBvjolSFPXiqk1L981ri6TFvPEwENr3E+pCheUQlwkBAiEA4J9ShDVZp/3+clyTryPffbxb4sH8mA2F+/Wq0jTYPYBjohRFvdjy8fYe2Lfa6UO5HZqEMhPmF8bx9uWEAAiEAIC/GwbNFsu95NQ5v0XX+dRxfoxt6XyuMXNKd2rr0sCnli9vohRFZYoBM/U8v/uymC7h9ceBUC6i0NVTzHvlxxkf6QCBEADw17OgsKbodduvxbf9LrLMQlXOaY8ag1dzTFhbpO+Ays1D3OoxTZSiqEx1mXDG5PKqa+84BML/KHILhXGZUDR8rgMEQgDAX2OyyBuDcrFEjPfyCIc1g7ftiyUWlurSpkaDujQGKYrKfDVsUJXLJ50zBML0txXDVKGk8NEOEAgBAP+LoliTdJpvz99vvTay5Pzwx43ByXKU6NdFe/euEtZANgZr0xikKCozltxTf+1MjoyB0FkYZjNrFCAQAgD+VxRUGwxHVMkjf4p2/ViVd8ajM6I3ckzcm3/opHLtW9aoz41BiqIy81yZjz4olRD+ZsYjo9UU03dCGPiYBwiEAID/EgbNtq0SqYsPx9ZbGVFs7qNRonKrxPHcoz56t7vcMRhoGyVKY5CiqExaXp7ePbu5HNqb15zymsOU0RzC0F9Yr9suRgMgEAIAnmSxmqPSNOsu3G/zXVTFRY+Gx8g5omdzjl1TtE//ys0auwaxY5CiqExezcM81qwqlqhybA++oWhDhHkP7UGAQAgAeJIiz4imG3S7byb2/zHK5cNweUbU6ffG4PUcE38oNGBMhdYtaoQwPIaiqMxffnW95s0oe+9ydkvqo/bga4q6ojB9KpQkPvABAiEAwCEKWhVLkk63/3bS6J9iPD9VFZnzIArK64JXnCfsKDB4Url27VwaBnj4s26eoqgscXVw6ICqJ3/LY0xy2ECozqsYxgklXAgrH/sAgRAA8DANGi3GC7Ep036J8V3heF1QrpT4Nd/wuaU7da7WuJ67P9cFKYrKKtWutduP6wunx7zhcFj0LUXXXFiOyGPxfOwDBEIAwIMhokbDsYjU2b/G+n8eWWpBuPPvXcFrzhP25B8yp3QnOTlG7prnuiBFUVmoQoLqfLKkVMytt61p/3l8WFRTWzGtF0o6n/0AgRAAIBStLQomT/8lrsHqCLld0On3RfM3ckz6Of/QeaU7d68aGmwbIsrLJUVRWeqwqJe33ER/5nAuU4bJonkUwxShxDJZFCAQAsCrzapYEzRybIztrqD3chkFVbmnP9gyfzHnODk2ZmrZDvKuYH26ghRFZc1q1dz9x/WF1HHZHA6LvqnomgnLUaFwWBQgEALAK8tstcaptVuvJg7ZFuvzme2uoH1szB0nWxRcV6SvHBvT3qWhXC3ICyVFUVm06vp4z5xc/u7l7BnX0JdTjHKyaAp/BwACIQC8kgwW4/mY9FWn4jusi3b7OKLoHJWzbbXgzRyTDuQdsbzEe0MqtWheMyTQ3d+LsTEURWXl6tjOddcPBXXxDpNF019X9N2F9SqTRQECIQC8YmRLMEFjOHhPzoyJa/J1ZNUlqrwz7tlbghdyjttZYPDc0p17V2ka6hrky15BiqKyfvn6eM2ZXi78SnaHWTLy9mBRYVohFB1/EwACIQC8Mgxm8/UE9VdnEvr+IJcK2saHyouCTlNu5Zh0KO/IVcXeH1WhtbwoKMeHsmKeoqiXpsJCPbZuKKRPzNge1IUpluPMkgEIhADwslMURW82R6Tq9txMnrQ3ruk3UdWXqgrNki3BW06TTucas7XgwJllOsqWYNOawf4efowPpSjqJavhg6tcPuWc4fZgej5hnCaUOP5EAARCAHiJo6BQUg36I+FpSw7Hd90YXeuTiBLzZEvwntOUK84TdhUYvOzdHoMrtWjr0iDIPcCnli9RkKKol6/8/Tw/XlTq/t23Mo6TqayY1glh5A8FQCAEgJeOvCKYqDWcjlJ/cTqh+6bYgM8jy3+gKjDrTo4p8orgL/mGrSjeUx4N7VS9UWP7LUFyIEVRL3E1b+rxw7rCmvvZMgRCXajgvChAIASAl4o8GqozGy/Fpa88mTR0e1zQqqjKi1X5ZoQ7T72RY+KveYd/Xrzn+HJtu1YNldNi/Dz8GBxKUdSrUD261jiyL6859bUMgVA/QFhV/N0ACIQAkPWZrZY4teFkpMyBib22xMocWGWJXCBxJ6etH7g3/9DP7f3ALtUaN3ENricXSLBWnqKoV6Y86/iMGlb56uknLhC+rRjnCKHmDwhAIASALEv2A9VGwxFV2qfHEvv/GFv/C9kPjCgw616OqVedJ+zJP1TeD7T1A6uFNrH3Az3pB1IU9eqVt6f3rCnlVdfeyRAI1QWE6TOhGPhLAhAIASBLJUCDxRKdLpuBmvUXkkbvut9yjW11RMVFt4vMPJPP1gz8pmgfOS+0b5Wm7V0aNnYNpB9IUdSrHgi9vD/8oHRCeMaJMuoKtokyiok/LACBEAAyN4tVMZitKXrD2WjNt+dTpu1L6Lk5NuSLyBpL7xSbdTn3RDkhZk3RPnKP/IiKrbpVC21WMyTQPSArXg6UL22+db3rym/z6/AKS1HUs1xJv+aL4vqE1zMEQq23sOyRn7D8kQEIhACQGUOgJUlrvByn23tLveJE0uif7rf6NqbuZxHVllwpM/NIifFbiw6W1wInl2vfr3KzDtUbyRAo98jL/YHeWbAZKONfgL9nv17VP/qglBwDuHp5CTn+wcfbm7dYispCJb/KqR9cp0VTj07ta77Xtcb73V3e71aje2uPdn5+Td2C5AeU3Grzov5/a9HM/eft+a1pju3BNxV9R2G9wIhRgEAIAJmAXBVotCgao+W+2nguWrPxYurc3xL7/RjXYk1k3U9vVVlwseS0/YVGfFu0z8JSXcaWbyNDYPvqjZrUtI2H8c7ix0Fl8GvfxnXlJyXOH8spV4Rp4rIlhr+1/4dCncPq8IZNUZn8l7degGerFu7DBlZZNLfMt18U27ax6C87ih/9pcKZo/VO/dDh8Ngu+xp22Vbp/Q1F+35dtPeyd7tPK9uhb+VmYa7B/+aIY3mBcOzwStfO5HjyAqGcKKMk8PcHIBACwIsKgYqiN1siUg3HIjSbL6UtPZI0bIdMgDG+K+7VXHKmwvS9pUevKzXw41I9JpRrKxNgx+qNmtcMqe9WL8DDr65tbWCWvxYoG4PybXL08MqHf86bqHrTlGIfB5/6mulGrsgJ/p/VaO/N1UeKypS/ucGBdfr0rD5/Vtnvvyt88kDu2xec4u44pcSU1yS20qdNNem+NxtPmFOv6M5fTF72c3S7r+6Un38916TLzuPP5BpzKO+IHwsNXFqym/xYa+BW71+44dw01GPdV0VTo95wDIRCGywsvwrFzN8igEAIAP9K+rPa4p+SqrdEpRkvxGp/uJL2waHEQdvud1gXGfL5zVqLL1SZfaDM+HXF+y8u2XViuXYDKzWXtwFb1qjfyDUwwMP/5YtG8p2yUYPai+aWvnomhyHx94s91uTXDYeLJg4IVZUd9luBYc1r1Oflm6IyT/n5erVq7j5tYoXv1xY5fzRn9M231bFvmlPz2i7jGcYK8ybFck4oMULoH5zDVOQ6nHiN8Wy0es25pP5bY9w+jsg/M9xpyh2nyRdzjt+fb5hsG44p36ZFjRDfWnIG8vNqY06bUOHmeSfL4w2ErymakopxEe1BgEAIAM87BSqK1mS+nWQ4HK5ZdyF14cGk4Tvvt14b7f/5HdfFJytN31Vm5LdlB3xYtsfk8u36V27WqXpj+WLUwNYD9Jc9wJe4P+bl6S2Pma1ZVSzqxtvmlN/f0qzxb+h2lI0L7RRRdPQ9p8nnco4dXKklr+AUlSlOh3p5d2zrumR+6d925VNdzZ4e+4b9NzeXog0RxoWK5ZBQooWiFcL6J5+EFqs13WC+k6T76UbKpL0xfitUBWaFZ59y12ny9RwTj+ce9X2hAbPKdJSHIOQt6Gd+rVFeTpZnEB5962Q/LJpPGIYK5bpQGCcDEAgB4NllP2GyWGUDMDrddC1ev/9O+urTKVN+Tui9JbrFN7eDPr1Ya8HRqtN2VBy1qnSfeWW6jKjQSl6k6WxPgI3cAgPd/V/guIV/syvo7+clo+D0iRV+2ZFfHhO1zXhIe816P6fhYPGUKQGx/u+p8kyQb4qyruaYMK90J06NUtQLvygof2flFcGDe/PKlqA+8XXbr606p6INVowLheWIUOKFMP+VD0nbIfnIVMOhcHk+Iq7ZN5FlFqpyTb+Xfcotp0mnc43ZWWDwhyW796rSVB6Mfya/+HV9vAb1q7pvR/60mDce9wbVhRR9P2E5LYSRP1wAgRAAnjoGGsxmeQnwqEq7+VL6h0eTxuxK6LYpruFqlefHF2rM3Vtx7Pqygz4q13NG+U7DKrXqUbVJG5cGchJMsHuAr4evTICvznpAGQUDAzzlpaPlH5bcvzNfxLV3dLb579lsB7fUrYwnx95v1jey5AhVzkkP0mC4/R1xTZHeMirzRk5RL6rk1NBxIyvt/rFA1M23DQ+ioIxVmqrCMFpYDgol8W8v8ZPfnclzpAka4/kY9RenEnp+H1lpcbjzNPkrL8+RXso5Xi7RWVX8/WEVW4a6Bj1NLAwK9BwzovKhvXllM/PhcNHXFU05YZgorBeFYBk9QCAEgL/7EiPXwcdrzHeTjedidLtvpK84kTx+d3y3jZHNvrwR9MkZz/kHXKb+WHnU5xX6zi7fWb7N9KnctHO1Rg8uAdoToJ9X7Veu2eXl6dMgpHbP7i4LZ5fZ/UOBSyec4++9rU/IIV/LFF0jxTBDMe8Upoumi1di/T59FAUf1N3skw/kHdGyRggv5f//5sa67Oegnsd1wbpecnXE2tXFbpxz0tzP9numUhcUutbCvFEoqqfssMlr1fJIhel6gm77teSJe2IDV0aUmKfKOU2eI73qPOFwnpHfF+o/u0ynrtVCQ9wC/vp3Zw9GVb3XzWX1ZyWunnbW3s9mj4JvKOqiiq69MH8nrOFsogcIhADwV0OgvPdiunpf/8sd9ZdnUuf8mjR4W3z7ddFBK2/XWXq8xsytFUeuLtP3g3LdJlVoP7ByC/ni0rpGA/mtdpB7gI/9BqB8ifF8Vd8m5WGtdm3cZk0tv/GbInKfROxtmQOzWdLyKbrGimGSMG8W1vP2k2Ym+WJoiVcnDdkenmPqE5nwkvP40RVa82r+/1Sblm4d2rrKl2B+FNQzrKB6nnJyjGyvJUW8+XAWi+znV1YMkxXLSSHUz2x3n/yvMVjM0WnyonX68uOJ72+Jqv6hKrftHOltp0nyIvHu/EOWl3hvZIVWTWuG/M+GYT1/+zGEpSWP7c+TEP6mvOVoTXtdURcTurbCtMK2clBRs3UQIBACwJ8EP2G0WJN05nu27p/+l9tqef1v1n55/S+m1Zqb9Zef9V100GPGdpexX1YdNL9y97GV28runxwBKs9/Nq0ZLGfAyGONL8ceiKcfFdO4Ya33e7h8MKfMtk2Fzh3NFXk9e1pMLkt6BXsOnCHM2+3vZDH24ROPX8vkyVvdrhsRRec+EQjlqdGNhftzavS/lbyQKYfpDxlQVXZi+WlQz2oKS68eLrIxePuikzzXbW8MvmZrDOq7CPOPQomyfYnzPD6G5R3sFL3pZqLhwL30laeSBmyNq/9FdM2PwistulZl3snqM/d4TV0dNmFGrzF9e/Zr17Zj82atmzVt2bxZq9at2nfr2m3k8A6fLA3avdX98umq8eEVDcnVrBofoe+kGBYIeQzBelUoKXK4DX/uAAIhALKfolischK6ojfJSyymy3H63TfTV55MnvFLwtBtsV3WRzZYdbPuR0fcZmyrNnpF+d4LynSdVL790IfX/8Lk9T832/U/2ffz5N3RIQfWs98PXDi77NYNhc4dkf1AeUXwHWt6UUXbQhhnymH0wnrO1g+0rfxS/vTfRW7jiAv7OtwpQ5NQdglO5hrdt0ozftp/8mOv4z1yaOV7l7OPGlpZ/hPwA6GevhrWrz1lfAU5kzM58lFjUN67qy6Ms2wtfaH7Nz6lrbajGbav505F6XZc12y4qFkv64Jm69Xkw7cir9y5dOHywQOH9uzeu3v3Hlm//nrgzJlTt28dTYjbZtSuU0xrFdN3wrxDWI4J6w2hJP2lgTcACIQAXlry3UJtNEelma7cl6PttN9fTvv4qLz7d/+9TeFNVl0O+ehY3Xk/e0zZ6DJyRfX+c6p1H161da+q8u5f49YutsOf9e3dPz8PP2Zd/vGijtxI1rqF+9CBVeScmL3bClw7kyPmdnZ1XAFTmrui7yxMS4V5j2K5IpT7QvyXYfSOkVBnUq89L6cOPtEkvJFj4pqijJb5k2oe5nH0lzzyxX3UMAIh9bQV4OfVu2f1zWuL3L3s2BgsoujfE5Zt9tWC5n//09u2u1Vjkp/hsuRHhJxGYzvJb7UajUadTq/V6mQZDHK0l1mR1wLluQN5ItR2KFRjnxlj5Q8gQCAE8AqR7wjyxJFc+qeoDXL0i4x/uj031V+dSZl/IH7k9qieG1Stv7oe/Mkxrznb3cd/VX3w4krvTSnbXt5L6VOlqX33Q/1Hd/94Nfz/R5jIWzotm7lPGF3xy89K7N+Z/9oZ50RVTkNyAaH1EoYBivEzxbxHKDdsB7T+1o4v2bgNT07oufmPTUI5j35wpRacyM3wD+HpvWxxKXVcNjlPn0BIPeXkp2ZNPBbMLivv3aVGPxrI+bai9RGmhcJ6SX5bw707AARCAJkvAcoLJ8ny1l+Kbebnz7dsa9+XHk4eu/v++5vvtlx9vsGHh/zm/lRnyneuIz516TfbpfuI6u36VGvepVpjx4t/cgmyvPvnRdL4S5cDa8tDofNmlN20psjpg7nvXXFKisilT6ps0TQRtiEx64T1lLDeE0qqffbgP3l9lDcJ9b/ejayw6IkmoZwtsaXQgBaMG3Voz8pbXvKKl3x318Znk+GcQEj9swoOrDNicJVtGwuprr2jf7xVQu5mGKSYf7a39zlvCYBACOCFZT7buip5TEhJN1gTtRb7sU/bwM9vziYvOhg3dmdkv013uqy52nzFyeBFu7ynrq018sOafWZW6zq2YttBlVr0rBLWsXqj5jVCGttbf74Mffn7zUC5ObBZmMeIIVU+XVpy15aC547mjr6ZKz22sFVdXdH3EMbFtiET1jPCGmPvITwDMuSnzvglovCcJ5qEctzokpJdZYDn3+XBajh5V9OYZLviJS96zZ5WjkBI/YPhMR3bua746N2Lx3M+3tSnlnOAQxXTF8J6k019AAiEAP51FkVOmft91Of+O5rvL8txL6nzDySM3qnque5S6xWHGy/aHTRrk8/41bWGLanZZ0aNbqNqtO9Ts0UXl9C2Lg2b1Qx51Pezr32vS+vvn24OrCMbULOmlP/uy2JHfskrO1EJ4Tl0iRVN6Y2FYaRiXCWsh4VyW4hkIfTP+KKOxWq6Hp/Ya8sfdxIezz1qaMWWXOaUNXNyebkMwH6uz1byDqePF4GQ+hsd5tBGtWZNLXdgd777d98yJduHx6jfUrTuimGWYjlhH8jJBTwABEIAz4FtvKfaKMd7WiLT5D5i48lI3a6bcpRI6idHY6fvvjts87U+357tvPJQqw93hs5eGzT+M9/hC7z6TqndXQa/gVVbvFe1SafqjVrVqB9mO/MZKPt+fq/ktvfn0QwMCaojN9rJeZWyGbhna4GzR3JHXM+XGvOuOc1D0fUQpsXCsl1YTgslUijpz/VCkWK0GI6q4hqsDneelvHg6OQdBQbLZ+AVf5Xv1N71/NGcDy962WrLusK+cuYoTzL1F56foHp1Rgyp/P13he9eyq5/MDxG/aaiKWu7ACy3wryQ4TEACIT8CICXPARaf1/vLhfNpX9+MmX6L4kDtt5vszY25Is7fp+cqDt/q/fE1Z7DF3r0HufaaaBr6+5uzTq5NWnj2rCZa0gj18Bg94AHHb+6D1a9167LBoJneDOwUYPa/XtXmz+z7IZvisqRlfZmYE55M9CsbqUYJgjzN4rlkLDeFkqyvOH3rzUNrBqjduvVWJ/PnugTXs8xcXOh/s1rvrqXCeVk183fFtHFv/4oDco6uam4f106hNT/KB9v757da6z6tMTlk85yFtHvWyXUBRRdG2FeI6y3GB4DgEAI4NmxHf7UGa/e1267mjrnt8Se38c1+TrGa7mqyuJrZWcfKzVh87uDPijdVQ75fL9KWDu53881WC54CPDw97Hd9OPV7fnuighrXKt7lxpTx1dYs6rYr7vyXTqRK+pWodTYKqa0IMUwTJhWCotcFyHXx0cLoX4xJ8fkZPlUvXbLlRjv5aqMfcKrzhO+Ltq7ffWGr2Yjd+LYign33nJMg+a7OcLfD21QK4DHm/pv5e/rJRvLH31Q+vhveeLD3zKnPIiC+YWusTB9alswqKRxRhQAgRDAM3qTN5hNtxLlKuHk8Xvut/w22n1ZZKkFqnwzb+Wacizf6DVF+0wv06Ff5WZy1KdMgL72ph8J8N/pLHVo6yrHUX72Yckdm+V4mJyqq05pMUVMab5WbW/FON+2auzBiVDbCi/zi28UKIocJqTZdCmmzqdPDJi54jzhuyJ9W9ao/6pNCWrX2u3MoVwP14X/Xmkfe0SUHNG/cjPOTlN/WnIu1LwZtuuCsbffNia9brU9Nu8ourqKca5tdbut+W/hLxcAAiGAp35715nMtxLl2vfk0bvimnwV7fZxRIl5qjwzbuaYKGeBrCvSd2rZ9vL2l1z3J4+A1mXX3/PvBNb18WrcsFbn9jVHD6v86ZKSu38seOZw3rtXiiREVNEk1LNoe8vF8bYrQ1Y5QOKOUBLsEwUz2Wkx2SdM02t3XJPfLMhnyTETyj7hxsL9+lZp+ursjawX4Lnlu8IZDoumvWY4VDSmTp/wHJNXF+slxynx5FOPh4h6e7du4Sb3xPyyI3/E9XceXhfMrWg9hXGmsBxUrHFcFwRAIATwLMiW4JW49GXH4jutj6m1LKLInHDnqXK3+C2nSQfyjvjk3R7DKrZsXaN+PXd/OoHPOwTKO4H+fp7t2riNH11JdgJ/WFf42P68dy7mTFAVMqb6WnW9FONCYd4oLMeF9a4QcmGgJZNfGZJtQqvWJGfMJPb7wfZoOeysl9817CkwZEz51q/CLgq5hn7KuIrJkW9mPCzqlNCjmSr3RPnTOJl7tDx9zWIV6sFHQZPGtWZOKS+nQ0U83i74jqKtJYyThWWvYo0lCgIgEAJ4albFEq/W77udMnVfXP3VUZUWq/LPDHeactdp8qWc47cVHDSzTMfu1UJDXYPk+zpR8PmtiJCrAls2d+/zfvWpEyp8taL43m35zx3Nf/dK6YSI2unxYSb1EGFaLiw77Vvjb9s7gdqsd1nIaDHfTFR/eUaOHo0oONtxYf2RPCNXFO/ZvVoTv5c6FvbrVe3yyQyTRa0Jb6RM94soPurBj+KO0+TtBQe1rd6AtRyv+MlwuVpw0dwy+3/KJxfNa+Oz2Q4Yq/Mr2mBhWiTkgCjbxWADk2MAEAgBPG0UlNvDdftuJY/ZFRu4KuLd+TIH2g/yTZbbw38sNHB62Q5dq4XKo6HkwGf8xb+cE+jl7VfXS66IaN/abczwyovnlV73ZfGftxe9eLyw6lqplFh/k7qLYphsHwyzS1jOCUX1wgbDPFu246MG/cF7qfMOxNT9LKLQHNtSCqepD64U/lRg8ILSXTpXa+xvW0Pi+99Gqsopi/KNWTZR6/l7yv+QVZa5Nwip/duufPL2l0N7MJvpomes76jwnI9bprInL0ewjqjQMsjd34tY+Gq1BL3l2JjOHWt+vKiUvCsYffNtg7wrmJZNURdUtGHC+IGwHBYiibExAAiEAJ7FS3mKTvfLbXlRUI5/jCwxLzzn7xMgLzvbuoIzynTsUL2RjIK0KZ7dVUDvhvVry2kivd+rPmZEJfnd/8Zviv+2691zx6reueIVpwpNvd9TnzbFavhCMe+ytwFvCCXWNjNQeRn7ACarNV5jOB6hXn0madC2uNCvomsti6q65F6puZdd5v1Wd9badjNnj5nev9+gDu07t2jeplHDsObNWrdr3u59zxaTmgR8PMRt06KKu1eX+nlZhe/G1RwZGJT5j5sGBXquXFZCHZfN8bCooqlpTdqt2XQ2oc8P0R7LHl2wvGlvma4p2ntM+TatazTw4bLuS39GoI63XDE/bFCVb78odvpQ7ri7b9kPiGZXtNUUfS/7Monz9nMBJv58ASAQAnjaKKjIq1yno1Jn7o8L+SKi+LyHXUHbarh9+YYtLNVFdgVD3Otxi+lv5b0HHT85LyQ4sI5sBDVt4tG5g3u/3h7jRrvPme72yRK3dV+7btvsdWBvo3Mn2t251jMuYpQ6aaZZ94kwr1XMPymWE8J605YAbaNBX5mv/xUhN1ua7yYbT0fJ5ZZyO4Xmm7PazZe0O6+nnrgXeUd16dKVQ4cO7/v5lx3bf/p5777ftv98uP2Hp6r0uVqvi6pV29guLWJbtr9Tr9v+Mv3erxqWyfdMzJpaLubW2w5pUJ4ALC5Mq4Wit09yStLJ/9ULD9oO0xab++COpbxdeSz3qO8LD/igVNceVZvU8+D67svYEpS3hVu7zZpSfuuGwpdPOadGv2lOfVNR51O03ophkjBvtX03ZDsfzulQAARCAE/PYjXfTkr/5Fhcs28iyyxU5Z7+6NqSfO9cXuK9XlXCGroF0hX83zsA63rJr/PlJZ9ePVyGDKg6cUzFBbMqLv/Ide1XXju21P91b+uTR7pdPDP46sUpd29+EKVamRC7OT11nzb9oFF3ymy8oFiu2Y6AKveFkmpLgP/ipvhMyqooBoucOqOojfILC0VvlgswbQ+sxWo0GvV6vVark/9Xn6ROHLMzPOckVd4JqvzjVQXGyf8QnnvidecJk8q1y8xpcHD/qrcuOFlSHXqD6c7COM/e83n4TY3ebE3UymycvvJUjM9nD5r29+wnSC/kHLc/3zA52KlLtcYspXhpPkbCQj2GDqzyxaclju7LI2fGqGOzmVOzKxoXoe8mLwwr8nSoEmNbMa9wQBQAgRDA05OtmEStXC6f0HtLdPWlj06myeuCF3OOk3P/5Wb5ZjVDOJn2uOPn7R3gZ7vjJ4Nfi2buXTrWHNzfZfokl48W1fh6Zc0t69z2bPc5/GuLs8ffu3ph5L2bc2IivkiIXZeW/KNOvddsPCasch38LWGNsKe+FCH0fMH/DGJjmiFx+A7HZYYP6kaOiePLt820z1Lv91xOH8xtzrB1MJeiHyKUqD95KuwrOnR7b8pWYXiOqY7/M+Vx7h0FBnUmE2blkh8s9YPr9OzmsmhOmV1bCl455ZyoetuU4qxoSiq6JsI4W5h3COtV+1dF5EAABEIAzyoMGi3Gy3Eps36VbQdVodmP3jJlY1Duk1hQqkvH6o0CbKfR6r7STT9fr+ZhHt0615DNnEljK34wp8zny8psWFP9552exw42vnC6y43LgyLuTI6PXpqa9KUufatBe9BkOGs2XrWa7wq5B0xJtx/r0ssfd+ZfApFFv9QwR6fdb7HmiTQoe2jnco3tmSmPjMrnqlN714N78hoSHQbJqN8WhtFCufn/vPErBrN2y2XHnY0Px7FOXlW8Z5B7AMkqy1WAv6f8XmnW1PLfry1y7kguuVxeF/+mJa2Iom2o6McL0yb7LcF42+xQWoIACIQAnhk5RzRJK98s77dfF1n+A9tewYfv0PIQmtwyP6Riy0aur9AZUfn1fGA9z0YNa7doKu/4yaZf1RmTK36ypOL6r6vv3OJ2YK/XycMhV851vXtjRGzEvMS4r9KSNxu1P1lNcvXzeWGVHb9I+xk/mf2MRL5/m8Uq777Ko85PZCS5H2VHgcGNXYMy4T7xAb2rHdiTT3vfMQ0WEIYhtu2RiuV//M+NTY+quMhxYeOD+i3v8FY16nOZMAuV3Cgju8Rff178+K+5VVffSY+VOyTeUNSFFX13xfSl7f6wrVfMIQIABEIAz5wiTLcSUxccjPX73L5acOqjF+ijeUYtKtVVzhF96VcLyoUEwUF15MyG/r2rTRpbYfG8Ml9+VvyHde/u3+Vy9ljQjUvtI+8MToiZqkn5yKD5zqTfYzYet5qvCOs9YZVHPTX2b+vp+GWOx1lvTlt82LajImNAklfs5MPsk8m+1AgO9JT7xM8cyqV/3Bt8XdFUsm0OkGsk/8JpQDkHOKrCnwTCw3lGtnNpyMynrPL507aV20cLS588kDs54k1T8mv2FZRvKboGwvixsF6275Kx8NsNgEAI4Dm8PauNup9vJfb5wbZoPtf0R2+TV50nyAWDoyu0lovmX6bGoDyb5+vj1aB+HbnbvWunmnLQy4zJ5Vd8XPqH9eV/3V39xME6l8/Uv3e9c6xqbNL9xeqUtUbtTsV8UFjP2Ze8Rwsl0R7/zDw5mfR5tirme8mx9b/44wVC2etu49IgU82N7N2z+pZ1RcKvZjcmP7o3mEvo+wi5UMTWYf5LBwJNNxIiCs7+4//ePfmHynYoHcLM/4nUuGFtOW5q3478crrswyfhDUVTTTFMFNYjQkkiCgIgEAJ4XuQxUc135+OafBVReM6DrRIPSq6b/7pob9v8eveXYX79g4t/rVq4D+pfdfqk8p999O7Gb4rs217w1KHSNy76Rd5ulxQ7TJc6z6z7wmLcrpjloJcripzyIpLtfT+z/b2cvl8WCYQGs2bjJduWlIzpSN6D3VC4X6ZqD77X1UW2gzRx2ey9oIcDRQ3D7GtF/sYSOc3Gi+G5p/8xEH5RrJdfpl+6SGNQjiD+ekXx62dz6OIftojVcqlgqFwzI5TIv/UkAACBEMDfYbaarifIHYPR7stU+WY43rM6lGfk/NKdZS+lbtYcJSpn98uZn62au/fs7jJ2ZKUl80tvXFPst11FTx2qcO18nYiboQlRvdISZ+nVX1mNuxTLEWG9ZDv5KYc0yN3uwkD2y8pxUJFb7OM7rX/ivKhtnEzOsUMrtcw8T6m/n9cP3xU2Jr2ecft8VVsa/DtPoFVrlO19Vc5pfwzAgyq18GIxTCb+lkoOEZXHEw7tzZsY/qY5xbExOFXYrgum8VkEgEAI4Lm9NpsshlNRiYO322dRZLhkJTfOTy7XTs6PyUID67085VgOL7nnXX7XPmZEpY8+KLX+q2I/byty5nChO5fLxYUHa5Let+qnKcbPhHn7w8Xu95nN8FJ+zWE4GB757vw/piN5/lluzsw8D61vXa8PF5ROi3kjw5IJTWlh+UVegvzrT6YcnxNd8yPH3+IHJbcRNuK8aCZuDHZo67bi43dvns9h+P1LAfkYyMZgY8W0xj45hjOiAAiEAJ4bq9qg230jvtOGyBLzHNeXyRVtWwoNGFipeYhbPc+s8P16PX/PNq3cB/atNmtquTWriu3bnv/ckXx3Lpe+H+6ZFt9WnzbOov9cMf8krKdsYz+VOPvCLgM7u17mZzvNkDxm1x/TkXy2J5Zrm6naZfIBlosr5dqSDd/Iby5yyW3jKVFytcA7isZDMYz6P/buOi7KrO0D+G2sCnY9rrXWmmuDhIiIraDY3d3dii32urauYneLa/eaiIqKUkoMOTRMx32f85wZVkRgXVCa3/dz/njf3ZVnwGE+85vrOtdFNccp70KJiDWEfusb1ghRM/7SDYL6+vtlF4CX1upvgWWh2XWU6Kxp9e/+VTbMt9DnwiAbI1SDqubrGhbYyxSWSQAAAiEAZBTWUCdRyc6/F3dhlwbXJNlkffzn8WPq27bOxpeO9PNgzDt1aDFiaGMWAo85VmJvqtycSwV4lYsNra2R2BDVAqphIfC6ftt7kP7NNN5a5Z04SDTeEaFWfyZfP/i6xPzuTdplw6c0m2/EdlqOHt5o4Zy6a1fU2vXHLycOVLxyrt6jO2burj38vMbGhM2OjVwpjfmTLbRUyu+qlW94jYitiNHHhji1i1fQb2tFJZeIii1JiMHs+z1fYaJt03YoD2bDwmC3rsasif3N0xLy8AKfbwyyUaIWhI0SJb64MQgACIQAkLH4MKn04Etxu/2iMl92S8RvGnSsNHpwwy7ZdgQFuxZo08WYTQTdvrnazcvl3j4vHuhpEBtcUhndWFAMJ+qNrBJI+Df6KaBxWP2XRz/u0PCKO58Ca6WwfvB6uWnZebwKywmtW5mxvZcd25t062rUu0dztqR+1PDm40abTp9iMWem5aplHTY4dNu13e7gvn5nTw6+fW3Y4weT376a7n5sRND89pFTO0eOsQ3v01fcaUiIybin1SePbmBjjtuD2W+1KUv+5479HOBZRB31uU9YWpooBhLtDd34YrSJAgACIQBk5JtlyoZtSP58EWyyS1RqRZLiye4qI/s17NQy+zWYsZKglaXpgL5N166seeXs/9yci4l9CqkiCxHp/6jcWjd6QetEBQ+8lwIaP1/0+Jvk/ZOfDJccqjQ25wYkXVy0NGVxkdXGbTob9+hu1L9P86GDTSeMNZ050njl5MZ7FzV8cbxa+J1KMTd+eb2p8QKrDq3RLJrNXsfatjFZOLvu/WtlogNZY3D8ldEC7MooUS2lwitKFPj9BQAEQgDIWLxYKtn9PMRsd+JNg7rRiyXm76wyonejjtnw7bJVa1M2JpQ10bEpfEFeRWRhBbSxBQVpRaLoSdU7KP+MklAMBYUvgVCplexxFhVdlnwf/dZfhuWyeZssY7CyOes4ZTdp2Ra7UcMabXSoueePalNGN7K2MEezaLb6m7LrZrR1Y/X3L4rJwxJWjBQgciui2UsFEZaaAgACIQBk9Nvkz2mwxU7/EsuT1AZ3Vh3Rq1GHbJUGWT2kQ3uTSeN/O7S3svODkmzugn40Pxu28StRDqGag/oP1KNxORCSB8K4nc+Sr+NjgfD3akNy9wIGljratTXp3JF1V5sjg2Wfw6YfDx/S+Ky+TVQTndAmWoYqB1L+mn7jPF7HAACBEAAymO7e4N4XIaa7EtcG/fVr2XZls9pg/GKuqRMbHN1f+e2z4qy3Sv8WqqA+Co7XrWkW3CmRoDsU0hoIt1Udhjt1OJl989nUfN7Muveu6ttEY7l/dkvIKuumyPIvKZGjuwEAEAgBIKPfILNhhHLpwVesUzRxbTB+pui+yqOzTxqMnxkzb2a9s8cqujkXjwpg75/yE6mBbk+3ahLVnqOEbeuW4v0TfOv5rr9DGFB2dfI7hId1dwhxrQ4n806XTsYOK2q9eVY8UZvoT0TWgqi3UvKRLQzBLywAIBACQMa/P1Zo5Zfdxe0cRSW/qg16Fl18usKEob91zSZpkFUFZ02tf+ZIRY9XRSWhBXndnm42bqEGqwoSzWkq+GKDPKTqCc+mjN7wDqy+IfmU0avlploYIRDiZNLpbmO0b0dVHzdD9T9L53VpkCo6Ue1pSsLQJgoAgEAIkClvjtW88r5PWK9jAV8PXfQxtL9Sbsq4+t1aZfUU/viq4PxZdc8f/9nzddHYoIJaFgVZVVD+G1GyquAF3Tb5b2/lBkhMIOoP4hCTXcn3EL4qMa9TszYIKjgZvlvCzHzMyEaXTlcI/VT489J59rJWjiiHUf6efikOPtsCAEAgBMgUfEBs9KKbARUdkrw5flli3soaA7N2+7zurmB7k5n6qiCLgtLQ+JYqdlewJlGOJZozRPDRjw8FSGMkjFaEjziX/BqhR9HFE+p1R1zBydDTysJsxpT6D66XiQsp+LlNlF0aLEtU86jwWt/pAAAACIQAmfS+mCgf+4ttD/snG8F/rdzU4Q26ZmEUZLvU5syox6qCXq66qiAfXxWUNSC6u4IXdVVBIsOH6PB99NcI3/oXX558rgxbtmmBa4Q4GTkQy2FFTdenJRJdGuSIvAnVbKLCJ1waBABAIATI3LfFvKC88ym07f7kpZLL5ScPaNg5S5ZJsLH4E8c2PLKvMhsbIwkt8HnKwi+6ZirtWX0URFUQfvSjEI1nRHDz7UmvERrY3yszs0+jjoguOBnyOVfHFts2VWcfcqmj8iVcGiQyI8LW5BAxLg0CACAQAmR+IiTqV8Hh/U6KiiUtldwrM2NSPbtMfrfU1tpk0rjfju2v9O65boKofpkEe7dUg+qi4DHdMgmKCeyQTpEwThmz4m5AmVVJnvnuxRZtqjYU6QUnvV/fzPv1bsY+5wrwSLRpUFKIKroTzXn9pkG8sgEAIBACZAU+VKJ7W1xpbZK3xe+KL1hbfVDm9M6xKGhtZTp6eKM/d1R1+btkTNBPn+8KVqTKnroV87wbGkQhvZ/6gto1RJysPO5nYP+41Gy2asUUMQYn/SZjDe7f5OLJCuF+hfTjkfVpUFaKKPrrR8hgUw4AAAIhQBbSj+APabMvydtiNmX0XIWJAxp2yui3xZYWZsMGNdn1xy8vHpaM8C+k76RiqwXLUWV3qtlDBVf9wD10UkH6I3KN7JhrwC/rkzz5vQ2X7K0yCuNGcdLrA6/JE367ebmcbu98wqVBaWndkGTemVIFfhMBABAIAbIYHyKJXXM/sMbGJG+LX5WYv7HakE7NrDPoTRKLggP6Nt28tsajW6XFPoX1bVQsCpYl8g5EvYnyzymJwQfnkJGJkPJiafTS24GV1yXZP/G6xPy11Qe3zuqdKzg5/Vi2Mps+ucHj26U/D0mOT4MVqW6g6FtK1fgtBABAIATIBrSC+k1IxJgLomSrCNmAjdm1e6V74yibHNOjm5HD8lp3rpQN9i6sisyvf6tUlMjNiGoF5R9REsEeFv5mIMMjIS9ofaOjF9wIqOCQZLrM85Jz7Gv1RybE+ZEXuoVz6jo/KCX7MlCUrZeoRlRLqeCFgaIAAAiEANnpbbFCo7znE97vREC51V/3zi2+VH4y28xmmU5vi1uam3ezMVoyv861C+X9PhgowvPr3ySxKGhEVfOJ9jYlwZTgfRJkIoFoP0bGrLwbVGdz4v0rLBM+KTVnffXBnZtZm7awQLzBSdNpZ22ydGHt109KKCLyfx4hw9JgLaLeTAVffOAFAIBACJD9MqFEpbj1Maz3cVGplV+v6l50/n+TxtXv1vKH64TsHdL0SQ3OHv3Z+42hPDz+I/MCRFqdKMdTrRMlAfjIHLLmyc8LfLBEut9FbHPYv+SKL5nQ0J41Tu+rPGpUA9uWWE6Ik5ar0WuW1Xr/ohhrf/iSBqXVqXoDFQLZEw6/dAAACIQA2fBNMRH0mTC8/8mACmuSDOI/X2ES20JhZdT6O/dJtDGZMKbh4T8rs30SMfFb5nVDRKsSxWCqPaXvnsJkBcjq53+MUuUcKNnxLHzw6aAm2wJ/WS8qvdLPcNmHYotulZ2+s+rIyXXtejZu36FZG0v0keL8+2ltabp88a/vXYqpohLSIJspWoOo/9B/7IU0CACAQAiQjbFMqHroFzH6vOjnrzKhR7FFV8pPYfcJrZtbpW3euql5317Ntm2q9uJBSd2QPV0UZJ+UlySK9lSznQrv9FEQk2Mgm/wCEBKn0nwIkzu5S3Y/ZxtZouZej5pzLXLO1cB5l1/NPHptwo4jUzbuGL1sbf/ZDt2mr2o1bmXzEQtr951et+e0uj3HNOg2pFHX3o07dmlq3aZ5azahN+EgJuWVDROm5nNn1nN9WiJRbZDTjU1WLaNCAAYmAwAgEAJke4Sw+4RsxkyMw/0Qs93+Jb4srPcquvhB6Zmbqg3p06hjasbMsNVbPe2ar11R88H1MiGfCqt1H5azNFiMyMyJeg3ln1ESibdHkE1/D1RaIUbBtnTygbHagBj9idX6RCk8xNEeQeFu/kEvvYOeeQTedwu49cbH6YXH0ftuu268XHXu6byjD8buudFn45Wuq8+1X3rAbOYuo8mrGw1fVLvvtDo9RjSwGdSwC0uMtk3atW9ulRMn1rDG78EDmnRo14JV/hH/kpz2bU2WLar96nEJRXiBz2mQtULUJuqNRPDBvUEAAARCgJyDJ2wXhfysG+udC6y+IWHSBhuzwa5UHf95/Iw6vdo3b2P2L5M22DtF9sZo+uT6F05UELkXUf/TN8XeGNUkyomUv0aJGFEQclWAVGiFWCX7rWEzS1mBUfUySPnAV3HNM/r4S/H+J75b73iucnKdcfzZqD/v2m26bGF/vMG0P38dt6326DW1hyyo229KvR7DG9jYNW7P6oqWxpbsA5eWxhZmxhbZbZiNRUvz7ZursSUKWzdWY7/jyIQJr3hsXNbAfk33bP3F83XRz7VBtkTHkMi7Ue1BSkLxigcAgEAIkOPe4RIiUavdxJIDLyOGnQlqvFVUZmX8ijbPoosflpnlWHvCvI6je9n1tWz11aJCq9atRw03d9xVzc25eGxwwc+TY34mij5Uc5QK3pQq0SMKeeBTFUFXZpSoWFAUIuUsK2o+RbGsqHwRKHnwMfr6h7CTLkF/PvJZ+df7WSdfjtr/qPfWW50cLlnanzSes/e3CRtqDV1Uq+/UOj3YPBtWVOzRuEPXpm3bNrdiKTHrYo/5jCn1RR4G6qh8gZ5Fpkxs0NLMHGmwlYXZkIFNNq+r8fgO26da6PM+1f8RRSeiWkf5F5TEIg0CACAQAuTgWCiwK1VuYtk5t1iHB5HjL4b3ORHW41jYkNMhq266X3p68/qtfX86rli+avaseTNnzlm0yH7vnl1PHjlGBC8U5H2JoitR2FLlKKLepn9jJMVPFOAfal6QqHVFRZ8o9QexyiVIceej7OKH2KOvxHse+2+65bHayXX2iaej994ZstVp+OZT3VY4tpq9pc7INTUGLfxV14DK9sGwM7BhZ9aAapHxQ1A7tm9x9Xx5tS7wcOyDnpMHK7a2NMuzOdDC3Kx9O5OJY3/buaXaw5tlgrwLa2IK6EqCrA9CMZCq2QXpJ7p9qhgoCgCAQAiQGwhEkGv4cJnmY6T6XSi7YahxD9eGSHi5WqlQRkVFiUQB3t4fvby8fX39IiLC1aoYwgcQ3o3wr6nwRlcVJFG4PwPw7Q9fiIZnN3iJVK0rKkYpeLGUNaCyrKh4Eyx9GxT73DfqjoffhNOuJRY4l5z7qNQsdqeXnRtlp7FloTNq9zTP4OLh1AkNgr0Lf16wzrm/LNqlU567Sch2zXfu2GLU8EbrV9W8fPp/75yLh/kVUkYaCNLaug+/VMuI9hIVPlASjVc8AAAEQgAAgHTNjCptzLI7/oZLE08AZuej4ZLlNQdkdCA8tLey8suOdS7cr9CIoY1ZQMr1IZDdD2zbxrSbjdGk8b/9saH6pVMVXjwsFehVWh5RXpA2Ioq+RL2aas9SwUV/VxDLVAEAEAgBAADSm6DQsM7tEPPdIsNlidMgG/97psLEno07mGZwZcztRTH92ph/AiFbKDp7Wj0WlnJxDuzZvTlrCnVYXovtUL17tez7FyVCfSvIIppqpXZEOYuod1LtLSq8pyScjRXCRUEAAARCAACA9MdaSVmTdswatglmlyjRJhhWGHxaas7a6oPYNcKMHjbTzcaY7RH9slhPwsnEBVYsrs3mjuaS/YFm5tZtTLt2NmbDQmdOrf/7+honD1W6e7Xqm2c1RZ51o0MstNIhRLWUavZT7VXCvySCv25aDK4IAgAgEAIAAGQcrV+09PDrsL4nAmtsTFgA42dg/7LEvD8rj5pS1659MyuzjN9OMWdGPVlYgcSBUBH6k8O8+q1ycoWQhcAO7UyGDmrCSp1rV9Ry3FXF6cz/nt3/2fNNfbF/W1nkQI10oaDaRrXnKP+ICh6UhFEi0zeFohgIAIBACAAAkEEIFWIUqlfBcdufhvU9Htx0m6jUivgc+L7YwrtlZmytOmxyXbvumTJcNH7hxP6dVT6v1/vnSHwMFg8wszDNMdmvrbWJbVfjvr2bjR3VcMn8Ots2VjtztOYtp3oufzfzfGMe8KlHVMgEeewaXuVINBcp/zcV3CgJpJSNh1FjUw4AAAIhAABApkRBsVR25l2M/W2xzaGgOpv9iy/3118afFNiwcmfx6+uMXB0A5vOTa3NM3EhYRsr05uXy+k37H0JhJEvykxp3c68hUV23gxh28V49PBG82bV3eRQ4+CeypdPV/j79i9vnY18POzCA8cqYpdo5L8LqhNEe4t1gVLho25RhG5RqlZfA0QIBABAIAQAAMgUbLOLriT4++Pw/ieDjXYEVF3vX0yXAz2LLmYlwS2/DJ1St0fvxh3bZUqDaJLTy665m/NXE2XYER2uO9DU2izbBEI2A4YthOjfp+mUCb+tXVlz386qbGvi37cquT5r+NHNKsR3QFToXFnsTq3yDNHepLwLFbyoEERJJCVySnEVEAAAgRAAACBL8ALb8Bm7+ZG425GgWptExf4ZG+NraP+s1JyN1YaMrd+tY7M2WRi9xo/5jS2ZSNhAqDtx3Kt5LTubWZpm9VZAlgN7dDdiY2DYQogzRyo+uMFmgZYM8i4XE9Kcl+nGwBDNQcrfpfxbKgTobwCi9AcAgEAIAACQPQhxSvlZt7AeR4NqbxaVXJEwQZQVBg9UGjOhXncWBVsaZ3EVbsuG6orwry4Q8gFFjvZva2WaZQ+MLQYcNqjJssW1Tx6q+OROac/XRUN9isaFVlfFdiLKGVR7mGjv6sfAhFIiQQEQAACBEAAAINthi+ZjtzxmyyQSxofGH/dii3ZVGdmzcXsz46xvyGRVuEe3SmtjvuoXjb1dZU6HNi1NLDL/wXRs12LujHqH9lZ5fKe073sDWVhBIa4wkdWjyvFUs4/yzygR6cfAAAAAAiEAAED2jYNUcetjUL3fE3pEE86pChO6N2lvmj3u5rG9fMEfCyfuFxWi8z/f1KinRetMfoRWlqZzpte7dOp/Xq+LRgX8pI7KJ8TlI9KaRDmVap30I2HisBACAACBEAAAICfkQbkmcrJTkigYf2bX7p1N0iDbO7/j92pJNhDK/QzWDWzZ2qRVZj4StjV+3cqab58Vl4cV+JJO5Q2JZi8ln/S7AQEAAIEQAAAgpwRCmTp84KkUA+G4+t2yyejOvr2asQz2Vb9obD6Xo9V7WFlkcmQdObSR+8uiSVZfUNUySsSoCgIAIBACAADkNFohbrezqPTK5IFwe9XhrY0sszwNtmpptm9HVam4QOLhonGvyjiMbGFhltkPZujAJu9fFEsSCIlyNiUhmBoKAIBACAAAkPPwQXERYy8ElF+TJBA+LzlnUa2+FsatsjANmpuZz5pan01t4RPdHuSDCv+9wLSXZavM72i1tjK1X1D7yZ1SktBELaPSWkS9ggqv0TIKAIBACAAAkNMQon4vjt3wd3Dz7aJSX0qFPob2T0vN3lRtaL9GnbIkFlqYm08a99vLv0uywS0JaVD7qVj46pZLWnW2zKKkyjLh6OGNNjnUeH6/VJhvIT6WPbb8RFqFKroS9TpdLNRtmEC1EAAAgRAAACCnEAgfIZM7uUdN/yuo8daE/RN+BkvfFl9w4X+T7Gv169GkfWbmLrbqff6ses/vlVJFftk9yPsWjV5k/aDpiK7NrU2zdAcG20A4anjjdStr3b1aNsIvPhb+RKSVicKGqldT/gklUsRCAAAEQgAAgByDLSTU+kTJb3hFr7gr7nwoqM5mf/2S+k+G9s4l517836QN1YaMqm/TpWnbDF1S37qV2fAhjfdur+r+stg/aTAuH+9nKD9XJ3J0N6/aU5b92i9rG1k/x8KW7axNBw9osnBO3TNHf/7wslhcSEE+thCRVaby1kQ5mWov6rZQUCWSIQAAAiEAAEAOwaqFYVLV8wDZ4ddRC26EdjwQVHOjf7HlvoZL35VYeKvsdMfKY1bWGMCSYYdmbdjOetMW6RAOTU3YMbdqbTZuVMPtm6o9uVs6UvQTK7sJMfm13sXlJ+pHz+oYYj5GVG7BtfJT7Rp3SJf/0XQ57JG3NDPv0a359MkNdm/95dGt0mw5IR9bgEiLE1kzqhxC1H9Q/gWlCsRCAAAEQgAAgByCEEGi0gbGqpwDFVc947Y/jZpzLazX8eCWuz812ez668q7leec+XniriojltbsP6Fe9wENO3dr0p5FxNQPJjVnjZfWJnbdjIYOajJzan22afDqufJvn1cQ+1ZViWupHteQHmwUPa9dWM/+IUbjAyrP9S9qz641zqvdp1U2mH2a4o3Hzh1bDB3UmBUMD++r/OJhyTDfwproYkRWncqtiGoC1RyiwitKorCgAgAAgRAAACBHxUOpWhsQq34Torz9UXb6nWSPc+zaB1GLbgZNPu8+/tjzQbtu9t50dsDaQ4NW7h66bPOIRcvGzLOfvXjG9FkTJ0yZNPGrM3fOxKVLxm1cN3rX9uFHDw7562L/Zw/7e7wdHRE0ViObSVQrqXqH6tmmsF4TgptOCvh5nr/hl8Gnd8vM6Nw0K28PpjLo2nQxHjOykcOKmicOVHRzLhYTVFATU5TI6hI2eEY1l2hOU+LLVkCyCa94agEAIBACAADkHFqByDVCrFKIkPMhEq1PtMYzggVFhUtA3Ev/6Fd+Ea99xa99/N54+Xn7eLh7vnf78P79V8fb283P921osGtkxKvY6JcKmYtW7UKFD1TwokIAFcKIIiJq1jlR2aSrEd2LLlpWq392uD2YysEz1m1Mu9sYsSbY5Yt/PX24osvDkmLfYpqY8kTWkCq6EdVMqjlGeRdKYtFNCgCAQAgAAAC6VlXVY/+gBlsSFwbjj1P5yXZN2pvmhDSY5LSyMOvRzWj86Iarl9Y6sq/ys3ulxL5FFBFleMlvRN6FqGYT9Z+UZ/sqIilVIRwCACAQAgAA5FFClDxq0uX46aaJj0fRRTPr9Mwp5cF/ayVt09rUtosxm6G6aG6dfTuq3r1a7tO7UorIskT2K5G3parxVLOdaG/pKqXYcQ8AgEAIAACQtxAiPeaqW3fxdXmQ7b04XnFcx2ZtTHNsGky+ZbFLxxZDBjaZM6Pezi3V7lwpG+xdRBlZQpDWoHILqhxG1L9T/jElYaxJF88LAAAEQgAAgNyPD4oTt3cUlUhaHvy79OxRDWzNjS1McksgTFhZYdHSrEM7k4H9mi6eV+fEwYrebwzVUWzBvSGR/ULklkQ5jWqOUyEI42cAABAIAQAAcjMhRhGz6p6o3Oqks2SKLVpWs7+VUeuMnQFjYs7iWZbfM5w1rf7xA5X8Phioo/ITST4iKU1kjalyNNWcoyQc+yoAABAIAQAAcifp4dfJZ8l8MlxypNLYrk3bmmbkONDePZrNmlrftqsx+7+zvJW0u63R0oW1Xf4uqYpkmZDTxUIpW2bYnKodKPFHqRAAAIEQAAAgd1HxiqteIS33iIovT5wGfQ3tz1WYOLBh5wxqFjU3Mx8yoMnOLb/cv1bm9eMSMyY3sGhpnh1aSdnsmWmTG7BhpMqI+EzITn4irUZUs6jgizohAAACIQAAQO6h+MtT3MHR/+urgz6G9pfLT864q4OsGDhx7G+3r5QN9yukic7HotcfG6pbtTbNPpsqlsyrE+xdWIjjPmdCViqsSDV7KYnDcwYAAIEQAAAgx2Or7aVHXoda7xeV+pIG/QyWuhaff6DSmKG/dW1lZJlBiWvwgCYPrpeRhRUQ9HGL5a57f5VlOyGy9iZh4sOGzbx8VJKF1c+BUF8nVPajwkcUCQEAEAgBAAByDkKJViBqLesOJUotkWs0vtHyCx8iZ/0V2HTbp+JLPxou8dadxU9KzT5dYaJ9zf49G3UwbWGRceM9d22pFhtUMFH9jQt7WXpmV8tWJtlo1eFtp3KJukb1R95Kt8IeNwkBABAIAQAAsnsM5AVtqET9Olh+2UOy41nM0juRky9HjDgbOvy0Zz/HR5ZrL9adtbfK6DU1Bi6s1XdW7V7sjK3frW+jTtbNrTIuDcbPbnG+X+rr4hsnc6p5vdnQKfXt2hi1zg4LD1u3MnO+n6RCmI8oulHBExVCAAAEQgAAgGwaAlkBUOsfrbjmFbfpUdS0K2E9joaY7hLV2fSpymrn/y04X2HS778MW1Sr77h63fo36mTbpJ1189YtjTO1LmdnaxTyMfH1PE6IyR+7ztyn0pzbZadvqjaE5dJ2za1aGbcyzboVhWNHNvJ7b5D4QRKJAVWvoTQSTzMAAARCAACAbBYFFRqVa4jszLvoRTfD+50MbbknsMaGgAprPEvZPygz80jFseurD55QrzsLgR2bWbO9glm1aN7UxHzF4l8loQUSlwcFcfHomaNE5e3ZMJs3xRfcKTPjUMWxDjUGja/XvXuTdpmcV9np0rHF6cMV40IKfnWBUNaK8M6UavFkAwBAIAQAAMgOKZAQmVrrHyM7/S7G/lZYr+MhLXYGVFrrX3SpZ9HFz0vOOVNhwqoaAyfV696rcYf2zayyw8W8ju1bXL9Y/vOWv8+BMLql8ub16MU3xO0dA6qs8y++nN1pfF1i/u0y049WHLe6xsBhDbqymqFZC4vMWTuxyaFGgEcRPjbfl2ZRWV2i/pOQWDzpAAAQCAEAALIeHypR3PSOXfsgfMCp4GbbWQ4UlVzhb7iMzQi9VH7y5l+GTq5rF38hMPMrbN84M6fWF+myVqJWTKkBUW0mihhtUJzqqUiy7Wn4oFOBVdeLii7zM7D3Krr4VYn518tN21llxMR6du2at8nQPtI2VqYOy2t5vi761e1BaXWq2UZJMG4PAgAgEAIAAGQdQoU4pfptqHS/S+T4S6FW+wJrbGQL5Vlwci+6iLWG7qs8au6vvYf81rVTM+vMqael6Vi3Mb11OcnozvxE0ZYKbgmjO4Vohdo1RLL7OQu6gb9s8C+2PH4ZxodiC++Umb63yijW+NqhWZt0H3vD7g127thi/aqaLA2qoxIeYUEib07VW5AGAQAQCAEAALIwChIhSq647h2z6l6Y3ZGgBltEZVf5F13GwtL7YgvPVZi4obpuFgsbEtPKqFU2jILxw0UXz6/DNtF/NalFVp5qDlEi/eqbFQiRqFjujd34d2gHR1GZVfE7En0N7D2KLmKxcHvV4UPSdU2iman54AFND+yu4uNmqE6oDUpLUEUXqjlDBTHSIAAAAiEAAEAWEBQajUe47Jhr5IRLoa3/DKzOima6HOhddMnTUnP2Vxq96Ne+Axt2ZqNiTLNfCEx8Rg5t/OJhkkUOhalyIiWBKcctQvgwqfK+D2uLDbM5HFhzI7tbqK8W2rsVW+hUfgoblzqqgQ37xs1/IABbtjLr3bPZ2hW17l0ry8KqVndvMB+RliFyM6JaRflH+rBK8DwEAEAgBAAAyFRsmzxrnozb/lR3S7DJdlHplfElQV9D+/tlZuyoOnxq3R7d9CXBbB4F2enQrsWFExVk4gJfN4taU/4ZpZpv/RR4IkTKVc8CWBNp5PiLIea7dT8H/Q+BxUJ2t3BXlZHzavfu26ijpZGlaRqHxwwb3GTT2hrXL5Zj1xrZnBtd6VJWiSg6U/VKor1BSRhmigIAIBACAABkchCkfIRM+dAvZtkdsc2hwLqbddNi9JUx1h36V/mpbJX8mPq2XZu2zVbTYr6dBndu+SXMN3GzKJvb2YTyV9iY1FT9SAQixCo1nuHKu58kji5stUZY7+MhlnsDm27zrL/ueb3lTrVnO9aduKbpiJmWQ4Z16NevRz9bmx5du3Rva93Ruk176zYdOnW0sbXp3runzdDB7WdPN/19feNLp+s7P6wf9KmeIrKBILOgykFUvZxqT1LBmZLQ/4ipAACAQAgAAJDeUZCwdYLKO5+iF9wQdzgQUNEhviTIRqqwYZvn/zeRreYb9ptNG6PWpjkhB8YfK8sUtzjUppo9lEi+50ek5vlQKaudsm5S2fn30gMvWfGQ3TaMWHvXd9NNt/23n524effq7QvnL549c97R8eC+fY779x84ceLUubPnbt44/ezJAc/3v4cFr9XINhDVdqo5QDRnKf+QCh8oidSXBNEgCgCAQAgAAJC5BJmaJZyo2dfYRcGAymtF+uma8XcFL5afvKxm/wENO7Vv3iZ7Doz5t9PO2mTz2ho+bgbamHyJNrzXJhrHdJjUQihRaolEzYqHQoRcCJMK4TIhRsGzQawKlUwmk0ik0dHRUXpxcXFSqVSpjBP4aML+pwk7EZTG6K8IqhACAQAQCAEAALIG64dkPaKSLU/EHQ8ElF8dnwPjC4NsqSC7Izfkty6t02+iZuYctsWhSyfj39fV8P9gkKg2WIDIW+hrgzHIYAAAgEAIAACIg0TtJo6adTWozub4KZoJaZANEV34a1+2SSJnVQX1adC8f59mx/ZXYsNaEtUGixFFV8pfpiQKaRAAABAIAQAgz+OJ+l1o+ODTuuuCn6Ng/PyY22Wmz6ndOycWBq1am82YUv/q+fJRAT99niJTgEgrUuU03VU9qsRfOwAAIBACAECeR4jmnTh8yJmAsqu+ToNLH5WaNbFu9xyXBtnp17vZ1o3V3z0vLgsr8E8alBoQRQei3kGFj5Sq8dcOAAAIhAAAAFQIlUSMOi/6Og2y86LkvPm/9mHbBXNQDjQ3M7ftarxobp0bl8oFfyzMx+pHiUoNiawpVS2k/H1cGgQAAARCAACAfxCJKnbdg4AKDknSIFsv4VB9cJvmrXNQGrTrZrRwTt2LJyt4vzVUROjXu0sKE3kzqppOtOzGYDB2+gEAAAIhAADAZwKRn3sf1GBLkjToY2h/8ucJXZu2yxElwc4dWwwf0njdqprXLpT3fF1UFlaQSFhJsBpRtKXqlVR7hQq+6BEFAAAEQgAAgK/wYTKxzeH4pfOJz6sS80fVt83OM0XNTMw7dWgxdmSjlfa/njhY8dm9UkHehZWRhrykJlV0I8qZVHOQ8o/1K/5QFQQAAARCAACArxENLzn0KnmzKJssuqfKSMvsMUjG0sLMuo0pqwHa2Rr169N09IhG82Y22OTQ6Jhj4+uXmrx8bOTnYRob1l6QDyOqeVSzi2rPU8GFCv6UynFXEAAAEAgBAABSxofLwvoc9zdMWh58V2zB6Pq2mbYc4vPRdX726N582KAmE8Y0mjWtwZIFdR1WNNy22ezPXR1PHO7udH7I/dujXj2f4f1hXmjgSkXsBl65U1Afp9prhFUCBQ9KQilVsW8LORAAABAIAQAAvolQ9evgwOobk6RBdq6Xm9a5qXWG5sC2bUz69Gw+YUxD+wV1tm2qdmhvlYunKt7+q+HD222cH/V/4zLdw22D78cDQaLTYaFOkeF34qIfKqQuvOYNEbyp4KcbD8N6QXXzQtkuQQF/mQAAgEAIAACQFmyczCX35LcH2e7BQ5XGWhhnyKoJM1Nzmy7G82bWc9xV5frF8q5PSvi4FY3wLyaLMCLKiVSzjWgvUd6ZstRHI3H3DwAAEAgBAAAyKhBKj7omLw+yQMguEGZEGmQdofYL2XrA8l6uRaMCflLq1kIUIPKmVL2QaK9RwUdf8UMIBAAABEIAAICMD4Sy0++SXyBkgXB/pdHmxhbpelHQvGf35kf2Vf74tqg2Jh+RcPrzE1F0otozlISg7RMAABAIAQAAMhGhqmcBgZXXJQ+ETuWndGjeJh0DYd9ezc4fr8CqgkLc5zQoNSSKrpR/qJ8FCgAAgEAIAACQuYRwWeSIc/7FlyfJhG+KL5hVp5dZehQJW5qbjxzW+PLp/8WFFPxcGMxHpMWJcrQ+DWrxtwAAAAiEAAAAWUErqJ74s8X0opIrEgdCX0P7a+Wmjmhg0/LHMqGVpdn82fUe3y4tCU1IgxyR1aaqOVT4gOuCAACAQAgAAJCViEqrfOAbvfBmSPPtARXX+hv+kwk/Gi65Un7Kslr9ezfu0MaotWkLi7RGwUH9m+zbWfWDSzF1dHybaH4i+5+uTVRzjBJ/rAoEAAAEQgAAgGxAK2iD4hROHjEOD8L6nwwx2hlQZhXLhD6G9i4l552tMHF99cFT6/ZkyTA1uyjYgsFRwxtt3Vj94Y3S7NIgHxt/Y7AqVdgR9UYqPKdUgTQIAAAIhAAAANkrFvJhUvWbEMUVD8nu5zFLboUPOi3ufDDQePt7o42Pmq64ZLboYLt5a3vPWjRuzrixEwcOGNq3z4Aedn3suvfu32/QsKGjZk4ftnFdt4unWzr/3SzU9zdNXEMib0mV/al6ia4qKLhQEolpogAAgEAIAACQXRFCtAJRalk41LiJVU9Fihve8ksfJEdfx51wjfvrQ9DDD59eu79+7fr06bO7d+//9ddVdh49evLC2cX9w/PQ4LsaxQledZhqThLtX4S/T/l3lERQokZVEAAAEAgBAAByYEhkEVGhYYetLkz8z3meV+mxFJnov1bqm0KRAAEAAIEQAAAAAAAAEAgBAAAAAAAAgRAAAAAAAAAQCAEAAAAAAACBEAAAAAAAABAIAQAAAAAAAIEQAAAAAAAAEAgBAAAAAAAAgRAAAAAAAAAQCAEAAAAAAACBEAAAAAAAABAIAQAAAAAAAIEQAAAAAAAAEAgBAAAAAAAAgRAAAAAAAAAQCAEAAAAAAACBEAAAAAAAABAIAQAAAAAAAIEQAAAAAAAAEAgBAAAAAAAQCAEAAAAAAACBEAAAAAAAABAIAQAAAAAAAIEQAAAAAAAAEAgBAAAAAAAAgRAAAAAAAAAQCAEAAAAAAACBEAAAAAAAABAIAQAAAAAAAIEQAAAAAAAAEAgBAAAAAAAAgRAAAAAAAAAQCAEAAAAAAACBEAAAAAAAABAIAQAAAAAAAIEQAAAAAAAAEAgBAAAAAAAAgRAAAAAAAAAQCAEAAAAAAACBEAAAAAAAABAIAQAAAAAAAIEQAAAAAAAAEAgBAAAAAAAQCAEAAAAAAACBEAAAAAAAABAIAQAAAAAAAIEQAAAAAAAAEAgBAAAAAAAAgRAAAAAAAAAQCAEAAAAAAACBEAAAAAAAABAIAQAAAAAAAIEQAAAAAAAAEAgBAAAAAAAAgRAAAAAAAAAQCAEAAAAAAACBEAAAAAAAABAIAQAAAAAAAIEQAAAAAAAAEAgBAAAAAAAAgRAAAAAAAAAQCAEAAAAAAACBEAAAAAAAABAIAQAAAAAAAIEQAAAAAAAAEAgBAAAAAAAAgRAAAAAAAACBEAAAAAAAABAIAQAAAAAAAIEQAAB+ANEKRK4RohV8cJzmU5TmQ5j6TYjKJUj1PED1LNF5Eah+Hax2E2u8IrSiGD5cJkhURM1TkuN/AjwhSp7EqPkQhdZHqnaPU7lGK15Eyp9FyJ+EyxIO+39dohRvopUecSo/mUas1MZpBJVABJILngXs71FBSTQlwVT4RIUPVHAlvDPlnxL+SaLzjAovqfCWCB5E8KMkjFIJpWpKhZz+/QuCoFKpJBJpeHhEUFCwr6+fl5f3hw/u7965vX37LuG4ub13d/fw9v7o7+cfEhISFRUlk8k0ag3743glAQBAIAQAyEkZSIhT8gGxLOAp7/tIT72N2/I4et71iGFnxF0OhbTcE9Twj8BfNwXW3JhwgupvCTbeEdpuf3i/k5FTnGLX3JcefKW45sWio+ZjJB8hIyotJTkmG7EUJ9XwQXLNh1jV3+Gys6KYbZ4R811Dhz8N7HzPt8V177pOnlUvuFc6/yHhVLvoXt/J0/T6R5v7fqOeBS52Dd3tHXUxIPZphNwjVhmq1Cr4HJUNCU+plAoBhH9H+PtUe5pq/iCq2UQ5mMg7EpkxkdYm0ipEWunLkVUn8oZE3pIouhHlGKJaSjV/Eq0T5Z9TwYsKYkqVNOd8QsBSnEKhDAsL+/TJ5/Vr1zt37p48eXrbth3Llq2cNnXmyBFj+vTub2vTw6Zr94Rj171X/36DRo8aN3vWvFWrHPbs+fP8+YsPH/zNcqO/vygyMpKlSkIIXmAAABAIAQCyZQRQ8UK4TOMerrjnI/nzReRkp9C2+4PqbBaVXeVvuNTfIG1HVGJFQNV1wS12hg88Fbv2odzJXe0azAfGClI1za7JSCOQKJX2o0T9KEx20Cd6xsvg9nd8a132KH7KLf+xt1waT8ET70qdec+iI4uIC1xDTvrHPI+Q+0hVrNiozbbZkKgpiaSCJ+UfUs1+opxM5Fa6pCctRiT5iYRL4ylIpGV1KVFhR1X2VHuWCi5UVzyM01UdsyWtVhsbGysSBbi+dr1y5eqmTVsmTpjSw653G6v2piYWJi1apumYmbZq165Tv36DZs2cu2vXnlu37rx//yE4OJhVDlE2BABAIAQAyB54QYhRaDzDWUEvZtU9sc2hwCrrviMB/kc+LLMq2GRX5LQr0mNv1K+C+VAJVfHZpGYoECLR8Kwd9J5Yttk9vPdD/6oX3Qscf8elPQR+4xQ64VbbyXPwY9EOr4hH4TKRXCPLPrmQ1QNJLCUfKX+LqtcRhS2RVfyuBPjNIy1CZPWpaiTR7KWsv5QEUarIJjVDFs/kcnlQYNALZ5fDh4/OnTPfpqsdi3NpTYDfPhYtrXr36r9i+erz5y+xFlOxOEypVKJmCACAQAgAkEUpQM2zYKZ2DpRsfxrW42hgtQ3+xZanbw5MIRmWWx1ivjt64U3FVS92KZHI1Fl4zU5LSIRKy+4EHvgUNeCRf/WLHoVOpHMOTH6KnHRjZcMxz4NO+sWwllRWMMzSUpFGd9mPd6GaPUTRS98F+lM658AUjgGRNyKqKVR7nl04pDSOkiz7GfA8Hx0d4+HhefnSlYULFnez7dHSvHX65sAkh1UaLS2tWdlw3dqNd+7c8/Pzl0pRMAQAQCAEAMjMKKjS8sES5T0fFsyCm20XlVyR0Tkw+WH5M3zIGdmJN6w4SaSqTO4j1RIartI+jZA5vA9refNT0VNuGZ0Dkx/WUNrhrs92r0iWSKNZOM/kSpGuOzRU1xqqXkrkzYmkSMbnwCQnH5GWY9VIdtWQCu91JcrMHT/DukOjo6PfuL5xdDzI7gRatrLO0ByYYjJs367T9Gmzzp49//HjJ0mcRBBQLQQAQCAEAMjQFKAVeLFUcfdT5FSnoHq/i4ovz/womPgE/OzAipPSI6+1HyPZONNMaJ9jb7mj1DwbCrrsrbjJVe9MKAl++xiecmt169MWj4g3MUo2mDRTAgFrEA1nUZCo5hNZPd1Nv8yOgklaSYsTeTuq3q2bX8om2WQ8Vo6LjY178+bt7l17BwwYzDo5MzkKJomFVq3bjRs74dTJ0ywWss5VNJECACAQAgBkQBRkKxBilWw/RPTiW2xMaJZHwa9iYaW1EYNOyS+5s+UWumUVGfQTYGlDK7yPVW50D2+eDaJgklhofdtn38eojxKVbh5pBkUC1pnJBrrwr4lqFZE1zPoo+NVhsbAz0Rwhgj+lqox6DhCiUChY7jpy5NjQISMyujs0TaeNVbtJE6c6Xb7Cps6o1Wq8ZAEAIBACAKTf+2CVll3Yk+x8FmK+x7/EiuwTBb9qIq2xMXLmVeUTEVt6ke6jRth1QbZG4rhfTIe7voZZ0SCamlPy9Pu+f/tfCYoLV2rTv4OUsOuafoTNDpVbEkmh7BQFEx1ZOaocRrS3KYlK93kzrEeUzXG5dvXG5EnTsrYq+I3DppIuWrjkyZOnbNgpLhYCACAQAgD8eAygbIgo6xENH3pG9LND9oyCiZdVhFjskTq6aANi2RaI9PoZsKWCL6MUbI1E5Qvu+bJlFEw4+Y+/rePkucotzD1WqUi3cTNEXxh8RJTjiLR8No2CiZdVyBoR9WYq+LBPMtLn+2eFQbnivdv7zZu2dO5kmz2jYOJlFX37DDhw4FBAQABKhQAACIQAAD+A3RgMjIvb/jS4+Q7/osuyeRr80kFaZV3U1Cusu5XdKvzB1RSCfnjMCb8Yy1ufslWP6H90kJ50s3vgfy1YEpsOtwrZjcEQotmn2yYvKZDt02DCxcKSVDmQ8vcpkfxgqZDV2aKioq5fuzF2zARzs1bZPA0m6iBtP2/ugufPndnSQtwqBABAIAQASDO2aF7zNjRq2pXAXzbklCj4pVRYcoXY9rD84gchWvHdcYCNEmXbBVe+E9e67Jkvh0TBL6XCY2+bXfXe7R0ZrPiR9lE1FdypaiGRVckxUTBRqZDKzYjmsG4EzvcOINVoNCKRaN8+x+7deuaUKJi4VMguOl666BQZGYX2UQAABEIAgLSkQZlGcc8nrMcxUemVOS4NJpygJtsku57xIXEk7c2TKoG4RitHPwtk2x24nJYGE07F8+4LXEO94lTfUykkcso/IYrBRFosB6bBhFJhdapeRYmITchNcxpWq9+//7By5Rorq3Y5Lg0mzCC1temxe9ceNmmGrUzEKxsAAAIhAEAqgkCcSnbGLcRyb7YaJfqdk2aqb4hZcVfrG035NCQidvvunlja/YFfkZzTJvpvp8Tp9yOfBbyKVqjTlgmlVHuFKDoQyU85OA3+kwnLEeVk/VKKNGRChUL5/JnzzBlzzM0sc2ga/DJppm2nNavX+nzyQSYEAEAgBAD4ZhQkRIhRSg+8DDHaKco5lwb/40phRYeoedc1XhHsSmRqfggyrXA1KK7tbZ+Cx3N8Gow/RU6+6/dI9DRCrkpVJmT/jYRqzxC5OZHkz/FpMGFXoXIY5V1ZE2hqngNKhfLvh4/Gj5vEui5zehqMP2xX4eJFSz09vVgTLF7oAAAQCAEAUsbSoGSPc3DjbbkjCn65Ulh2VeSkyxo38X9mQpYGzwXEmt34lD+3pMH4U+D4W5v7vg/CZP+dCUks0Rwkssa5JAp+yYRFiKIP4V3+MxPK5Yo7t++OHDEmd0TBhMNWZcyYMfvNm7fIhAAACIQAACkFgTiVdN+L4Kbb/Q2X5bJAGJ8JoyY7aT6EfaN3VMGTCwFx5jc+FshdaTD+FDr5jjXB/h0u+0bvKCFS3W53WRMiyZfbAqHuGFBlf8q/+kbvqFKpvHfvwYgRo9ntu1wWCOMzIWuCdXv3Hr2jAAAIhAAAXycBmZp1igY32Zb7ouCX3tFyq6PnXtf6RNGUEpGKJ9eDJa1ufsx3/G3uS4Of64Tvej70d45UaFOeOyrXd4q2yI1RMOEUJmwdhe4+YQqJiE2RYZ2io0aOzX1RMOG0smgzd+4Cb++PmDsKAIBACADwOQ2qtPJz70PMdvsXXZaLA2H8fcKYZXe0QXFJ9hNqBfIoXN75nm/B3FgbTHKfcOgT0bsYRdJQTNREe43IW+eee4P/2jtagijH69bWf72QRKvVurx4OWXy9FxZG0xyn3DZ0pUBAYHYTwgAgEAIAMCm8QvKh77i9o6i3J4G/5k7Wm193LanQqwy4SfAopF7rGrg44BCJ3J5Gow/RU+6zXgZEijXJEoDPOWdqcIu96fBfzJhWaJaSElkQiZk5TI2cGXJ4qW5ZorMt09b646bNv4eHR2DTAgAgEAIAHk8DhJ2rS68/0lRqRV5IQ3GH3ZPUnbyLVH8M1ojSK6Z6hJc4rRbXkiD8efncx8c3odFqeKv0hEqeBPlGCI1yBNp8J9MWIOo/9Bt19AP1w0ODtm0aYtlK+u8kAbjTzfbHocPH2UTdPAqCAAIhAAAeRcfJY+efS2gwpq8kwZ1x3CZ2Paw8pEfGzDDVg5u9givcsE976TB+PPbFa9jvtG6ATMkmq1u1xXN8k4a1J18RNaCai+zErlUKjtx/FTnTrZ5Jw3G76wfPGjY7dt3MWAGABAIAQDyKKLUSnY+C6r3e95Kg/Gn+PLIiZeV3pEXRbHG17zzWhpkJ9+xt+zO5OPwaF5zmMjq57E0GH8KEEVPrdr17t17gwYNy1NpMP6w/tipU2ewATNoHAUABEIAgLyXBgWifOArbpdXrg6mMGCm6voXDvf7Xff+KW9cHUx+DE+9m/b8UkBkFyF3Lpn47yNISnu+67dwQe4fJPONy4QbNmyOjY3FSyIAIBACAOQtvFgaOfaCqMyqvJkG2flgYD+9wfoyC65yR97kzUDIHb1X/czw3W8MlLFc3gyEMYHcvh1FrSzrmLQwz5uBkJ1ePftdvHgZWygAAIEQACAPIRpests5jzaL6o+vwVLHIvObGk7jOm3jtjzKk4HwFXd4bb4DNbtc5Z76sVpZnkuD2hju/jVuUN98JkZlTYyb5dlAyBpHp02d+fHjR7wwAgACIQBAXqF5GxpmezjPNouy42ywpH/hGYUKjecqzObGn+YOuea98uBl7mAXbn++4oe4xU+56Kg8FwgDPbk19pypEWfS/CcT419MWpjl2UzYsUPX3bv2KpVKvDYCAAIhAEDux2bJRNvfCqy8Ls+mQR+DpeuKzK1eaBLHAiE7Zus5h7t5LBC+4A7P5RzLcfs5dlpc4Jw8OT4vpUFVJHfpJGfTkaVB/TEqYWLcMM8GQnZGjhjj7OyC6TIAgEAIAJD7Kf/2C227n61eyLOB8EGRxbaFpxeIT4PslJ7ODT/KOb7MQ4HwyEnuQBtWHowPhEUOcjP+5kLD81Ag9HLlFs6KLw/Gn4ImRpVNWpjm2UBoZdVu/fpNcrkcr5AAgEAIAJCbsW3sUfOuB/zskJdvD64qMrdKQnkw/hg5cCtv5ZlA+JI7NIvbXyI+Dcafhme50x/yyk1CTTR37ijXrnVCGowvEhY3MW6Ql4uEw4aOfPzoCV4kAQCBEAAgN1M99g+13pdn0yA7j/TlwXyJ0yA7JaZwI47mlZuER07py4Nc4lPQUVckjIzME4HQ+42uPPhVGtSdAvoiYd69SWjVui1bQaFSqfA6CQAIhAAAuRNR8zHL7gRUXpuXy4Pri8ytlqQ8GH/M88hNwpfc4QUJtwcTH5ML3F9euT8NqqO5y6cT3R78qkhYEjcJX7q8wkslACAQAgDkTho3sThvDxd10Q8X/Sl5GowfNzrhNHc4txcJjzpxB20Tbg8mPmzc6NKnXGxuHzca6MWtWZr49mDiw8aNVsvLOwk7tO+yc+cerVaLV0sAQCAEAMh1CJHsydO7B9k5UGR+48JTuBQDYeEJXOft3NYnuTwQHl7POdZIngbjj8017oUolwfCv29wA/ukmAbji4R5fSfh9Gmz/Pz88HoJAAiEAAC5Lg9K1RHDz4qKLc/L/aLTCs8uVmhCyoGQnTpLuAVXcnV58Cl3cAS3v8C/BcJKx7ndrrl5tIxMzDnu5Fqa/HsgbG5gYlw7L3eN9urZ99IlJ7xgAgACIQBAbqO47xNiuTcvlwfvF1ncufC0f02D7BSbzA07wh16nXvHyRznDlj+WxpkJ/9+bvIDLjwi1wZCz9fcvOnfSIPs5DcxqpSXu0ZbWbRZs3odukYBAIEQACB3EUjs+oeB1Tfk5UC4vci8OoUmfysQsq5R69+5TQ9zaSB8wx1ezjlW+kYgZKeNE3ffJ3emQT6Wu3WZ69Xt24GQdY2WNjFukpeLhBMmTPH09MarJgAgEAIA5KI8GCmPGHlOVGpl5kQvUYkVgb9uDm66PfUnqP6WgKrrROVW+5dY4W+Y/g/Jy8B+euHZJQtN/FYg1HWN2v9I12j+4+/Kn/1Qx8mz3hWvJKfGJY9ip91S8RXe/ttXqHbRw/CU2w8EwsfcwZHc/kLfDoRVT3B7XDltXFrjVn4iLUdkdYms3r+fGkRaPBVfqgCRlk+nL/XVkYRy+3dwFqb/FQgzsmuUXdJjg1v69h3Yr++gFE+PHn2s23TI6q7RfpfRNQoACIQAALmJyjlA3N4x02pxwQ23Kpw8iIZP21Fp+eA45QPfmDX3Qy32ikqnZ3x9XGRx98LT8387DbJTZjo36jh38Du7RllgW/5OHKnSagSS5LyIVNjc9/vPr1DkpNvSt+JoNZ/8K9wXS63v+PzABcKz3MG2306D7BQ6wM16xEWldSGhtBRRL6ckjs2y/dcjBFHlNF3e+/aXYmFPs4c9Z7/5pV4RRa+0BkKfd9ySef+ZBtkpaGJUJYMWEvaw6332zDmNRqP9F2Kx+I8/tmVtIGxj1X7Tpi1YSAgACIQAALmH9PDroEZbMy8QNtqquOb1PQ+U6LpbqZYXwqTSAy9DzHb7p9MUnONFFhj/23zRJF2j3XZzu559dyBc6SaO0/DJv7PX0Qrb1AVCFimlWiH5V3gULmv3I4HwyBbuQN3/DITs9LjOvQn4jkC4ihLFN/92tVRzgMiq/ceXUthS/r9W4QlviaJPWgPhs7vciIGpCYT5TIzKmRgbpXvQMjWxmDp1poeH57d+Awi5efN2p442WTtrdPasecHBIXjlBAAEQgCAXCJ60U1RhTU5IBAmToZaQfUyKKzfiXTpdF1TZG6VFPfRJz9m67g1d3JhIDw8j3MskZpAaHSeu+yZEYGQBTkXquhGJPn+/UsVIaoFlCjTPRCyC4SXT3EdrVMTCNk1whIZsaGeVd5Y9e8/K28sMc6aOTfLN9S/cH6BV04AQCAEAMgN+GhF+JDTmblwIh0C4T/v+4nGTRze98QP1gnZwolJhWcZfGPhROJTazE31ynXBcJH3KFh3P6CqQmE/zvK7XidMYGQyKh6BZEW/tevI29KtBdS8cRIcyCMDeb2bkvNBcKEa4S/pnvKGjRo2J079/7zm5NIJIcOHmHTPrMwEPaw63Pu3AW8eAIAAiEAQG7AMpW4y8HMnOeZboFQnwnlVzxCWu75kcfjYrCkT+EZBVKTBtkpO52bcCq3BcKjl7mDXbj9+VITCAsf4BY94aTRGRAIGe1FIm/0r+NklIOp4JMRgTDAg1ttz5kapTIQsmuEVdO9X3TBgsUhIaH/+c2xrtFHjx737zcoCwNhW+uO27btwIsnACAQAgDkBoqrnrrLeDk0ELI3/1J19KJbAT87fPfjuVZkkXXhaflSGQiLTuL6O3L7XHJVIDziyB0wTk0aZKeAIzf6HicSZ0wgFHyIcpRuKmkKX6QCUW+iVJ0RgfDdc276xFSmwfhrhD+btDBNx4jVpbPtoUOHU7nfLyAgcPUqh6y9Rmhvv1ypVOL1EwAQCAEAcjyJo0tQgy3ZJBDqxmUqtUSp+eqoeVYW+ddvgFD21UIs9n734zlSZEHz1EyUiT9FJnA2O7ntT3NXINzMHaidykDIjt11zjUgYwIhux+o3kqk/0upX7Q15e+m7kOCNAfCJ7e5oQNSHwi5dJ8rM2b0+BcvXqbyd1atVp8/f9GqdbusCoSsnjlj+uygoGC8fgIAAiEAQA7HVtKvecBW/GWTQCg9+EpsezjU6s8vp80+sc3hqLnXlY/9iSLl+glbR8GuQX734/mjyLxfv72SPsmx2sxtfJCLAqErd3gp5/hz6gNhq0vc7Y8ZEwh1f533iaJNsi9SkCgnUxKdEYGQTZS5foGz65qmQFjKxLhxeuUri5ZWq1evjYuLS/0v7uvXb8aNnZiFRcKxYya8d/uAV1AAQCAEAMjZWDkuet71H+m3TN9AyHYM6tIpGxKT6IiKL2dbB4ONdsjPurFthCl8Fypt9PwborKrvuPB+BksXVFkTqVUjhiNP8ZruJW3clEgdOEOz0zliNH40+gsd9Y9wwIhiSSquUm7RmW1iMaRRb2MCISaaO7cUa69VZoCYXET4wbpNqOlRx9W8SPJyuCCIMTExEZERCb/FsPDw7dt3WFuZplVgXDY0JFPnjzFSygAIBACAORsQpwycvzF9F3y/kOBcNW9gEprU/6DxZZFDDureR+WQoLQCrHrHwZUXf8dD+ajgf2cIrPLFJqYhkD423Ju8bVcFAiduUPjuP2FUh8Ia57iDr7jhAwKhCz1aY4SaY1EXyEfUXSngmuqn9ZpC4SqSO7In6kfMRp/DE2M66ZXuJo2daa318cUfh1iYm/euHXj+s3k/0qr5dm/6tq1e1YFwr59B15P6YEBACAQAgDkJHykLGLoGZa1ckAgNFga2na/8m+/FAKhQOL+eBJYc+N3PBhPA/vJhWcVT+XOifhTcxE393LuCYRHn3IHh6VyxGj8qXSc2/ma08RlUCBkie4dUfZN9MdLEJW9bilFxgRCmZj7c1ua0mB6bp5gEzu3b9+pUKTww/H09Fy8eOnmTVtSHN/i5eU9b+7CrAqEdt17nz17Hi+hAIBACACQwwNhmDSM7fHLxDT4I4EwzO6oyiUohUDIk9jNjwOrb/iOB/PBwH5U4ZlF0hQIq87nZlzgjuaaQHiPO9g39WmQnbJHuA0unCo2PQIhuxZIkrVEEglVryGS4p/HyTTTrx9M0lGp1V8pjPvxQBgTyG3fmNZAWNjEuGa6JKvBg4bdvXMveb8o+yd37963s+s9fdosby/v5N+lVCo9fPhoS/PWWRIIbbp2P3rkOF5CAQCBEAAghwdC/5iwHsdyRCBk/zxu6xMhNoVSCRtDGmN/O6DCmu8LhCMKzyyUpkBYeS439Rx39E1uCYR3uIO90xQIyxzh1r/glOkSCPlnVHuLUlWSv1KqvUbkJvo/np8oh1Linyz1+VD+ARUCfzwQRvhzvzukNRAWMjGukR77GywWLbIPC0uhEZrNmNm37wBb8NCnd/8rTn+leMOQ3eIbNHBolgTCzp1sDxw4hJdQAEAgBADI2TReEWG2h7NPIIzd9CiowR+Bldd9dapvEHc5yAaQ8qHSFPdPCFHyyDEX/It+T+PrewP74QiEaQyERQ9xy59x8pj0CITaK1S9gQqfkv2lBhDleP2frUjUv7OnarI/6ETZWkIh4McDYchHbt2KtAbCn0yMq5m0MP/xWHXo4BEW7ZJ/Ex7uHrNmzmX/DVsvsXnzlhR7SnULCVevZUsgMj8Qdupo4+h4EC+hAIBACACQs2l1gfBI9gmErADIB8VpA2K/OoGxrLWVyDVsSUaKf0r1RCTueOD7Hoybgf3gwjMLpj4NIhDu5wwOcvZPOVn6BMJLRDGEas8m+xdqqtmtS4PytpR/mPRfkhiqXk2Uk9IrEK5dnjWBcMyYCS9fvkr+HfA8f/PmrW62PeOX/k2bNtPbO4WuUZVKfeHCJXYLEYEQAACBEADge2iyWSD8DqxfNG7To8AaG7/vwaBC+B2BsPhhbqUzp0ivQChvSVQLKUl2G5B/ShR2RDU9hUuG/Auq6EGUI3N0hdCylfVah/XR0THJv4OoqOjdu/Ym3A/s3au/k9NfKTz5CXV1fTN+3CQEQgAABEIAgO/BynFhvY7l6EDIxsywYTO6jYXf9WA+IBBm7R1CFghlTYnCRpfxksadCKrZTzQnkq0f5KnmIJFWJ8oR6RIII0XcH+u+Y6jMj94h7NWzL6vvpdgv6v7BfeaM2Qn/pZUV6xr9Qy5P4QfIthSyIaXsqiECIQAAAiEAQNoDYZg0vN8Jf8NlOTQQ8iGSqBl/fd84mfjjbmA/pvBMgzQFwmoLuFmXctHaiYfcwQFpCoTljnKb0mvKqC4QNiayaqxBVDc49Otgp6sNpjCDNIiqphJJ4fQKhDFB3I5NWTBldMaM2T4+vskfPpsfc+vm7S6dbRP+y/iuUS+vFH5rtFrtrVt37Lr3yuRAaGvT48SJU3gJBQAEQgCAnI2NY4kYflZUYkVODIR8YBwbLqpbP2j4/Q/Gy8B+SpFZJdIUCH9dzM1zwh5CbVz6BULJT2yEDCUhycNRsm0T7C/+DpFbEEmB9AqE8nBu3/bv2ENY+0cClXWbDju271Kr1ckfPmsi3bP7T3Ozr4p+bNao0+UrJKWhSmwh4fx5izJ5tEzPHn1YeRMvoQCAQAgAkMMDoUQVNelyQNlVOSsQEqVW+dA3YtiZgCrrvm+4aML5ZGA/v8jssoUmpiEQNlzOLbmWvoHwXYzS7sF/B8Jip9wc3ofJUwqED8NkbW9/XyB05g5N4PYXSX0g/PUUd8SNEyTpGAjZskFTtmoiFX/5MjZclEjLpGMgVEVyx/ZzlmZpCYRGRU2M6/1IoBoyePiD+w9S/A7d3T3mzV3AEmPi06mTzR9/bE9xQ71MJmMrAS1aWmVmIOzfb9CtW7fxEgoACIQAADkbUWljFt4M+NkhuwRCgRCNkPJR80Sm1vrHyC+5R06+HNx8h6jc6h+pDcYfP4Olq4vMrVxoUhoCYYu13Krb3xG9ipx8t+RNaJQqhUAYKNeMeBqQ//j/27vv8KjKtAHjB1ESQMG69nWtbLF8rhhFUASpAUSqBZVdXAVERaRF6aARpChIEaX30IvSFEMokVCSkA7pk0mvk+nlvOd7I+q6MoQkJCGZuX/X+WvNZmF2Mldu3/Jc5DvcvjXu68RCp7tlor1Zpa32JlYlCNecVFaMVJZcW/EgfHSzsi1eEdUbhMYbhP0TTbNc7N9hxGrWAWXDCasvCB1Fyta1Sqd2lQrCZn4t/1HlmpK3xYwfNykrM8vtX7G01JiQcObUqYjfP+HhEamp6U6nmzePXDYMPfpTLQ8kHPj6oJ9+OsZHKACCEADqexGKkpmHqnxFZ7UHoYy9wnd25g/a4uZ5bWNO95WZfgsy7p+l+9Mnl7gw+PvnS98xDzQaVokgfHaOMiukCunVcG3UeycyMy2O8//iFpcql/5u2hRb/ndouz/pxxyj2+EbG9NLHvz2TJWCMEJZOVlZemvFg/DZnUpwcnUHoQw8Sz9NjSn//ao5g4SpxS9fX01BqBqU/TuU3j0qFYTX+bV8pMo15d+1x6qVa+Txvwv8UAo5dkK23x8el0u90OuSkaEPDJxRa7tG5f/QkMHD4uMS+AQFQBACQL1nXBmuf2huXRlMPyMk495ZcunPzXP9tPTmU6qxA3971vsGPO7zTkVr0HeI0mORsuCnKqXX6f6H06OLre5CRwsrMHcLTilnkbD5xpgpUTmFdjdrRHJA4/wzBbduiavan0pZ+YWy9K8VD8Lee5WojGoPQkWWnuZY7ebQ4H9fpkLN9pEobVS9QSifnw4o/3ql4kHYwO+xm/web1nloHrrzaHhpyKq8adYbiXdtm17p45daycI5aWmo0aOyc3J5fMTAEEIAPWe5YfE7DaL60gQFk/7UXfbp7U8BuN73486+rzXoIJBePXbyisrlGWnqpZej+85uzuz1P3v9C6xVVfSal9iQ3dN2DwoZkiYPq7EprrLJXnNzJjwrEbroqoYhKtWKctaVbAGGy5VBgcr+twaCEJ5cahthCaKLvhmLZtM2PnXL67OIIw9oYx8p1JBeKvf409WrabatH5Wjh80GAzV+FMsFxUjIyLlql3tBKHc8jpl8scOu4PPTwAEIQDUe2Wz6Z9fVZuTJ+paEEY2Hv+iz/sNKxiEN41QhgZVYQjhuadZUMyc+Dyby/0imOy60Hzz2Iisx3afldtHm26IviYo+s6tcV1+TPkqsSDFZHeo7v+LpwotPSpwJ82F75XZpSzvXsGLRhsvVyb/VJkhhJUIQnm1THvNdegCb1WbHE0hTLfVRBBmni2bTf/EY5WaSl/Fmurz832hqiqq9wdZzrJfuOCr2tk12uG5LosWLXZ75SkAEIQAUM8Io71g0Jb0ayZ7bRAmN5443GfkNRWcPNFighKwq8rp1aBs12halLtdo7/0uSpyrc7TRZYfso079YZv9aVH8kxnS23ybtILHSCzq2LR2YK75DUvVQ7CNaHKikHKkqsqEoR3rFO+jqzMFaOVCkLjbcL+hfw7ucu8FM06WJReWRNBaMxRli1U2lT0otEmVZ45ITdbfjBiVGJiYrX/IMsThj/8cKBH9xdqIQj79C5rWj48ARCEAOAZRaiVTDlQmxlW14JQPrN8R99dwYtGW89Upv94CelVdlPovIQCt7ME/1s0oqwM5UKi3CHqvNhCTGSRpd+htKuqvF/0l3tlxilLb6xIED65TdlzVhE1FIRlAwkHamqyu6/8Tpgf+91XVmcQukqU7zYr3TpV8EaZ5n4tH6paSj3XvvPChV/ZbLaa+FFOTEwKCBhXC0H4xqC3IiIi+ewEQBACgIcwb4jK/L8vvTkIN/t+2Mrn3YvXYOOhSq/FyqKwSwlCeddom/1JckpEtewZlHfMyFH1F72etALHCBcoyx6sSBC+uE+J09dcEMqrZR7VnFvP+9cWcvzgp6L06hoKQvmcCFHeHFjBA4R/qvKNMq+9+q+DB93viTWbLaGhxxbMX1T+s2b1utjYOLffQc6rWL167bNtn6vpA4QBY8fl5ubxyQmAIAQAD+E4nZ3TdUWtHSOsg0EY1nh8P5/3r6rIAcK3NigrIi6xvpqsj+4dknY0z+y6tCaUNTg3If+BHQkXHWBYgWOEO5TlXS5ag01XKB8eVYoLazIIS5sK2zjZR39oPK2s8RrUXBBmxCsfj6/gAcI/+z3eqgop1erJp8ePn5SdneP2/83k5JSpUz/p2KFr+U+vF/otWbLcZnOzq1ZV1Z9Cj8mR9zV9gFB26YVmZgAAQQgA9Y9abJGj3tNvmOa1QXi28cQxviNvaDT0IkH44GRl/O5LTa9fbpeJ9g9O2ZlhMJW7d/RCZEjqzA45urDFzoQr10ZVwx9p9VFlxWBlSdPyg/B+mcNRitNQo0HYQFi6a65Tv/8izbFGmO7/3y+r5iA05Sqrv1batbnoftGmfi1bVC2lunfruWb1WrcpJfcFHwo53K/vSxWpyrFjPszIyHD7xsjUZ07/9LMaDcL+/V7Zu3c/H5sACEIA8KQiFKULj+lbzPHaIExtPHGp79iHy59G6DNE6fKlMvdItQRh2Trhhuh/7j4rRwvGlsiRE5VYK5TnD+WO04Ghuju3xTWslhr85RjhdGXp3eUHof93SliaUtnWqmQQyl2j92qOb8o68JdaytFso0Wpb40GoTxGeHC38nLfiwbh9X4tH63aMPfBg4eFh7sfP2g0GletWtP2mfYV+VYDBgwMDj7o9vvIlcPt23d27NCl5oLwnWHDU1NS+dQEQBACgEexHc/I6bC0dupL//fPTRtOq/nm85+iD/fpbgms/SCUT2jjcT19hl9RThBeP1x5Y52yMqK6glA+cnHvls2xbfYljQ7P2qU3pBjtZqf7o4Vyc2mR3RVZZF2SVPjaUd2D356REywaVN+f5OdFwk3K8ufKGT7RaJky6rBSVFiFIGwmbAGa0Gki74+PY5Uw/f28/4qPsL6hqbG/fI3rW2Fue97XNBSWlzQ1ws33dB0Ulh6V/kOWKsnRysSx5Q+faOjX8o6qTSBs/VTbyZOnpafrit2JiDgt1/0qODRC3kwzd+58OWfi/O9TVFR8+NAReelLDdVgu2c7zp79hdsNqwBAEAJAPaaW2gre3pF+fW3sGtXd+HH204vz+qw9/8l8eG56symXJQiTGk8M8B15Yzm7Rh+aokzYo1Rvg/16zcwNm2L+tiuh/ffJA47oRp3Kmh6bt+BMwdeJhfKZl5AvVxHfPq7vFZL25N7Ev2yLl/MJG9TAH0NZc0xZMURZ0ric/aIroxSXofJBKO8ONbUQFn+5F/SPj/nxslx005C3y5mEv36NnzA2P+9rGgjjncLcwd33bCuMt1YhCC15ypol5e4aLdsv+teqpZTc6tm7V/8R74/6YMTo8583/zOkcyf/is+ueKFnnwt9q8Fvvd21S48aCsIX+w/Yv+97PjABEIQA4HGEMK4K1z88tzbqq8kkOfYwvfmU85+0qydflho892zwDXjiQneNNnlbeX6RMv8npUZK7L8LhnIf6fUbY27dEvfnbXGy/eQjB9PfvDm2eVCMz/qoarg8prwnUlk1V1n2d7c1eMVSpe8+JSqjCjX464JeaSN3z5X/e1XMb88VZRlZia/5/XPVz/+o0n9I1aAc+1EZ9Go594ve5Pf4Y1WuKdmEcp3Q7SP/UaVmyssmlLd9uv1W8j+X/7SG7hcdMzpAr8/k8xIAQQgAHsh5tiC337q0ZpczyS7vE9F4/L99RjR1O6H+rrHKe1uqd79oXXxW71GW93U7of6m1cr040ppUZWDsH48OcnKnECltZ/bIPTxa3l31e4X9Yynm39PedCR+0UBEIQA4KHsLsPsw/r7ZnltEKY0njjfd8zffIa5CcJn5yizQjy8Bsuek8rKKcrSO88PwvY7leBkRS318CB0FCn7tiv9errdL3qdX8tHvLYG5QLmkMHD4uLi+aQEQBACgOcm4ens3B6r0ppO8tomPNZ43M8DCf93kfCWkcpgOW8h3AuCUC4SbleWd/3D1TLXrFDGHVWKCjy8Bs89ugTl4wnnXy1zbvzgk14bhJ07d/tq0ddWi5XPSQAEIQB4LGFxGGaEZNw902uDMLnxxNm+o+9t9LtFQt8hytOzlOnBXlGDZc8JZeVHytKbfx+Erbcpe896/vLgucdepOzerPTq/ofTg9f6tXzIy5cHIyNPi8rMRwEAghAA6h97eKZcJJSXvnhtEx5tPO5Fn/d9f1skvG1U2fLgslNeE4RykXCrstxfWXLluRq8bpUyPlTJy/eKGjz3pMeVLRI+9d+ThI38Wt7l9/gT3rs82Knb4q++sbA8CIAgBACPV7ZI+PkR/QNzvHmRcKHv2H+cG1Ivlwfbf+4dpwf/sEg4VVl6l6zBBkuUDruUg8lVmzZRXx9bofL9DuWlPr8tD17vzacH5Z2lw95+LzYmlo9HAAQhAHgFR0J+/itB6ddN9domPNl4/Ju+I5rJRcJ7PlKGy+WycC8LwnPXjfZXlvjctlaZeUIpKfSiGvztutEvpitPt5JB6OvX8h5vPj3Y8/nea9ass1pZHgRAEAKAdxAO1bThdOZj8+XAQK+9bjTIN6B185ENX1isfBnqdTVY9oQrq+Y3WvHIS/sbnM7wltODv3+cxUpYsDJkUMMnWt58KbMH6/vzdJt248ZN1Oky+GAEQBACgBdx5ZkKx+zR3T7daxcJY5tMmPrMgrsCDyirIr0yCOUi4aF/7hweFPcnS7HX1eC5x5B1xfoVN3fv2tJrZw/KzaKvv/7vgwdDVFXlUxEAQQgA3kQI2wl9Xq816dd66cbRzEfmRS069uaPyc2Cor0zCG/eHDsp8sfsogHC2Ng7g1AY/5KWOPLTwMlylcxrJ9EvWbLMYCjlExEAQQgA3peEVqcpKCqz5QIvrMH0WwKLx++3pRcH5xg7/JDccK3X1aDPuuiXD6dHFpUI5y5hbi1KG3hfEF4trG847fFhYcffHvquXCvzthp85un2crNoWlo6H4YACEIA8FJqobkk8GDGfbO8qwavnZr3+kY5fkNzCZNTXZFS9PB3Zxt4Uw02XBv1zP6kb/UGm0toolhzzBem+72sBhtpls6aK1junjYajTt37Hqx/wCvqsGnWj0jBw8eOxbGZlEABCEAeDVnYkHhsJ26WwO9pQabTsrptMyy94xmdZ57BXKszmlRuX/eFu89Qfj3XWcWny0otrt+/RcDacI2Vhj/5DU12ECY/6k512ma+dwLkJeX983XS7t26eE9Y+hffunVb3ftZvAgABCEALyeS7Wf1Oe9uD79hmmeH4RNJmX5LTSuCleLLb+9AELTkoz2d09kXr8xxhtq8I6tcdOic7MsTiHEry+BS1OjhHWQMF7jFTVouk+zz9FEwW/vAblKlpqa9tlns9s929EbarDn831WLF9ZVFTM5x8AEIQAIKdQuCz7E3P8V3j8ZMLMh+Ya5h515Rj/+Apo2qlCy2tHdc2DYjz+IpkPTmWdLbWd9y5waq4jwtJbGJt4+kUydwrbBE3948E5l8sVGxs3YcIkebLOs4PQv2uPL+ctyMrK4qMPAAhCAPi1iMwOy674nA5L05pN9tQa1N83Sx6YdGUYNOHmFXCo4kieqU9IWtMNHnvpqFwCHRqmjy62uoS7l0BYNOd+YfGX5+s8twZvFbaRmnpWc/cmsNvtERGRAWM/atP6WU+twU4d/WdMn5mWmibcvgcAgCAEAO9tQpPdtDEqu+3XHtmE+hZzSqYccCYXCvWCvwfbVCEvHe1zKO0aT1wnvHFTzOCwjIgiq/PCr4B8E2iu3cLc1TMHURhvE7YPNDVObhG94HvAZgs7dnzE+6M8sgm7dO42/dPPEhOTqEEAIAgBwF0OGGzmTdE5zy31sOGE+gfmFP9cg5p6kd+DzzVh75C0qz1rnfCGTTFvHZM1WHZw8KL/YkBzyibsIkp9PG5tcIRwlVeD55jNFtmEo0cFeFgTdu7k/2ngDGoQAAhCACiPWmoz74grO0/oGXfMNJmkf2ReyYwQZ0rRRWvwHKtLPZRrGnA0/TpPuWPmti1x8sqcCtXgL0zCuVdYennKHTMNhPEuYQsof23wf94DVuvJk+FyRl/7dp084xaZ7t1emDP7C1mDDJkAAIIQAC6i7DzhvsS8l9brbqnnsyiunpT11Feli8KcenlusBKrIvI8YVi+eehx/a1bYhvU55n1crjivdvjx0XmxJbIc4OVehdYheuQZh0ojDfW8xq8Qpj+ptkDNZHk9tzghcjzhNFRMYGBMzp36lava/DJJ9r06tVPDtVIT9exNggABCEAVKwJrU7bMV3BOzv198xMa1Iva1B3w7Tc7itNG6LUfLNW+d+D5WKajKiJp3Na7ExoWD+b8Mq1Uf/cffbz+PwUo12tSgjYNVe4sI0SprvLFtnqZQ36CHMrzbFYE/pK1eAv7wGnMykpedHCxb1795eLbPWxBuWu14GvDwrasCknJ5caBACCEAAqQxWOuDzDjJCsxxfWs2tmmkzKuOuzgre2WQ8kq27mK1RCusm+OLHwmf1JTerbkcJmQTHdfkzZkFaca3VeyptAE8ma4wthfqK+XT0qt4neoFn7as4dmiiq+t9fFVlZ2Zs2bXnzP0PatG5bv7aJPte+06iRYw8cCC4pKeHzDAAIQgCoPCHkyD7jusjcF9bobq4n20evnixHz5d8EmyPzhF216W/BsV21+7M0teP6m7ZHFtftonesz3+3RP6Q3kmk/PSD4wJTeRrzi3C0rf+bB9tKEwthG2spobJxe5L/iEQBoPh8OEjEyZMljMb6s020Rf6fv753NORUXLvK59kAEAQAsAl/EJsstuOphd9uC/z0XnpzafU8YXB/AFB5o3RruxSTa22DXJyw2VUsfXTmNwn9ybW8aXC5kExHQ+kLDxTkGS0O6tzi6BFuE5o9knC9Kgw+tbthcHrhaW7cCzTRHoFr5Cp0HvAbj9z5uzSpcv/NfCNunz76LmFwffeHbFt63a9PpNtogBAEAJAtUSh5tSVmNZG5g0IktFVB08VyjtRs9t9UzL9oD0iS1gc1f8CCC3f5tqZUSKHN8j1t4Zro+paCjZaF/3gt2dGhWfJsRkGh1ojbwKRJRwbheU1Ybqz7LKWOjdYwlczPyps4zTX0bLhGdX/HhDFxcXBwQenTQvs+XyfJ59oXfdODLZ9+eXX5n+5MDw8wmKx8LkFAAQhAFTrL8QWhz0i0/D5kZweK3W3T68jWZh+7RS5R7Rw9G7LvrOufJNWkysi8vbRM6W2bxIL+x5Ku31rXB3JwqvWRcmrRP8dmrE+tVgeenTV7JqQTVOjhf1LYXleGG+uK5fNGH2E6a/COlg4tmhqZjUuDJ7PbnekpaZt3botYOxH/l2fl5sz60IKPtXqGXnzzScff/r99z/k5uapKguDAEAQAkDNUA1WuYO0ZHpITrcVujumpzWddLk2iKZfP7UsBd/bZdoc7cwo0Vy19EuwxaWGF1q+iM/vFZJ2x9a4K9dFXb5Vwaj7diS8eiR9SVJhgsFmr61XQBNGzRWm2T8TZn9hulUYG17GVcGfU/ANzbFKU+VgCVftvAByUGFCfML6dUGjRo3197+cWSj3r/bp/eLkydN27til02W4XC4+owCAIASAmu4BoRZbrUfSDLMP5724PqPFnFq9hrTJJN1tn+Z0WFoUsNe8LdaZVqw51Fp/ATSjUz1VaFlwpuC1o7q/7UxovL5Ws/CaoBg5UmLwMf3ypCI5HkM2au2/CTRRoqnHhP1zYX1RmO4vm/FQm2cFS5tr5ic127vCsVZTz2rCVuvvAWE2m+Pi4jdu3DxxwuT+/V5u/VTb2jwr+GzbDnKkxGczZu3+bk9qSiqXxwAAQQgAtU012mzhmcblJwuG78puv0QeL0xvVmO3zjSdpLv5k8yW8/Nf31Qy85D1hyR5A2qtrQpeiCyxeINtfVrxmPDsTgdS7twa57MuqkHNbCWV14fK7Lx3R0KP4NQJkdnbdCVywKD98m8ONGlqlOZYqdne1yzthfH2mhxQcYUwNhWmB4Slt7BN1ZzfaapOzgu8vH9/m82WkpK6Z8++Lz6fN+zt97r596y5ARWyA9s+075P7/6jRwV8/fWSkJDD2dnZcl4in0UAQBACwGUjHC6X3iALzTAvVM6yz+m6Qt9ijjzaV10dmHHH9Kynvsp7baMcJmHeEuOIz1ONdq0uHZJyCZFndR7JM3+VWPj+yUz/4FQ5zr7phqjq6sBrN8bIC2N6HkyV2bk8uehEgaXI7qpjx8ScmsjWXAeFfb5me0ezdBKme4WxSbV1YOl1mvn/hKWPZvtIc6wWrghNGLS69CaQezWLiooiIiLl0MJZM+cMf+8DeajvmafbV9cYifbtOr7y8utjRgcsmL9QLgkmJJwxGo2qqvL5AwAEIQDUmTK0Ol26EuuhVOOKU8VTDxS8uTW3+8qslgsy7pmpuyUw/dqpF72HJv2ayek3TtPdOT3z4XlyyVFeaipvizF8GWr5LsERm6sabKJu35Yhb53JtjiOFZjXphZPi8p5K0zv/2PKY3sS79oWf93GGN/10VesvUj+yYtq5DLgDZti794e77cnUUbgsOOZM2LzNqaXnCqy5Nuczrp+X4hsdb3mOlK2ZmifIiyDNEsXIVuu7GLSa3/eVnrFxacIymVAOfPQdK9mbiUsvYT1Xc0+W3Nu1dRITS3URJ0+JudwOPLy8qOiomW2LV2yXF70Mnz4yNde/VeP7i/IgRDyyN9FDxzKL5AlKWceylmCg/79H3lM8bPPZq9atfbAgWDZgXIoIsMkAIAgBIA6noZCXkkqT/fZQtPNW2ONi4+XBB4sGru3YOiO/IGbcvuvy+21Jqf7yuwuy3O6Ls/tuTqv71rZfgVvbSsc8V3JlAOl80JN607LJceyCCyyXPZ9oVV6ATSbS820OMIKzDsyDPJi0sCY3NHhWYPD9K8e1fUOSesenCq3mLb7Pkk+nQ8ky12gfQ6lvR6qG3pcHxCRLQtwWXLRt3qDvL0m1+p01MtLI+Wf2Sq3dApXqGw54fhKs3+i2UYJ65uadYAm93xaupUtJJrbCXN7GY2a5XnN0lezDhTWYXIZUNhnas4VmmuP5orURH6t3RZTvT8EP8dhXnR07MGDIVu3bF++bOW8efMDA2fIM4djx3z4wYjR777z/tAh77w99F05OXDUyDEBAePk9TDyWOCCBYvWrF777a7vjh4JlRFYWFgkVyDpQAAgCAGgfpK/ypodMu1cmaXOxEJ7VLbtpF62olxLtB1Osx3PcERmyY2gzvRiNd+slto0h0vzrN99VSGsLiH3eWZZnEmlNjnm/kSB+Wie+WCuUT6heaaTBZboYqs8E5hjdZY4VJvqeb/7y82NFk3I9b1MTU0sO3aontDUo3KXqeYK0Vw/aa5TmhqjqamayNU0Q9lKo+ZZ7wFVyNOGpYbSgoKCjIyMpMQkeSHN6dNR4aci5NhAuaIory1NSkrOzMwqLCyU20HlJTEUIAAQhAAAAAAAghAAAAAAQBACAAAAAAhCAAAAAABBCAAAAAAgCAEAAAAABCEAAAAAgCAEAAAAABCEAAAAAACCEAAAAAAIQgAAAAAAQQgAAAAAIAgBAAAAAAQhAAAAAIAgBAAAAAAQhAAAAAAAghAAAAAAQBACAAAAAAhCAAAAAABBCAAAAAAgCAEAAAAABCEAAAAAgCAEAAAAABCEAAAAAACCEAAAAABAEAIAAAAACEIAAAAAAEEIAAAAACAIAQAAAAAEIQAAAACAIAQAAAAAEIQAAAAAAIIQAAAAAAhCAAAAAABBCAAAAAAgCAEAAAAABCEAAAAAgCAEAAAAABCEAAAAAACCEAAAAABAEAIAAAAACEIAAAAAAEEIAAAAACAIAQAAAAAEIQAAAACAIAQAAAAAEIQAAAAAAIIQAAAAAEAQAgAAAAAIQgAAAAAAQQgAAAAAIAgBAAAAAAQhAAAAAIAgBAAAAAAQhAAAAAAAghAAAAAACEJeAgAAAAAgCAEAAAAABCEAAAAAgCAEAAAAABCEAAAAAACCEAAAAABAEAIAAAAACEIAAAAAAEEIAAAAACAIAQAAAAAEIQAAAACAIAQAAAAAEIQAAAAAAIIQAAAAAEAQAgAAAAAIQgAAAAAAQQgAAAAAIAgBAAAAAAQhAAAAAIAgBAAAAAAQhAAAAAAAghAAAAAAQBACAAAAAAhCAAAAACAIAQAAAAAEIQAAAACAIAQAAAAAeK7/B8/ifnZfR+NzAAAAAElFTkSuQmCC;" vertex="1" parent="1">
          <mxGeometry x="310" y="602.75" width="68.57" height="36" as="geometry" />
        </mxCell>
        <mxCell id="JX4TtDDn6b8yOE6emrvu-24" value="" style="edgeStyle=orthogonalEdgeStyle;html=1;endArrow=block;elbow=vertical;startArrow=none;endFill=1;strokeColor=#545B64;rounded=0;" edge="1" parent="1">
          <mxGeometry width="100" relative="1" as="geometry">
            <mxPoint x="130" y="699.86" as="sourcePoint" />
            <mxPoint x="170" y="700.11" as="targetPoint" />
            <Array as="points">
              <mxPoint x="155" y="700.36" />
              <mxPoint x="180" y="700.36" />
            </Array>
          </mxGeometry>
        </mxCell>
        <mxCell id="JX4TtDDn6b8yOE6emrvu-25" value="" style="edgeStyle=orthogonalEdgeStyle;html=1;endArrow=block;elbow=vertical;startArrow=none;endFill=1;strokeColor=#545B64;rounded=0;" edge="1" parent="1">
          <mxGeometry width="100" relative="1" as="geometry">
            <mxPoint x="294.28" y="699.58" as="sourcePoint" />
            <mxPoint x="394.28" y="699.58" as="targetPoint" />
          </mxGeometry>
        </mxCell>
        <mxCell id="JX4TtDDn6b8yOE6emrvu-27" value="" style="edgeStyle=orthogonalEdgeStyle;html=1;endArrow=block;elbow=vertical;startArrow=none;endFill=1;strokeColor=#545B64;rounded=0;" edge="1" parent="1">
          <mxGeometry width="100" relative="1" as="geometry">
            <mxPoint x="235" y="615.83" as="sourcePoint" />
            <mxPoint x="295" y="615.83" as="targetPoint" />
            <Array as="points">
              <mxPoint x="295" y="615.83" />
              <mxPoint x="295" y="615.83" />
            </Array>
          </mxGeometry>
        </mxCell>
        <mxCell id="JX4TtDDn6b8yOE6emrvu-28" value="" style="edgeStyle=orthogonalEdgeStyle;html=1;endArrow=block;elbow=vertical;startArrow=none;endFill=1;strokeColor=#545B64;rounded=0;" edge="1" parent="1">
          <mxGeometry width="100" relative="1" as="geometry">
            <mxPoint x="390" y="616.17" as="sourcePoint" />
            <mxPoint x="450" y="616.17" as="targetPoint" />
            <Array as="points">
              <mxPoint x="450" y="616.17" />
              <mxPoint x="450" y="616.17" />
            </Array>
          </mxGeometry>
        </mxCell>
        <mxCell id="JX4TtDDn6b8yOE6emrvu-30" value="" style="edgeStyle=orthogonalEdgeStyle;html=1;endArrow=none;elbow=vertical;startArrow=block;startFill=1;strokeColor=#545B64;rounded=0;" edge="1" parent="1">
          <mxGeometry width="100" relative="1" as="geometry">
            <mxPoint x="235" y="632.5" as="sourcePoint" />
            <mxPoint x="275" y="632.5" as="targetPoint" />
            <Array as="points">
              <mxPoint x="290" y="633" />
              <mxPoint x="290" y="633" />
            </Array>
          </mxGeometry>
        </mxCell>
        <mxCell id="JX4TtDDn6b8yOE6emrvu-31" value="" style="edgeStyle=orthogonalEdgeStyle;html=1;endArrow=none;elbow=vertical;startArrow=block;startFill=1;strokeColor=#545B64;rounded=0;" edge="1" parent="1">
          <mxGeometry width="100" relative="1" as="geometry">
            <mxPoint x="390" y="632.5" as="sourcePoint" />
            <mxPoint x="430" y="632.5" as="targetPoint" />
            <Array as="points">
              <mxPoint x="445" y="633" />
              <mxPoint x="445" y="633" />
            </Array>
          </mxGeometry>
        </mxCell>
        <mxCell id="JX4TtDDn6b8yOE6emrvu-32" style="edgeStyle=orthogonalEdgeStyle;rounded=0;orthogonalLoop=1;jettySize=auto;html=1;exitX=0.5;exitY=1;exitDx=0;exitDy=0;exitPerimeter=0;" edge="1" parent="1" source="JX4TtDDn6b8yOE6emrvu-4" target="JX4TtDDn6b8yOE6emrvu-4">
          <mxGeometry relative="1" as="geometry" />
        </mxCell>
        <mxCell id="JX4TtDDn6b8yOE6emrvu-36" value="" style="aspect=fixed;html=1;points=[];align=center;image;fontSize=12;image=img/lib/mscae/Docker.svg;" vertex="1" parent="1">
          <mxGeometry y="921" width="48.78" height="40" as="geometry" />
        </mxCell>
        <mxCell id="JX4TtDDn6b8yOE6emrvu-37" value="" style="shape=image;verticalLabelPosition=bottom;labelBackgroundColor=#ffffff;verticalAlign=top;aspect=fixed;imageAspect=0;image=data:image/png,iVBORw0KGgoAAAANSUhEUgAAAjAAAAIwCAMAAACvL6FdAAAC/VBMVEX////8/Pzp6enW1tbAwMCtrKyamZmLiop8e3ttbGxfXV1QT09EQ0NAPj4zMTEsKiolIyMdGxsXFRUtKytFRESbmprX19fq6urx8fHS0tKysbGWlZV7enpiYGBHRkYYFhZIR0fy8vL7+/vd3d22traPjo5raWlJR0cpJydLSUlsamrv7u7DwsJqaWkcGhqXlpbw7+/19fXHxsaUk5NjYWEyMTGVlJTIx8fn5+evrq53dXVCQEAaGBhDQUF4d3epqalvbm43NTVxcHCqqqro6Oi7uro+PDw/PT19fHy8u7vh4eGcm5tXVVUcGxtYVladnJzi4uL+/v7Ozc2DgoI8Ozs9PDzQz8/9/f16eXkxMDDNzc0uLCx+fX3Pzs7c3NyIh4c2NDSko6NNS0sfHR3w8PDT09NubW1wb2/U1NS0tLRPTk61tbX09PSYl5c0MjKZmJjr6+uGhYUmJCQmJSWHhobs7Ozk4+N2dHQeHBze3t4bGRlycXEhHx+lpKS+vr7g4OBgXl729vYwLy/j4+NbWlpdXFwgHh5EQkL5+fnMzMw6OTk7Ojr6+voZFxcqKCi9vLz6+flKSEgnJiYoJiaJiIhZV1ezs7OOjY34+PhpaGjb2trc29vIyMizsrKKiYl5eHj39/dSUVFhX1+4t7e5uLjKysrLy8s6ODhRUFC/v7/z8/NjYmJVU1OQj4+RkJAjISG9vb3m5uZUUlIrKSmVlZVGRUV/fn5mZWXEw8Nta2usq6vJycmFhIRlZGSBf3/a2dk5NzdeXV04NjZOTEyEg4OMi4toZ2dZWFjt7e0vLS3Y2Nh1dHQiICCAf3+SkZGjoqK6ubnGxcXf39+TkpKBgIC3t7fS0dHl5OTBwcGnpqbu7u6op6c1MzOioaEkIiLZ2NhzcnJcW1vCwsKhoKDFxMRBPz9OTU3m5eXV1dV0c3OenZ0wLi6mpaV3dnagoKBTUlJWVFSpqKiCgYGNjIyfn5+rq6uxsLBkY2Ofnp5nZmZaWVmwr6/R0NBMSkqura1uBeqMAAAYhElEQVR4AezBtQHCAAAAsLo77vL/kUxM6N4kwVsAAAAAAAAAAAAAAAAAAAAAAAAAAAAAAAAAAAAAAAAAAAAAAAAAAAAAAGEUJ2mWF2VVN23XD+P0NA6Lrl3WVVnkqzRZb8Jgxtju9ofj6dxfpn9dFtdTcdjvbsGccH+wSw9ocoVBAAB7bXWcfFibY6xt27Zt27xvjjB6+NF1hkpKTklNS0fvpWdkpiQn+QERXVb2v5yoXFRGXFRqXnY+EDEVGIwmMyov2mSxFgARis3ucBaiegqLiu3+QIRgKyktQy2UlVdUAtdIQVVoNWqpprauAPhE6hsam1B7cc0trcAZ0tbe0Yn66erobgNekB5rbx/qrS/U2gMcIP21A8iGgcEhYBsZHhlFlpSNJAGrSMJYBrJnfCwBGESsORPIpolUK7CFTAZ3Isu6GiaBGWRqegJZNzEzCywgfnPzyIeIhR7QGVlcikZ+LK8sgo7I6to68mVjcwt0QrZ3dpE/u45t0AHZC9tHPuXO7IHmqEsh8qswbA80RLbLC5FvhQfboBGyGtqE/NsN3QINkIKQQxTDYUgBEJX5jQ2gOAaOeoCo6bgGxRIVCEQ1J+EontN6IKoo2IxDEcVtnoHyyMI5iuo8GRRGLi5RZFcXoCCSaJxAsV1bEkEpZKoIxXczBYogt2uFKIP9tVvwHbm7R1k83IGPyOPaE8qjcPMRfEF+OlEuRT/Ba6TtXxPKJu5fG3iH+DeijBp/gTdI3TPK6fkFPEZea1Feg4/gGbL9hjJ72wZPkJd3lNvHC7iN+G0i+ewB95D8LySIX/ngDvKzDKX3n/16VrQrCoMAPHFSnoltNTGqqE4Vq4m7sIp5bdv2Kx7bZ+91tdd8z/BjJuzWDkhhHT8YIT86UIDc6WSCHL8Dyaerm8mkuwuS286TTCWndyIX6XlPSfe+F5JdXwslU0sfJJs9Pko2vn5Ipu0HKdkdvA1JN8DcZBNSyKPrzEcG7yBB6rqZn3QfQYw0lbMQKW9ChPwtZ2FSPoQQ+TvMYsjwX4jmRROjedHErJB5keEu9aOiibrSmhGWRvavgb3ubKGUassdWGsfpXT7YKtNFCc2wU4vKM68gI1G6ynO1I/BPuOvKE69moBtvrZSnGv9Crucm6QbUnMONmmaojsy1QSLvKVbchP22Ev3ZC9sMV1P96R+Gnb4+pliwuevsMHMfYoZ92fgfXcuUUyZvQPPO0sx5yy87uo3ijnfrsLb1m6lmPRsLbzs0RzFrLlH8LB5imkL8K7xAHnXoC1XEARP7OTZto9i27ixbdvmUWzb9rNt2/iPmG81O7W407sf0D23toaNAsQb3zi+tZGOvrs+ZXXb0e8/EPijP7wc3XbtlOvvjkqtznw8Aai4PaIbop4N4Lvi/7OQ1zyr/uIq9X367PV/r0Oke8VssoHrUATkMAVz7g7hF0RMZQl3cFf4lgOIxVCifIlAQOmh9GzX4uZAP6HY4jcwsoXSD5mLWI2gqYBkhmASpbIX0YjQXYKwZVf0CJXCWTGIYTOK6kozO0Fgx6oxbdc2TgC6xLW1U/MNqyDbnQjerTdCiEzXEKBqHX9K3qkI8c80hH0SIPsbyfHFEysSmKrRgeS0S7570R1J4/hHY2UEntQ2pEQMcpaQyfYkM1nSxWzqJobRh2FOEmdS25Cg3/kWTF6WvfaT3y3aexnT2D3AtDJam5J0AkPDh9XRuivyWmXeJK9jHXoK5umERIkwqSDug9hdpX2Wz1lmwug09oHvB52lEuJLHxT5g1o9+AyWR9DAtYNWzyMLUH99yPBlWTcQinQtHWbIQZZ2vLYSnyhK3ZZRIUwmgAJnsGQEWIprZgaeheIeaD1mONk5kwhfZsC6NpM41At6ZrE/kxyxmhicnZPbJy9/ecGmZX9T8Z8v23RweX5en9zCmIBLn2azH45O5HAUsraF98AZNJ5g3ODVnau5xbtQjXU9vqFF44pLtrMfqEuKxxWF+m7VmMxfyiVIB+PkRuIxZj9+HFjH57lMlWL6qSfOUeWRFdyfVBFZGeX8RFUwouotn1U7Eq2p8Kyp0zAMVdyixlEKNQpvEgdWT9FNP+3DUxYPTKxRSI4q4rbeA0bqNIFcqnn4vOnI772V7z9b/Mi9izNm6nrDrd1fN+qftcZqFb+tehyqeeIHHUNwFLYB/lv0/HFUDVlysUx/daXPG9ol/vhO89eIDNZUHKoQ4YOQh4zeNNKzk8vUt/oXdThcNtV3yXXIRKMOsDokOF+adPEEZiptLd7qAqwmsSvvrXSBwXUTIUysLsDqLHR9voNOHtlNRfLlsE7QchAYAQ+d5NrWmAhfvrJ3181xXUsQwDtg5jazLSvMDOYwSC5vWe+tHWZmzkphEkthTszMDjMzMzMzM0e1/z7sUzX3zPl9hK2+PNsDPEKBO0qQWa9SYSN4cToVXkVWTd6ZCu/Ci05U2HkyMupwSnSAF+9R4nBk0+TulGgPL86iRPfJPk4wKTDtqXG4lxNMCoznU0xPingKjEhrZE/zJIp4CozIpGZkzstUGQcvyqjyMrImX0GVg+DFQVSpyCNjSikzHF4Mp0wpMmYvynSGFxtRZi9ky67U6QYvulFnV2TKpRTqAx/6UOg+ZMn7BQrdDh9up1DhfWTILVSaDh+mU+keZEdzI5UOhw+HU6mxGZnRilKj4MMoSrVCZtxNqbvhw92U2gtZsQK1FuXgQW4RtT5wemolh8GDE0mfl/Lqoyk2Gh6MpthR1ciEzaj2ITz4kGqbIRPmU+0ueHAX1eYjC84YTLkdEL8dKDf4DK97HT9C/D6i3gJkQAX1liJ+86lXAfv2ZQAjlkfseo9gAPvCvNsYwjqI3ToM4TZYl/+YIQxB7M5lCA/mYdwmDKGwGLFbXGAIm8C46xjCJ4jfiwxhF9iWm8QALoAHVzGASTmYVsMABubgQW5DBlDj7xlp20Pgw3qd/D0n1VLuqFPgxQ5HUa4Wlg2j3pXw42DqDYNhh1LuU3gyinKHwrDZVNvmEnhSPZxqs2FXnwLFCvvCl331P+E+ni7BbeBNG6odCLOOp9i79fCmZCTFHoZZr1BsJvypGUytV2DVUxSrhEeVFHsKRn1GrfMegEdrnEetz2DU9WlqSuJwal0Po7pQ6rBm+NT8CqW6wKbdqHUTvGpFrcth0p6UqsjDq3wFpfaESStTajP4tRmlVoZJY6k0tgR+LSf+LWHRsbGeRiO4vB8Lg56g0nmT4dlpR1PpifibMyfAt2eodAsMWkqhhuPg2/jBFPocBh1NoTJ49wWFjoq+3qQVvGsVe8HOgRR6bTK8O21R5ENUx1BofyQ3UugYmHMmhaYjmUahM2FOZ+pUVSOZXMWYl5QdQqFbkQAbUmhozCvY+DIS4CQK1UTdbvI+EuCMqBt2dqHOLCTqz/+7wJg309+p5R6mzpswpiLNZsp9SZ062JIvN11QkZaGlufjvUE7D39L8q9R5wyY8lb6Uh3A59R5C6Y8HuCGPplIncdhygUBXhkkn8VbXbtfgJeSyfrU2S/eq+26SFocEe+U5h2UeQRFSTfK3AFTTqDMP5AEOA5PgCVzqXMhkhBX+rmxFjq/gaJkdersBkNmUOcrJCFmAG6GIRdR52kUJV9T5yIY8g11XkUIaTXxN7Huqr4SRcm3se6wfoY6pShKSqlzW6zVsicjhBSYShgyjzrvoChpos48GDI/SGCSd6izFIasYj4wKTCrwJDh5gOT/l89PNY1Jk0oSkpjXWpyuvnH6hSYj2FIV/OBSTVUXWFIFXW+Q1HyMnXOhiH2qxtSYAhDmD4+BrFjCsy/twGKkotTYP69I1GUPJoC8++NQlFSmQLz762FouT7FBir1TcO+uNhSIE6d6MoGUKdEbG+6a1FEuIbXddYA1OFoqRbrIE5n0Jz0SJ5gELnxdobz8vQIvmAQp2jDcwLaJE0RRuYOgptiSTAbtnaWGd6uRAtkjaMdaZ3HIXGoEWyMoXGwZDrKbQXWiSDot0p9CGFzkeL5DUKfQhDviJTK6Jcbyp9BUMWUmkmBFLrquX2hh+o9CXk0lM1f4h3K/cu+EsyMd7d8S9Q6T38JVmN0b5Av4xKj+QBJCUnUOl2GDKUUpcBSD6g1FBYcjaVbgKQfEKlvWHKLCptByD5lEqzYEoHKvUAkAynUgeYch+VGtZFcuxgKv0IU56hVCmSKyn1DExpTam2SEZRqjVMaaLUtkhqKbU1THmKWr3h3RJqDYMpJQVKPQ7vPqNUoQS23EWpn+DdOErdBWN+olT5IfCtz9qRH4EDqPVd6s+UGgBjdqTWj6kZRmpHGDOHWmfPhWdD96bWHBizFcU+gWevUmwrWLOMWu+lYTuhZTCnjGLD4NduFPsC5jxDsWPg1wSKPRP/cyCXVcOryY0UuwnmPES1T+DV41TrBXNKulFs2xx8ylVQrFsJ7LmWaium4qmYZ14/pVoZfJpPtU9hUCvKXQGPnqRcKxg0nnId4NF7lBsPi3am3Bz4s5hyO8OkeZRbJQdvch0pNw8mHUq9zeDNTdRbBybtRL0H58KXod2ptxNMqj+BerfBl12od0IzbJpPvcLr8KTXCOrNh1EbM4C78/BjudUYwAYwqi9D2Bh+PMYQ+sKoXCMDKO8FL/YtZwCr5mDVfQxheD18qO7EEO6DWS8yiO3gw0QG8SLMep9h/AwPbmIYz8OuCgZR9RDi98HZDKIOhn3FMGb1QezWHcswnoFhMxlIWQni1jyFgcyEYfnuDGT/HGKWa8dAuudh2cMM5RjE7FGG8iFMW8xgHkO8FjKYJphW/RqD+cbdFwGB16ph2/UMp7+3vAhcD+N+ZkBtEKHcBAa0GYyb/AgDqlwOsWlemQFVnQbrbmRI95+GuPRZypBuhHlzGFTH4xCTp7ZhUHNg3nLdGdSqayIeTxzFoLovB/u2Y1gNG+cQh/wFDGw7ZMBzDO3M3ojBcbMZ2j+RBXUMbdVpyL4tuzK02kjecwv8wd5deLdVhnEc/6VF5jv9zYeEhXV6CA7zrTsTbJLRQ3Bti823eqHMNZAZLnN3x525uzs2N9wqtGuq9yY3b668n7/hm1x/ntbVYWzVfmXwzYUhhDkZfJV+gYG59/Vm8KWEwRh+pQgr0mFUP9anCLNgEIcpRMTWGBhRm9YeCnEYBuGKohhj7h0Jo+n6fhrFiHLBKBZTlKinvMbKZf0YinIrDGNlBwrz0CkvjCLmjTEUpkM8jOM7qjPYSf89ErkbRrD56rUU6DsYyMNU6tXSG6a0GQr0/OviuelJ9E/ST+HQOfdlg+wUahiM5Gkq0tv3FOTNy1pUon/qvtQV+rXjfHcK9jcM5UUqEbEa+dnajqN/1rbaaYMeVT97n4fCPQ9DcX/l/6jvH29oRv9UenCqG/pSq/HEDgyBKDeM5Wcq8DQK93lH+qti6sbx0IuETmecDI2fYTD9RrNk9tUoQtvu9NszK7qtRsh1nXx1NENm9M0wmr5U4GkH8vmof+/ZhwF0TWUgVt1w5G0XQqXhxnP1UxhKvWA4YUlUINUFX5WY4R9k2NiHgalXZs7O6hDM+9iFVtF2hlhSGIynFJVo4oKP6czwFTKll2fA7MOXzX2tEYSodrhb6eYdqAelYEBtkqjErH7Ia/OTJK9FlptfoTb6/N36xrYH3kSQNPzrvTta1e9N3UhqAyMqRUWGXI+8xrcs1XcBstlSqaVH/r5h7K6jDminWpVSZZrOo96UAkz8F8O0lijS/fr+QNt1jlqRfzBAKSr0VpiwYi5AW2NJ+Qcj+i+GnNfJjXx+vvbLy5ChCbUUCa09Kv9gtFOKir2wAz6q5kydsk2kdp6F5mxl5B+MZlbup2JjDheyirc2gPGVqZXrvNBe1+HUlf3xMK45VM5zwac1Z+6W0B8qUhv770EwhEdQTyJhYOOPU4VPkMcnzHAcmQ57qIk94tf+iLdqPIxsF9Vo4UIu20+XXjPsSy2cQZDYrqV+nIChuctTjauRxwNz7u2HLCObMnDOtxEsXezUi/ZuGNtrmjxljW2m79EXcdSLu2F0s6nKkWANPk5bieBJcFIfFsLwDqRQDc98FObm2xmg+w0yAV2uVP2MqvTeDF83NUKGjQxMRDUEU7qdGpFLm2euoirH+iGvK5qx6dTAJ0bHIbjKUCtyLXzjQO7fj48g2WE5cNNxXQ/v2kkdaAxzmBDAJzUDmOn4eOCwnf4rjyBz386Qm4Bcljrv5Zg2yDVyMHPe8r2S/luMYOsrz3i1s5XqlClw/bEOgGsg/ZaAYAuXZ7za6fcV1amNXPEP5a6liImmnyoj+J5kaH3VD+axier0n4lcyc3J/enItOM4/TMWwbeUobUcZnKS6qzDJe6dF9sgW3g9+mUKgu9uhlQiTKXWQ1TFeQ98BVRMmgPB19XJEHqoFszlZY02iYVXpHqzIUJd+dBRS6WpThcUrvMIfZ7CAA8ydD6E6cSsoiodUUDVTfEAYsZRrUkQ4SOGzKrdMJ8ZAc5oc/1KepaFAe7zHqqTABHCGTLzYUYfUJVB8DWVmfpvBjBsONVIgxDeZgyRFjCl8SOoSix8tGWWpg4Ab37SgcpNhxhfMDRG9IM5PdchkBO5RnZmqYlM6ROp0MIXbRDjD4ZEhxowqypUo0NP+Ijz/f898Hszlijq284QZg1DogdMy/UH1TgPH7WGMNM3yPHD2AosTvknYiFSJENhhQvmtfI4VTjugI+Zpe1kvc24xDXlXHkWam/plgsg2AmGwPGVMLMpKVThPeSTcPnFlcin56S+ZYYnMYfnobKl11/WECEwieI1exfmtli7V8iSY9sg1+7ruxw9emdserWRCJk7Kd4WmJzrFY0WLNz5Bcn2Z10o2sz35kbe7YUwVSncly6YXa1pmjw17NqbWeq4UQTXrWuZIeptiNKZon1RHea3Oo3KTS7x17wPuaq+1OOjRsjRi9kmmDeYtKqwgveoXNSbKNzQRcz2Jf6XUJYZPE28+V5POQ5R2lCwX2ANY6ncOhThNafvgC7HCN93oeP5vyYQJYZi9YVFuMpQMfstKMID05nhdAyyPcb/fYVsqcyyop9ZgxnkhlXMLE/FKtyEovzQ9vnPkSOsWb5jlO3E6QrTbtvmgkmDaTcT1jGgIhVbYYMinTzMtPce+DJpMIsGwEq6PEPFlkKZ505e13Rgp36wRDBJw2At79mpWBUYQwLFqQmr6UblzsIQOlOYq2A9paiY54gMxsfVsCD3LCp3qwwmj9tssCLvQirXxCGDyXHaC2uauYTKvRAmg8lWrhasKj6ayj0yXwaTaVo8rOuHKKrwwUzIYJ78AVaWfpwq9K9t+WCOJ8PakldRjdN/WTuYep/D6tROfPm0hoWDqRcOtWQx7Hi328DBiO9FFsPbz2+2VDCyF1/Jx6laufU/uqDIyOdGmiOY46vhP1kMWanBvlgHitNw6qnUJR0YY/xgfK+PpB1R9M8zo+K21N4e5oaP6p9f1jIy7u/RzNbQDMFEdcYlUnx5BsJTKbpc2UNlMkyv/MWiJPrqbIJg2ochL6l6fWpMfDDpDJq6N8GX1O+Q4YOJZbCs6If8JNuzMpgixDlQkOR6XwZTqF4uFEra5ZTBFJDyFKSi7Nwvg8ln/8uQinaguwzGR4VwFEda+T0197lxg3m6J4oneVtTa7GGDSbOixJJvzllMFlS7oWkxC2LZDAZ6i2HpMwPoyiDuTYBklLeBy0fzEkvVJD+XGvpYNI+gjrS9c0tHMyxt6GWNLSFZYNZ8yYkP2wbQ00cNVYwo1+E5J9GZwwVzFFq4fQCSP5y9YiwWDARi90IgPT2EksFM6QqAiM5vnVaJpiUK0ciYFLVURYJ5tpwSFpwV0mzQDCDu9kgaSRhnOmDOXMPJA1drEe/zdd/MKPPQtLW7jUe+qm23oOxp8ZD0lyNp00azKgHEAyS6+Ijug5mG/2xaI8LQSLNPOfUcTC1qV7Ko7UQRNLjt5kqmIlvI8ikLtNNE8zXUyCAdPcxUwTTbjLEkNwXuxs+mId2uSGM5D2lIpmz+gvmoVNeCCU59kRRoT16CybqiBfCSY7Low0ZTNQeB6SQcDceoqdzmI1UoHxjB6TQ2VTGzpL8BTF+ZEnsA3dCCrHkD9JYrIihEMPxDIv1TOI7kHQg5o6HWIxBEOUaFmNV5G5IOmGbfKgZizIDolzGothX1HZA0pNG529noe6DOLNZqP5XDoCkO+6Xr0lhAccbQZwfXmUBnkOTbZD0aeWpr+lrbzJECr+dvure2xOSniWsP8ZczjUxopNt5WGu6Mh0SPq3+pMX+kcw4qFxNy6AeJ3nLnyEdK4qey4WkuX91x4cCwAAAAAM8reexa4KAAAAAAAAAAAAAAAAAAAAAAAAAAAAAAAAAAAAAAAAAAAAAAAAAAAAAAB4ESkReJY8+4+aAAAAAElFTkSuQmCC;" vertex="1" parent="1">
          <mxGeometry x="100" y="916" width="50" height="50" as="geometry" />
        </mxCell>
        <mxCell id="JX4TtDDn6b8yOE6emrvu-38" value="" style="shape=image;verticalLabelPosition=bottom;labelBackgroundColor=#ffffff;verticalAlign=top;aspect=fixed;imageAspect=0;image=data:image/svg+xml,PHN2ZyB4bWxucz0iaHR0cDovL3d3dy53My5vcmcvMjAwMC9zdmciIHdpZHRoPSIyNTUuMjMxMDE4MDY2NDA2MjUiIGhlaWdodD0iMjY4LjI1IiB2aWV3Qm94PSIwLjI2MTk5NzUyMDkyMzYxNDUgMC42ODYwMDExODE2MDI0NzggMjU1LjIzMTAxODA2NjQwNjI1IDI2OC4yNSIgcHJlc2VydmVBc3BlY3RSYXRpbz0ieE1pbllNaW4gbWVldCI+PHBhdGggZD0iTTIxOS4zNjggNzQuNTY2YTEwNC43NTkgMTA0Ljc1OSAwIDAgMC0yNS42LTI1LjQxOGwtOC41MzYgMTIuMjAzYTg5IDg5IDAgMCAwLTEzLjQzLTcuNzJsLTYuMjk3IDEzLjUxNWE3My45NzggNzMuOTc4IDAgMCAxIDExLjE4NSA2LjQxNyA3NC44NTMgNzQuODUzIDAgMCAxIDkuOTI4IDguMjVsLTEwLjUyIDEwLjUzMS0xMC41MjkgMTAuNTMyYTQ0LjM2IDQ0LjM2IDAgMCAxIDUuMDI5IDUuODc2IDQ0LjM5NyA0NC4zOTcgMCAwIDEgMy45NjUgNi42NThsMjYuOTczLTEyLjU5IDEzLjQ5NC02LjI5NyAxMy40ODctNi4yOTdhMTA0LjE1NiAxMDQuMTU2IDAgMCAwLTkuMTQ5LTE1LjY2em0yNC4zODQtMTcuMDg0YTEzNC44NjYgMTM0Ljg2NiAwIDAgMC0xNS4wNDMtMTcuODAyIDEzNC41MzggMTM0LjUzOCAwIDAgMC0zOC4wMzYtMjYuNTU1IDEzMy4yOTMgMTMzLjI5MyAwIDAgMC0yMS44NzUtNy45MzIgMTMzLjMxNSAxMzMuMzE1IDAgMCAwLTIyLjkxMy0zLjk5OWwtMS4yOTUgMTQuODM5YzYuOTc0LjU5OCAxMy43NzcgMS44IDIwLjM1NCAzLjU0OGwtMy44NSAxNC4zOTNhMTAzLjU2OCAxMDMuNTY4IDAgMCAxIDE2Ljk5MyA2LjE1NiAxMDMuNzI0IDEwMy43MjQgMCAwIDEgMTUuNjgxIDkuMDE4IDEwNC44MzcgMTA0LjgzNyAwIDAgMSAyNS42IDI1LjQxOCAxMDQuMTU2IDEwNC4xNTYgMCAwIDEgOS4xNDkgMTUuNjZsMTMuNDg1LTYuMjk2IDEzLjQ5MS02LjI5NmExMzQuMjE0IDEzNC4yMTQgMCAwIDAtMTEuNzQxLTIwLjE1MnpNMTc4LjA4NyA0MC4xM2ExMDMuNTY4IDEwMy41NjggMCAwIDAtMTYuOTkzLTYuMTU2IDEwMy42MSAxMDMuNjEgMCAwIDAtMTcuODAzLTMuMTA0Yy0yLjk4LS4yNTctNS45ODgtLjM5NS05LjAzMy0uMzk1YTEwNSAxMDUgMCAwIDAtOS4wMzYuMzk1IDEwMy42MiAxMDMuNjIgMCAwIDAtMTcuNzk5IDMuMTA0bDMuODUgMTQuMzlhODguMzM4IDg4LjMzOCAwIDAgMC0xNC41NTggNS4yNjdsNi4yOTMgMTMuNTE3YTc0LjMzIDc0LjMzIDAgMCAxIDEyLjExOC00LjM5IDc0LjY2NyA3NC42NjcgMCAwIDEgMTIuNjk0LTIuMTk3IDc0LjIyIDc0LjIyIDAgMCAxIDYuNDM4LS4yOTZjMi4xNyAwIDQuMzEzLjExMSA2LjQ0LjI5NmE3NC41OSA3NC41OSAwIDAgMSAxMi42ODggMi4xOTcgNzMuNzkgNzMuNzkgMCAwIDEgMTIuMTIgNC4zODhsNi4yOTctMTMuNTE1YTg5IDg5IDAgMCAxIDEzLjQzIDcuNzJsOC41MzUtMTIuMjAzYTEwMy43MjQgMTAzLjcyNCAwIDAgMC0xNS42ODEtOS4wMTh6TTE0NC41OSAxNi4wMzNsMS4yOTUtMTQuODM5Yy0zLjgzMy0uMzMtNy43MDktLjUwOC0xMS42MjctLjUwOC0zLjkxNyAwLTcuNzkyLjE3OC0xMS42MjUuNTA4YTEzMy40MTUgMTMzLjQxNSAwIDAgMC0yMi45MTcgNCAxMzIuNjg3IDEzMi42ODcgMCAwIDAtMjEuODcyIDcuOTM2IDEzMy42NDQgMTMzLjY0NCAwIDAgMC0yMC4xNjkgMTEuNjE4QTEzNC42NTQgMTM0LjY1NCAwIDAgMCAzOS44MDQgMzkuNjhsMTAuNTIzIDEwLjUzMkExMTkuNjMgMTE5LjYzIDAgMCAxIDY2LjIxIDM2Ljk0OGw4LjUzNiAxMi4yMDRhMTAzLjY5OCAxMDMuNjk4IDAgMCAxIDMyLjY3Ny0xNS4xNzggMTAzLjYyIDEwMy42MiAwIDAgMSAxNy44LTMuMTA0IDEwNSAxMDUgMCAwIDEgOS4wMzUtLjM5NWMzLjA0NSAwIDYuMDUzLjEzOCA5LjAzMy4zOTUgNi4xLjUyNiAxMi4wNSAxLjU3IDE3LjgwMyAzLjEwNGwzLjg1LTE0LjM5M2ExMTguNjYzIDExOC42NjMgMCAwIDAtMjAuMzU0LTMuNTQ4em0tMzMuMzE3IDMyLjMzbC0zLjg1LTE0LjM4OWExMDMuNjk4IDEwMy42OTggMCAwIDAtMzIuNjc4IDE1LjE3OCAxMDQuNjk5IDEwNC42OTkgMCAwIDAtMTMuODk4IDExLjU5MSAxMDUuMzY4IDEwNS4zNjggMCAwIDAtMTEuNzAzIDEzLjgyOGwxMi4xOTIgOC41NDFhODkuMDA4IDg5LjAwOCAwIDAgMC03Ljg0OSAxMy40MWwxMy40OTUgNi4yOThhNzQuNDY5IDc0LjQ2OSAwIDAgMSA2LjU1OC0xMS4xNTMgNzUuMjUgNzUuMjUgMCAwIDEgOC4zNTUtOS44NTUgNzQuOTU4IDc0Ljk1OCAwIDAgMSA5LjkyNS04LjI1IDc0LjI0MyA3NC4yNDMgMCAwIDEgMTEuMTg4LTYuNDE0TDk2LjcxNSA1My42M2E4OC4zMzggODguMzM4IDAgMCAxIDE0LjU1OC01LjI2N3pNNjYuMjEgMzYuOTQ5YTExOS42MyAxMTkuNjMgMCAwIDAtMTUuODgzIDEzLjI2NEwzOS44MDQgMzkuNjhhMTM0LjgwNSAxMzQuODA1IDAgMCAwLTE1LjAzOCAxNy44MDVBMTMzLjY3MyAxMzMuNjczIDAgMCAwIDQuOTUzIDk5LjU0MmExMzQuMTU4IDEzNC4xNTggMCAwIDAtNC4xMyAyMi45OTVsMTQuODI1IDEuM2ExMTguNTcyIDExOC41NzIgMCAwIDEgMy42ODItMjAuNDRsMTQuMzczIDMuODU3YTEwMy4yOTcgMTAzLjI5NyAwIDAgMSA2LjI5OC0xNy4wMjggMTAzLjkzOCAxMDMuOTM4IDAgMCAxIDkuMTQzLTE1LjY1NWMzLjUwMy00Ljk0NiA3LjQyLTkuNTcgMTEuNzAzLTEzLjgyOGExMDQuNjk5IDEwNC42OTkgMCAwIDEgMTMuODk5LTExLjU5TDY2LjIxIDM2Ljk0N3pNMzkuNTQ2IDE3OC40M2ExMDMuODYyIDEwMy44NjIgMCAwIDEtNi4xMzgtMTcuMTU4IDEwMy42NjcgMTAzLjY2NyAwIDAgMS0zLjA0LTE3Ljk1IDEwNS4yNTYgMTA1LjI1NiAwIDAgMS0uMzQ3LTguNTFjMC0zLjI2NC4xNTktNi40OTQuNDU1LTkuNjc4YTEwMy43NjYgMTAzLjc2NiAwIDAgMSAzLjIyNy0xNy44OGwtMTQuMzczLTMuODU3YTExOC41NzIgMTE4LjU3MiAwIDAgMC0zLjY4MiAyMC40NGwtMTQuODI0LTEuM2ExMzYuODI3IDEzNi44MjcgMCAwIDAtLjU2MiAxMi4yNzVjMCAzLjc0LjE2IDcuNDQzLjQ1NSAxMS4xMDMuNjUyIDcuOTA0IDEuOTggMTUuNjEgMy45MzUgMjMuMDY4IDIuMDA3IDcuNjM0IDQuNjY5IDE1LjAwMSA3LjkxOCAyMi4wMzhhMTMzLjkyMiAxMzMuOTIyIDAgMCAwIDExLjY0NyAyMC4zMjhsMTIuMTkyLTguNTQ1YTExOC45NDMgMTE4Ljk0MyAwIDAgMS0xMC4zNDgtMTguMDhsMTMuNDg1LTYuMjk0em0yMC40OS0zNy43MDlhNzQuOTExIDc0LjkxMSAwIDAgMS0uMjUyLTUuOTA5YzAtMi4zOS4xMjQtNC43NTEuMzM5LTcuMDgxYTc0LjI4NSA3NC4yODUgMCAwIDEgMi4zNDktMTIuNzY0IDczLjk1NiA3My45NTYgMCAwIDEgNC41MS0xMi4xNDdsLTEzLjQ5NS02LjI5N2E4OS4wMDggODkuMDA4IDAgMCAxIDcuODUtMTMuNDFMNDkuMTQzIDc0LjU3YTEwMy45MzggMTAzLjkzOCAwIDAgMC05LjE0MyAxNS42NTUgMTAzLjI5NyAxMDMuMjk3IDAgMCAwLTYuMjk4IDE3LjAyOCAxMDMuNzY2IDEwMy43NjYgMCAwIDAtMy4yMjcgMTcuODggMTA0LjU4OCAxMDQuNTg4IDAgMCAwLS40NTUgOS42NzhjMCAyLjg2NS4xMiA1LjcwMi4zNDcgOC41MWExMDMuNjY3IDEwMy42NjcgMCAwIDAgMy4wNCAxNy45NWwxNC4zNzctMy44NTdhODguNDk1IDg4LjQ5NSAwIDAgMCA1LjI0OCAxNC43MTVsMTMuNTAzLTYuMjk5YTc0LjE1NSA3NC4xNTUgMCAwIDEtNC4zNzItMTIuMjc0IDc0LjA1NSA3NC4wNTUgMCAwIDEtMi4xMjctMTIuODM2em0yOS45MzYgODguNTU4YTEwMy44NDggMTAzLjg0OCAwIDAgMS0xNS43OC05LjE5MUExMDQuOTQ1IDEwNC45NDUgMCAwIDEgNjAuMjYgMjA4LjI5YTEwNC44NjggMTA0Ljg2OCAwIDAgMS0xMS42Ni0xNC4wMjkgMTA0LjI4NSAxMDQuMjg1IDAgMCAxLTkuMDU0LTE1LjgzMWwtMTMuNDg1IDYuMjk0YTExOC45NDMgMTE4Ljk0MyAwIDAgMCAxMC4zNDggMTguMDhsLTEyLjE5MiA4LjU0NWExMzQuNzE1IDEzNC43MTUgMCAwIDAgMzIuOTA1IDMzLjE0IDEzNC4xODcgMTM0LjE4NyAwIDAgMCAyMC4yNjggMTEuNzk1bDYuMjk0LTEzLjVjNi4yNSAyLjk0IDEyLjggNS4zNTIgMTkuNTkgNy4xNzdsMy44NS0xNC4zOTJhMTAzLjE0NiAxMDMuMTQ2IDAgMCAxLTE3LjE1Mi02LjI5em0xMi41ODEtMjcuMDA3YTc0LjMxMyA3NC4zMTMgMCAwIDEtMTEuMjc4LTYuNjA0IDc0LjY3IDc0LjY3IDAgMCAxLTkuOTY3LTguNDQ2IDc0LjkzMiA3NC45MzIgMCAwIDEtMTQuNzcyLTIxLjM5bC0xMy41MDMgNi4yOThhODguNDk1IDg4LjQ5NSAwIDAgMS01LjI0OC0xNC43MTVsLTE0LjM3NyAzLjg1N2ExMDMuODYyIDEwMy44NjIgMCAwIDAgNi4xMzggMTcuMTU4QTEwNC4yODUgMTA0LjI4NSAwIDAgMCA0OC42IDE5NC4yNmExMDQuODY4IDEwNC44NjggMCAwIDAgMTEuNjYgMTQuMDI5IDEwNC45NDUgMTA0Ljk0NSAwIDAgMCAxMy45MzIgMTEuNzk4bDguNTMxLTEyLjIwMWE4OC43OTcgODguNzk3IDAgMCAwIDEzLjUzNyA3Ljg5IDg4LjUyNCA4OC41MjQgMCAwIDAgMTQuNzIgNS40MDNsMy44NTYtMTQuNGE3My44OTkgNzMuODk5IDAgMCAxLTEyLjI4My00LjUwOHptMTAwLjMwNyAzMC4wMTlhMTE5LjQyMyAxMTkuNDIzIDAgMCAxLTE4LjAyNiAxMC40OTQgMTE4LjM3NyAxMTguMzc3IDAgMCAxLTE5LjU5NCA3LjE3NmwtMy44NTUtMTQuMzkyYTEwMy45NjkgMTAzLjk2OSAwIDAgMS0xNy45OTEgMy4xNzNjLTMuMDEzLjI2NS02LjA1OC40MDQtOS4xMzYuNDA0LTMuMDgxIDAtNi4xMy0uMTQtOS4xMzktLjQwNGExMDQuMDk0IDEwNC4wOTQgMCAwIDEtMTcuOTk2LTMuMTczbC0zLjg1IDE0LjM5MmExMTguMDM3IDExOC4wMzcgMCAwIDEtMTkuNTktNy4xNzZsLTYuMjkzIDEzLjVhMTMzLjA5NSAxMzMuMDk1IDAgMCAwIDIyLjAzNCA4LjA2NiAxMzMuNzUxIDEzMy43NTEgMCAwIDAgMjMuMTA2IDQuMDY3YzMuODY3LjMzNyA3Ljc3Ni41MTggMTEuNzI4LjUxOCAzLjk1MyAwIDcuODYzLS4xODEgMTEuNzMtLjUxOGExMzMuODI2IDEzMy44MjYgMCAwIDAgMjMuMTA2LTQuMDY3IDEzMy42OTMgMTMzLjY5MyAwIDAgMCA0Mi4zMDItMTkuODYxbC04LjUzNi0xMi4xOTl6bTI5LjI0OS0yOS40ODdsLTEyLjE5Mi04LjU0M2ExMDQuNzk3IDEwNC43OTcgMCAwIDEtMTEuNjYgMTQuMDI5IDEwNC45NjMgMTA0Ljk2MyAwIDAgMS0xMy45MzIgMTEuNzk4IDEwMy43NTQgMTAzLjc1NCAwIDAgMS0xNS43ODMgOS4xOTEgMTAyLjk0MyAxMDIuOTQzIDAgMCAxLTE3LjE1NyA2LjI5bDMuODU1IDE0LjM5MmExMTguMzc3IDExOC4zNzcgMCAwIDAgMTkuNTk0LTcuMTc2IDExOS40MjMgMTE5LjQyMyAwIDAgMCAxOC4wMjYtMTAuNDk0bDguNTM2IDEyLjE5OWExMzQuNTg3IDEzNC41ODcgMCAwIDAgMzIuOS0zMy4xNGwtMTIuMTg3LTguNTQ2em0tMjQuMzc5LTE3LjA4NmwtMTIuMTk2LTguNTVhNzQuNjk2IDc0LjY5NiAwIDAgMS04LjMyNCAxMC4wNTQgNzUuMzI2IDc1LjMyNiAwIDAgMS05Ljk2OCA4LjQ0Nmw4LjU0MyAxMi4yMTlhODkuMDgyIDg5LjA4MiAwIDAgMS0xMy41MzIgNy44OTNsNi4yODkgMTMuNDk5YTEwMy43NTQgMTAzLjc1NCAwIDAgMCAxNS43ODMtOS4xOTEgMTA0Ljk2MyAxMDQuOTYzIDAgMCAwIDEzLjkzMS0xMS43OTggMTA0Ljc5NyAxMDQuNzk3IDAgMCAwIDExLjY2MS0xNC4wMjlsLTEyLjE4Ny04LjU0M3ptLTIxLjk0NSAyMi4xNjlsLTguNTQzLTEyLjIxOWE3NC4wMzkgNzQuMDM5IDAgMCAxLTExLjI4NyA2LjYwNCA3My45NjYgNzMuOTY2IDAgMCAxLTI1LjE1NSA2Ljc4MWMtMi4xNi4xOS00LjMzOC4zMDQtNi41NDIuMzA0LTIuMjAzIDAtNC4zODUtLjExNS02LjU0LS4zMDRhNzQuMDggNzQuMDggMCAwIDEtMTIuODgyLTIuMjc0bC0zLjg1NSAxNC40MDFhODguNTI0IDg4LjUyNCAwIDAgMS0xNC43Mi01LjQwMiA4OC43OTcgODguNzk3IDAgMCAxLTEzLjUzOC03Ljg5MWwtOC41MyAxMi4yYTEwMy44NDggMTAzLjg0OCAwIDAgMCAxNS43NzkgOS4xOTIgMTAzLjE0NiAxMDMuMTQ2IDAgMCAwIDE3LjE1MSA2LjI5IDEwNC4wOTQgMTA0LjA5NCAwIDAgMCAxNy45OTYgMy4xNzNjMy4wMS4yNjUgNi4wNTguNDA0IDkuMTQuNDA0IDMuMDc3IDAgNi4xMjItLjE0IDkuMTM1LS40MDRhMTAzLjk2OSAxMDMuOTY5IDAgMCAwIDE3Ljk5MS0zLjE3MyAxMDIuOTQzIDEwMi45NDMgMCAwIDAgMTcuMTU3LTYuMjlsLTYuMjktMTMuNWE4OS4wODIgODkuMDgyIDAgMCAwIDEzLjUzMy03Ljg5MnoiIGZpbGw9IiM1MkMxREIiLz48cGF0aCBkPSJNMjE5LjM2OCA3NC41NjZhMTA0Ljc1OSAxMDQuNzU5IDAgMCAwLTI1LjYtMjUuNDE4bC04LjUzNiAxMi4yMDNhODkgODkgMCAwIDAtMTMuNDMtNy43MmwtNi4yOTcgMTMuNTE1YTczLjk3OCA3My45NzggMCAwIDEgMTEuMTg1IDYuNDE3IDc0Ljg1MyA3NC44NTMgMCAwIDEgOS45MjggOC4yNWwtMTAuNTIgMTAuNTMxLTEwLjUyOSAxMC41MzJhNDQuMzYgNDQuMzYgMCAwIDEgNS4wMjkgNS44NzYgNDQuMzk3IDQ0LjM5NyAwIDAgMSAzLjk2NSA2LjY1OGwyNi45NzMtMTIuNTkgMTMuNDk0LTYuMjk3IDEzLjQ4Ny02LjI5N2ExMDQuMTU2IDEwNC4xNTYgMCAwIDAtOS4xNDktMTUuNjYiIGZpbGw9IiM1MkMxREIiLz48cGF0aCBkPSJNMjQzLjc1MiA1Ny40ODJhMTM0Ljg2NiAxMzQuODY2IDAgMCAwLTE1LjA0My0xNy44MDIgMTM0LjUzOCAxMzQuNTM4IDAgMCAwLTM4LjAzNi0yNi41NTUgMTMzLjI5MyAxMzMuMjkzIDAgMCAwLTIxLjg3NS03LjkzMiAxMzMuMzE1IDEzMy4zMTUgMCAwIDAtMjIuOTEzLTMuOTk5bC0xLjI5NSAxNC44MzljNi45NzQuNTk4IDEzLjc3NyAxLjggMjAuMzU0IDMuNTQ4bC0zLjg1IDE0LjM5M2ExMDMuNTY4IDEwMy41NjggMCAwIDEgMTYuOTkzIDYuMTU2IDEwMy43MjQgMTAzLjcyNCAwIDAgMSAxNS42ODEgOS4wMTggMTA0LjgzNyAxMDQuODM3IDAgMCAxIDI1LjYgMjUuNDE4IDEwNC4xNTYgMTA0LjE1NiAwIDAgMSA5LjE0OSAxNS42NmwxMy40ODUtNi4yOTYgMTMuNDkxLTYuMjk2YTEzNC4yMTQgMTM0LjIxNCAwIDAgMC0xMS43NDEtMjAuMTUyIiBmaWxsPSIjM0I1MjhBIi8+PHBhdGggZD0iTTE3OC4wODcgNDAuMTNhMTAzLjU2OCAxMDMuNTY4IDAgMCAwLTE2Ljk5My02LjE1NiAxMDMuNjEgMTAzLjYxIDAgMCAwLTE3LjgwMy0zLjEwNGMtMi45OC0uMjU3LTUuOTg4LS4zOTUtOS4wMzMtLjM5NWExMDUgMTA1IDAgMCAwLTkuMDM2LjM5NSAxMDMuNjIgMTAzLjYyIDAgMCAwLTE3Ljc5OSAzLjEwNGwzLjg1IDE0LjM5YTg4LjMzOCA4OC4zMzggMCAwIDAtMTQuNTU4IDUuMjY3bDYuMjkzIDEzLjUxN2E3NC4zMyA3NC4zMyAwIDAgMSAxMi4xMTgtNC4zOSA3NC42NjcgNzQuNjY3IDAgMCAxIDEyLjY5NC0yLjE5NyA3NC4yMiA3NC4yMiAwIDAgMSA2LjQzOC0uMjk2YzIuMTcgMCA0LjMxMy4xMTEgNi40NC4yOTZhNzQuNTkgNzQuNTkgMCAwIDEgMTIuNjg4IDIuMTk3IDczLjc5IDczLjc5IDAgMCAxIDEyLjEyIDQuMzg4bDYuMjk3LTEzLjUxNWE4OSA4OSAwIDAgMSAxMy40MyA3LjcybDguNTM1LTEyLjIwM2ExMDMuNzI0IDEwMy43MjQgMCAwIDAtMTUuNjgxLTkuMDE4IiBmaWxsPSIjMDBBRUU4Ii8+PHBhdGggZD0iTTE0NC41OSAxNi4wMzNsMS4yOTUtMTQuODM5Yy0zLjgzMy0uMzMtNy43MDktLjUwOC0xMS42MjctLjUwOC0zLjkxNyAwLTcuNzkyLjE3OC0xMS42MjUuNTA4YTEzMy40MTUgMTMzLjQxNSAwIDAgMC0yMi45MTcgNCAxMzIuNjg3IDEzMi42ODcgMCAwIDAtMjEuODcyIDcuOTM2IDEzMy42NDQgMTMzLjY0NCAwIDAgMC0yMC4xNjkgMTEuNjE4QTEzNC42NTQgMTM0LjY1NCAwIDAgMCAzOS44MDQgMzkuNjhsMTAuNTIzIDEwLjUzMkExMTkuNjMgMTE5LjYzIDAgMCAxIDY2LjIxIDM2Ljk0OGw4LjUzNiAxMi4yMDRhMTAzLjY5OCAxMDMuNjk4IDAgMCAxIDMyLjY3Ny0xNS4xNzggMTAzLjYyIDEwMy42MiAwIDAgMSAxNy44LTMuMTA0IDEwNSAxMDUgMCAwIDEgOS4wMzUtLjM5NWMzLjA0NSAwIDYuMDUzLjEzOCA5LjAzMy4zOTUgNi4xLjUyNiAxMi4wNSAxLjU3IDE3LjgwMyAzLjEwNGwzLjg1LTE0LjM5M2ExMTguNjYzIDExOC42NjMgMCAwIDAtMjAuMzU0LTMuNTQ4IiBmaWxsPSIjM0Y4QUJEIi8+PHBhdGggZD0iTTExMS4yNzMgNDguMzY0bC0zLjg1LTE0LjM5YTEwMy42OTggMTAzLjY5OCAwIDAgMC0zMi42NzggMTUuMTc4IDEwNC42OTkgMTA0LjY5OSAwIDAgMC0xMy44OTggMTEuNTkxIDEwNS4zNjggMTA1LjM2OCAwIDAgMC0xMS43MDMgMTMuODI4bDEyLjE5MiA4LjU0MWE4OS4wMDggODkuMDA4IDAgMCAwLTcuODQ5IDEzLjQxbDEzLjQ5NSA2LjI5OGE3NC40NjkgNzQuNDY5IDAgMCAxIDYuNTU4LTExLjE1MyA3NS4yNSA3NS4yNSAwIDAgMSA4LjM1NS05Ljg1NSA3NC45NTggNzQuOTU4IDAgMCAxIDkuOTI1LTguMjUgNzQuMjQzIDc0LjI0MyAwIDAgMSAxMS4xODgtNi40MTRMOTYuNzE1IDUzLjYzYTg4LjMzOCA4OC4zMzggMCAwIDEgMTQuNTU4LTUuMjY3IiBmaWxsPSIjNTJDMURCIi8+PHBhdGggZD0iTTY2LjIxIDM2Ljk0OGExMTkuNjMgMTE5LjYzIDAgMCAwLTE1Ljg4MyAxMy4yNjRMMzkuODA0IDM5LjY4YTEzNC44MDUgMTM0LjgwNSAwIDAgMC0xNS4wMzggMTcuODA1QTEzMy42NzMgMTMzLjY3MyAwIDAgMCA0Ljk1MyA5OS41NDJhMTM0LjE1OCAxMzQuMTU4IDAgMCAwLTQuMTMgMjIuOTk1bDE0LjgyNSAxLjNhMTE4LjU3MiAxMTguNTcyIDAgMCAxIDMuNjgyLTIwLjQ0bDE0LjM3MyAzLjg1N2ExMDMuMjk3IDEwMy4yOTcgMCAwIDEgNi4yOTgtMTcuMDI4IDEwMy45MzggMTAzLjkzOCAwIDAgMSA5LjE0My0xNS42NTVjMy41MDMtNC45NDYgNy40Mi05LjU3IDExLjcwMy0xMy44MjhhMTA0LjY5OSAxMDQuNjk5IDAgMCAxIDEzLjg5OS0xMS41OUw2Ni4yMSAzNi45NDciIGZpbGw9IiMwMEFFRTgiLz48cGF0aCBkPSJNMzkuNTQ2IDE3OC40M2ExMDMuODYyIDEwMy44NjIgMCAwIDEtNi4xMzgtMTcuMTU4IDEwMy42NjcgMTAzLjY2NyAwIDAgMS0zLjA0LTE3Ljk1IDEwNS4yNTYgMTA1LjI1NiAwIDAgMS0uMzQ3LTguNTFjMC0zLjI2NC4xNTktNi40OTQuNDU1LTkuNjc4YTEwMy43NjYgMTAzLjc2NiAwIDAgMSAzLjIyNy0xNy44OGwtMTQuMzczLTMuODU3YTExOC41NzIgMTE4LjU3MiAwIDAgMC0zLjY4MiAyMC40NGwtMTQuODI0LTEuM2ExMzYuODI3IDEzNi44MjcgMCAwIDAtLjU2MiAxMi4yNzVjMCAzLjc0LjE2IDcuNDQzLjQ1NSAxMS4xMDMuNjUyIDcuOTA0IDEuOTggMTUuNjEgMy45MzUgMjMuMDY4IDIuMDA3IDcuNjM0IDQuNjY5IDE1LjAwMSA3LjkxOCAyMi4wMzhhMTMzLjkyMiAxMzMuOTIyIDAgMCAwIDExLjY0NyAyMC4zMjhsMTIuMTkyLTguNTQ1YTExOC45NDMgMTE4Ljk0MyAwIDAgMS0xMC4zNDgtMTguMDhsMTMuNDg1LTYuMjk0IiBmaWxsPSIjM0Y4QUJEIi8+PHBhdGggZD0iTTYwLjAzNyAxNDAuNzIxYTc0LjkxMSA3NC45MTEgMCAwIDEtLjI1My01LjkwOWMwLTIuMzkuMTI0LTQuNzUxLjMzOS03LjA4MWE3NC4yODUgNzQuMjg1IDAgMCAxIDIuMzQ5LTEyLjc2NCA3My45NTYgNzMuOTU2IDAgMCAxIDQuNTEtMTIuMTQ3bC0xMy40OTUtNi4yOTdhODkuMDA4IDg5LjAwOCAwIDAgMSA3Ljg1LTEzLjQxTDQ5LjE0MyA3NC41N2ExMDMuOTM4IDEwMy45MzggMCAwIDAtOS4xNDMgMTUuNjU1IDEwMy4yOTcgMTAzLjI5NyAwIDAgMC02LjI5OCAxNy4wMjggMTAzLjc2NiAxMDMuNzY2IDAgMCAwLTMuMjI3IDE3Ljg4IDEwNC41ODggMTA0LjU4OCAwIDAgMC0uNDU1IDkuNjc4YzAgMi44NjUuMTIgNS43MDIuMzQ3IDguNTFhMTAzLjY2NyAxMDMuNjY3IDAgMCAwIDMuMDQgMTcuOTVsMTQuMzc3LTMuODU3YTg4LjQ5NSA4OC40OTUgMCAwIDAgNS4yNDggMTQuNzE1bDEzLjUwMy02LjI5OWE3NC4xNTUgNzQuMTU1IDAgMCAxLTQuMzcyLTEyLjI3NCA3NC4wNTUgNzQuMDU1IDAgMCAxLTIuMTI3LTEyLjgzNiIgZmlsbD0iIzNCNTI4QSIvPjxwYXRoIGQ9Ik04OS45NzIgMjI5LjI3OWExMDMuODQ4IDEwMy44NDggMCAwIDEtMTUuNzgtOS4xOTFBMTA0Ljk0NSAxMDQuOTQ1IDAgMCAxIDYwLjI2IDIwOC4yOWExMDQuODY4IDEwNC44NjggMCAwIDEtMTEuNjYtMTQuMDI5IDEwNC4yODUgMTA0LjI4NSAwIDAgMS05LjA1NC0xNS44MzFsLTEzLjQ4NSA2LjI5NGExMTguOTQzIDExOC45NDMgMCAwIDAgMTAuMzQ4IDE4LjA4bC0xMi4xOTIgOC41NDVhMTM0LjcxNSAxMzQuNzE1IDAgMCAwIDMyLjkwNSAzMy4xNCAxMzQuMTg3IDEzNC4xODcgMCAwIDAgMjAuMjY4IDExLjc5NWw2LjI5NC0xMy41YzYuMjUgMi45NCAxMi44IDUuMzUyIDE5LjU5IDcuMTc3bDMuODUtMTQuMzkyYTEwMy4xNDYgMTAzLjE0NiAwIDAgMS0xNy4xNTItNi4yOSIgZmlsbD0iIzUyQzFEQiIvPjxwYXRoIGQ9Ik0xMDIuNTUzIDIwMi4yNzJhNzQuMzEzIDc0LjMxMyAwIDAgMS0xMS4yNzgtNi42MDQgNzQuNjcgNzQuNjcgMCAwIDEtOS45NjctOC40NDYgNzQuOTMyIDc0LjkzMiAwIDAgMS0xNC43NzItMjEuMzlsLTEzLjUwMyA2LjI5OGE4OC40OTUgODguNDk1IDAgMCAxLTUuMjQ4LTE0LjcxNWwtMTQuMzc3IDMuODU3YTEwMy44NjIgMTAzLjg2MiAwIDAgMCA2LjEzOCAxNy4xNThBMTA0LjI4NSAxMDQuMjg1IDAgMCAwIDQ4LjYgMTk0LjI2YTEwNC44NjggMTA0Ljg2OCAwIDAgMCAxMS42NiAxNC4wMjkgMTA0Ljk0NSAxMDQuOTQ1IDAgMCAwIDEzLjkzMiAxMS43OThsOC41MzEtMTIuMjAxYTg4Ljc5NyA4OC43OTcgMCAwIDAgMTMuNTM3IDcuODkgODguNTI0IDg4LjUyNCAwIDAgMCAxNC43MiA1LjQwM2wzLjg1Ni0xNC40YTczLjg5OSA3My44OTkgMCAwIDEtMTIuMjgzLTQuNTA4IiBmaWxsPSIjMDBBRUU4Ii8+PHBhdGggZD0iTTIwMi44NiAyMzIuMjkxYTExOS40MjMgMTE5LjQyMyAwIDAgMS0xOC4wMjYgMTAuNDk0IDExOC4zNzcgMTE4LjM3NyAwIDAgMS0xOS41OTQgNy4xNzZsLTMuODU1LTE0LjM5MmExMDMuOTY5IDEwMy45NjkgMCAwIDEtMTcuOTkxIDMuMTczYy0zLjAxMy4yNjUtNi4wNTguNDA0LTkuMTM2LjQwNC0zLjA4MSAwLTYuMTMtLjE0LTkuMTM5LS40MDRhMTA0LjA5NCAxMDQuMDk0IDAgMCAxLTE3Ljk5Ni0zLjE3M2wtMy44NSAxNC4zOTJhMTE4LjAzNyAxMTguMDM3IDAgMCAxLTE5LjU5LTcuMTc2bC02LjI5MyAxMy41YTEzMy4wOTUgMTMzLjA5NSAwIDAgMCAyMi4wMzQgOC4wNjYgMTMzLjc1MSAxMzMuNzUxIDAgMCAwIDIzLjEwNiA0LjA2N2MzLjg2Ny4zMzcgNy43NzYuNTE4IDExLjcyOC41MTggMy45NTMgMCA3Ljg2My0uMTgxIDExLjczLS41MThhMTMzLjgyNiAxMzMuODI2IDAgMCAwIDIzLjEwNi00LjA2NyAxMzMuNjkzIDEzMy42OTMgMCAwIDAgNDIuMzAyLTE5Ljg2MWwtOC41MzYtMTIuMTk5IiBmaWxsPSIjM0I1MjhBIi8+PHBhdGggZD0iTTIzMi4xMDkgMjAyLjgwNGwtMTIuMTkyLTguNTQzYTEwNC43OTcgMTA0Ljc5NyAwIDAgMS0xMS42NiAxNC4wMjkgMTA0Ljk2MyAxMDQuOTYzIDAgMCAxLTEzLjkzMiAxMS43OTggMTAzLjc1NCAxMDMuNzU0IDAgMCAxLTE1Ljc4MyA5LjE5MSAxMDIuOTQzIDEwMi45NDMgMCAwIDEtMTcuMTU3IDYuMjlsMy44NTUgMTQuMzkyYTExOC4zNzcgMTE4LjM3NyAwIDAgMCAxOS41OTQtNy4xNzYgMTE5LjQyMyAxMTkuNDIzIDAgMCAwIDE4LjAyNi0xMC40OTRsOC41MzYgMTIuMTk5YTEzNC41ODcgMTM0LjU4NyAwIDAgMCAzMi45LTMzLjE0bC0xMi4xODctOC41NDYiIGZpbGw9IiMwMEFFRTgiLz48cGF0aCBkPSJNMjA3LjczIDE4NS43MThsLTEyLjE5Ni04LjU1YTc0LjY5NiA3NC42OTYgMCAwIDEtOC4zMjQgMTAuMDU0IDc1LjMyNiA3NS4zMjYgMCAwIDEtOS45NjggOC40NDZsOC41NDMgMTIuMjE5YTg5LjA4MiA4OS4wODIgMCAwIDEtMTMuNTMyIDcuODkzbDYuMjg5IDEzLjQ5OWExMDMuNzU0IDEwMy43NTQgMCAwIDAgMTUuNzgzLTkuMTkxIDEwNC45NjMgMTA0Ljk2MyAwIDAgMCAxMy45MzEtMTEuNzk4IDEwNC43OTcgMTA0Ljc5NyAwIDAgMCAxMS42NjEtMTQuMDI5bC0xMi4xODctOC41NDMiIGZpbGw9IiM1MkMxREIiLz48cGF0aCBkPSJNMTg1Ljc4NSAyMDcuODg3bC04LjU0My0xMi4yMTlhNzQuMDM5IDc0LjAzOSAwIDAgMS0xMS4yODcgNi42MDQgNzMuOTY2IDczLjk2NiAwIDAgMS0yNS4xNTUgNi43ODFjLTIuMTYuMTktNC4zMzguMzA0LTYuNTQyLjMwNC0yLjIwMyAwLTQuMzg1LS4xMTUtNi41NC0uMzA0YTc0LjA4IDc0LjA4IDAgMCAxLTEyLjg4Mi0yLjI3NGwtMy44NTUgMTQuNDAxYTg4LjUyNCA4OC41MjQgMCAwIDEtMTQuNzItNS40MDIgODguNzk3IDg4Ljc5NyAwIDAgMS0xMy41MzgtNy44OTFsLTguNTMgMTIuMmExMDMuODQ4IDEwMy44NDggMCAwIDAgMTUuNzc5IDkuMTkyIDEwMy4xNDYgMTAzLjE0NiAwIDAgMCAxNy4xNTEgNi4yOSAxMDQuMDk0IDEwNC4wOTQgMCAwIDAgMTcuOTk2IDMuMTczYzMuMDEuMjY1IDYuMDU4LjQwNCA5LjE0LjQwNCAzLjA3NyAwIDYuMTIyLS4xNCA5LjEzNS0uNDA0YTEwMy45NjkgMTAzLjk2OSAwIDAgMCAxNy45OTEtMy4xNzMgMTAyLjk0MyAxMDIuOTQzIDAgMCAwIDE3LjE1Ny02LjI5bC02LjI5LTEzLjVhODkuMDgyIDg5LjA4MiAwIDAgMCAxMy41MzMtNy44OTIiIGZpbGw9IiMzRjhBQkQiLz48L3N2Zz4=;" vertex="1" parent="1">
          <mxGeometry x="198.88" y="916" width="41.87" height="44" as="geometry" />
        </mxCell>
        <mxCell id="JX4TtDDn6b8yOE6emrvu-39" value="capistrano" style="text;html=1;align=center;verticalAlign=middle;resizable=0;points=[];autosize=1;strokeColor=none;" vertex="1" parent="1">
          <mxGeometry x="184.81000000000003" y="966" width="70" height="20" as="geometry" />
        </mxCell>
        <mxCell id="JX4TtDDn6b8yOE6emrvu-40" value="RDS&lt;br&gt;" style="text;html=1;align=center;verticalAlign=middle;resizable=0;points=[];autosize=1;strokeColor=none;" vertex="1" parent="1">
          <mxGeometry x="460" y="740" width="40" height="20" as="geometry" />
        </mxCell>
        <mxCell id="JX4TtDDn6b8yOE6emrvu-41" value="github&lt;br&gt;" style="text;html=1;align=center;verticalAlign=middle;resizable=0;points=[];autosize=1;strokeColor=none;" vertex="1" parent="1">
          <mxGeometry x="100" y="961" width="50" height="20" as="geometry" />
        </mxCell>
        <mxCell id="JX4TtDDn6b8yOE6emrvu-42" value="" style="edgeStyle=orthogonalEdgeStyle;html=1;endArrow=block;elbow=vertical;startArrow=none;endFill=1;strokeColor=#545B64;rounded=0;" edge="1" parent="1">
          <mxGeometry width="100" relative="1" as="geometry">
            <mxPoint x="60" y="940.8000000000001" as="sourcePoint" />
            <mxPoint x="100" y="941.0500000000001" as="targetPoint" />
            <Array as="points">
              <mxPoint x="85" y="941.3" />
              <mxPoint x="110" y="941.3" />
            </Array>
          </mxGeometry>
        </mxCell>
        <mxCell id="JX4TtDDn6b8yOE6emrvu-44" value="" style="edgeStyle=orthogonalEdgeStyle;html=1;endArrow=block;elbow=vertical;startArrow=none;endFill=1;strokeColor=#545B64;rounded=0;" edge="1" parent="1">
          <mxGeometry width="100" relative="1" as="geometry">
            <mxPoint x="150" y="940.8000000000002" as="sourcePoint" />
            <mxPoint x="190" y="941.0500000000002" as="targetPoint" />
            <Array as="points">
              <mxPoint x="175" y="941.3" />
              <mxPoint x="200" y="941.3" />
            </Array>
          </mxGeometry>
        </mxCell>
        <mxCell id="JX4TtDDn6b8yOE6emrvu-50" value="" style="edgeStyle=orthogonalEdgeStyle;html=1;endArrow=block;elbow=vertical;startArrow=none;endFill=1;strokeColor=#545B64;rounded=0;" edge="1" parent="1">
          <mxGeometry width="100" relative="1" as="geometry">
            <mxPoint x="219.73" y="870" as="sourcePoint" />
            <mxPoint x="219.73" y="770" as="targetPoint" />
            <Array as="points">
              <mxPoint x="219.73" y="902" />
            </Array>
          </mxGeometry>
        </mxCell>
        <mxCell id="JX4TtDDn6b8yOE6emrvu-51" value="Route53&lt;br&gt;" style="text;html=1;align=center;verticalAlign=middle;resizable=0;points=[];autosize=1;strokeColor=none;" vertex="1" parent="1">
          <mxGeometry x="65" y="731.5" width="60" height="20" as="geometry" />
        </mxCell>
      </root>
    </mxGraphModel>
  </diagram>
</mxfile>
